<svg width="94" height="52" viewBox="0 0 94 52" fill="none" xmlns="http://www.w3.org/2000/svg">
<path d="M15.8017 12.339H14.6445L17.9915 3.36515H19.1308L22.4779 12.339H21.3206L18.5967 4.78483H18.5256L15.8017 12.339ZM16.2289 8.83354H20.8934V9.79756H16.2289V8.83354ZM23.7552 14.8628V5.6086H24.7699V6.67774H24.8946C24.9717 6.5609 25.0785 6.41191 25.2151 6.2308C25.3545 6.04678 25.5533 5.88319 25.8115 5.74005C26.0725 5.59399 26.4257 5.52096 26.8707 5.52096C27.4463 5.52096 27.9538 5.66264 28.3929 5.94599C28.832 6.22934 29.1747 6.631 29.421 7.15098C29.6673 7.67094 29.7904 8.28438 29.7904 8.9913C29.7904 9.70405 29.6673 10.3219 29.421 10.8448C29.1747 11.3647 28.8335 11.7678 28.3974 12.0541C27.9612 12.3375 27.4583 12.4792 26.8885 12.4792C26.4494 12.4792 26.0978 12.4076 25.8337 12.2645C25.5697 12.1184 25.3664 11.9534 25.2239 11.7693C25.0815 11.5824 24.9717 11.4275 24.8946 11.3049H24.8056V14.8628H23.7552ZM24.7878 8.97376C24.7878 9.48204 24.8634 9.93047 25.0148 10.319C25.1661 10.7046 25.3871 11.0069 25.6779 11.226C25.9687 11.4422 26.3248 11.5502 26.7461 11.5502C27.1852 11.5502 27.5517 11.4364 27.8454 11.2084C28.1421 10.9777 28.3647 10.6681 28.513 10.2796C28.6644 9.88808 28.7401 9.45287 28.7401 8.97376C28.7401 8.50055 28.6658 8.07405 28.5175 7.69431C28.3721 7.31164 28.1511 7.0093 27.8543 6.78728C27.5606 6.56236 27.1912 6.44989 26.7461 6.44989C26.3188 6.44989 25.9598 6.55652 25.669 6.76976C25.3783 6.98008 25.1587 7.27512 25.0103 7.65487C24.862 8.03171 24.7878 8.47133 24.7878 8.97376ZM31.3927 14.8628V5.6086H32.4075V6.67774H32.5321C32.6093 6.5609 32.7161 6.41191 32.8525 6.2308C32.992 6.04678 33.1908 5.88319 33.4489 5.74005C33.7101 5.59399 34.0631 5.52096 34.5083 5.52096C35.0839 5.52096 35.5912 5.66264 36.0303 5.94599C36.4695 6.22934 36.8122 6.631 37.0585 7.15098C37.3048 7.67094 37.4279 8.28438 37.4279 8.9913C37.4279 9.70405 37.3048 10.3219 37.0585 10.8448C36.8122 11.3647 36.471 11.7678 36.0348 12.0541C35.5987 12.3375 35.0957 12.4792 34.5261 12.4792C34.0869 12.4792 33.7353 12.4076 33.4712 12.2645C33.2071 12.1184 33.0039 11.9534 32.8615 11.7693C32.719 11.5824 32.6093 11.4275 32.5321 11.3049H32.443V14.8628H31.3927ZM32.4253 8.97376C32.4253 9.48204 32.501 9.93047 32.6522 10.319C32.8035 10.7046 33.0247 11.0069 33.3154 11.226C33.6062 11.4422 33.9622 11.5502 34.3836 11.5502C34.8228 11.5502 35.1892 11.4364 35.4829 11.2084C35.7797 10.9777 36.0022 10.6681 36.1506 10.2796C36.3019 9.88808 36.3775 9.45287 36.3775 8.97376C36.3775 8.50055 36.3034 8.07405 36.155 7.69431C36.0096 7.31164 35.7885 7.0093 35.4919 6.78728C35.1981 6.56236 34.8287 6.44989 34.3836 6.44989C33.9563 6.44989 33.5973 6.55652 33.3065 6.76976C33.0157 6.98008 32.7962 7.27512 32.6478 7.65487C32.4994 8.03171 32.4253 8.47133 32.4253 8.97376ZM40.0806 3.36515V12.339H39.0302V3.36515H40.0806ZM42.0044 12.339V5.6086H43.0548V12.339H42.0044ZM42.5385 4.48687C42.3338 4.48687 42.1573 4.41823 42.0088 4.28093C41.8634 4.14364 41.7907 3.97859 41.7907 3.78579C41.7907 3.59299 41.8634 3.42795 42.0088 3.29065C42.1573 3.15337 42.3338 3.08472 42.5385 3.08472C42.7433 3.08472 42.9183 3.15337 43.0637 3.29065C43.212 3.42795 43.2862 3.59299 43.2862 3.78579C43.2862 3.97859 43.212 4.14364 43.0637 4.28093C42.9183 4.41823 42.7433 4.48687 42.5385 4.48687ZM47.7559 12.4792C47.115 12.4792 46.5631 12.3302 46.1002 12.0322C45.6373 11.7343 45.2813 11.3238 45.032 10.801C44.7828 10.2781 44.6582 9.6807 44.6582 9.00884C44.6582 8.32528 44.7858 7.72206 45.0409 7.19917C45.2991 6.67336 45.6581 6.26294 46.1181 5.9679C46.5809 5.66994 47.1209 5.52096 47.7381 5.52096C48.2188 5.52096 48.652 5.6086 49.0377 5.78387C49.4235 5.95914 49.7395 6.20451 49.9858 6.52C50.232 6.83549 50.3849 7.20356 50.4441 7.6242H49.3938C49.3137 7.31748 49.1356 7.04581 48.8597 6.80919C48.5867 6.56966 48.2188 6.44989 47.7559 6.44989C47.3464 6.44989 46.9874 6.55506 46.6788 6.76538C46.3732 6.97278 46.1344 7.26635 45.9623 7.64611C45.7931 8.02294 45.7086 8.46549 45.7086 8.97376C45.7086 9.49376 45.7917 9.94651 45.9578 10.3321C46.1269 10.7177 46.3643 11.0171 46.6699 11.2304C46.9785 11.4436 47.3405 11.5502 47.7559 11.5502C48.0289 11.5502 48.2767 11.5035 48.4992 11.41C48.7217 11.3166 48.9101 11.1822 49.0645 11.0069C49.2187 10.8317 49.3285 10.6213 49.3938 10.3759H50.4441C50.3849 10.7732 50.2379 11.1311 50.0036 11.4495C49.7721 11.7649 49.465 12.0162 49.0822 12.2031C48.7024 12.3872 48.2604 12.4792 47.7559 12.4792ZM53.9914 12.4967C53.5582 12.4967 53.165 12.4163 52.8119 12.2557C52.4588 12.0921 52.1785 11.8569 51.9708 11.5502C51.7631 11.2406 51.6592 10.8666 51.6592 10.4285C51.6592 10.0429 51.7364 9.73032 51.8906 9.49085C52.045 9.24839 52.2512 9.05846 52.5093 8.92123C52.7674 8.7839 53.0523 8.68166 53.3638 8.61448C53.6783 8.54436 53.9944 8.48886 54.3119 8.44797C54.7273 8.39539 55.0641 8.35595 55.3222 8.32966C55.5833 8.30045 55.7732 8.25225 55.8919 8.18506C56.0136 8.11788 56.0744 8.00103 56.0744 7.83452V7.79947C56.0744 7.36714 55.9542 7.03121 55.7138 6.79167C55.4765 6.55214 55.116 6.43237 54.6323 6.43237C54.1309 6.43237 53.7377 6.54045 53.4528 6.75661C53.1681 6.97278 52.9677 7.20356 52.852 7.44893L51.855 7.09839C52.0331 6.68943 52.2705 6.37102 52.5672 6.14317C52.8668 5.9124 53.1932 5.75173 53.5463 5.66118C53.9024 5.5677 54.2526 5.52096 54.5967 5.52096C54.8163 5.52096 55.0685 5.54725 55.3533 5.59983C55.6412 5.6495 55.9186 5.7532 56.1856 5.91094C56.4556 6.06868 56.6796 6.30676 56.8577 6.62517C57.0358 6.94357 57.1247 7.37006 57.1247 7.90463V12.339H56.0744V11.4275H56.0209C55.9497 11.5736 55.831 11.7298 55.6649 11.8964C55.4987 12.0629 55.2777 12.2045 55.0018 12.3214C54.7258 12.4383 54.389 12.4967 53.9914 12.4967ZM54.1517 11.5678C54.567 11.5678 54.9172 11.4875 55.202 11.3268C55.4899 11.1661 55.7064 10.9587 55.8518 10.7046C56.0001 10.4504 56.0744 10.1832 56.0744 9.90271V8.95622C56.0299 9.00884 55.9319 9.05705 55.7806 9.10085C55.6323 9.14175 55.4601 9.17824 55.2643 9.2104C55.0714 9.23958 54.8831 9.26593 54.6991 9.28929C54.5181 9.30973 54.3712 9.32727 54.2585 9.34181C53.9855 9.37689 53.7303 9.43383 53.4929 9.51271C53.2585 9.58868 53.0686 9.70405 52.9232 9.85891C52.7808 10.0108 52.7096 10.2181 52.7096 10.4811C52.7096 10.8404 52.8446 11.1121 53.1146 11.2961C53.3876 11.4773 53.7333 11.5678 54.1517 11.5678ZM62.015 5.6086V6.48494H58.4723V5.6086H62.015ZM59.5048 3.99612H60.5552V10.411C60.5552 10.7031 60.5982 10.9222 60.6842 11.0682C60.7733 11.2113 60.886 11.3078 61.0225 11.3575C61.162 11.4042 61.3088 11.4275 61.4632 11.4275C61.5788 11.4275 61.6738 11.4217 61.7479 11.41C61.8221 11.3955 61.8815 11.3837 61.926 11.3749L62.1396 12.3039C62.0684 12.3302 61.9691 12.3565 61.8414 12.3828C61.7138 12.412 61.5521 12.4266 61.3563 12.4266C61.0596 12.4266 60.7688 12.3638 60.4839 12.2382C60.202 12.1125 59.9677 11.9212 59.7807 11.6642C59.5968 11.4071 59.5048 11.0828 59.5048 10.6914V3.99612ZM63.5951 12.339V5.6086H64.6454V12.339H63.5951ZM64.1291 4.48687C63.9244 4.48687 63.7478 4.41823 63.5995 4.28093C63.4541 4.14364 63.3814 3.97859 63.3814 3.78579C63.3814 3.59299 63.4541 3.42795 63.5995 3.29065C63.7478 3.15337 63.9244 3.08472 64.1291 3.08472C64.3338 3.08472 64.5089 3.15337 64.6543 3.29065C64.8027 3.42795 64.8769 3.59299 64.8769 3.78579C64.8769 3.97859 64.8027 4.14364 64.6543 4.28093C64.5089 4.41823 64.3338 4.48687 64.1291 4.48687ZM69.3465 12.4792C68.7294 12.4792 68.1878 12.3345 67.722 12.0454C67.2591 11.7562 66.8972 11.3516 66.636 10.8317C66.3778 10.3117 66.2488 9.70405 66.2488 9.00884C66.2488 8.30775 66.3778 7.69577 66.636 7.17288C66.8972 6.64999 67.2591 6.24395 67.722 5.95476C68.1878 5.66556 68.7294 5.52096 69.3465 5.52096C69.9637 5.52096 70.5037 5.66556 70.9666 5.95476C71.4324 6.24395 71.7945 6.64999 72.0526 7.17288C72.3137 7.69577 72.4442 8.30775 72.4442 9.00884C72.4442 9.70405 72.3137 10.3117 72.0526 10.8317C71.7945 11.3516 71.4324 11.7562 70.9666 12.0454C70.5037 12.3345 69.9637 12.4792 69.3465 12.4792ZM69.3465 11.5502C69.8154 11.5502 70.201 11.432 70.5037 11.1953C70.8064 10.9587 71.0304 10.6476 71.1758 10.262C71.3212 9.87645 71.3939 9.45868 71.3939 9.00884C71.3939 8.55897 71.3212 8.13979 71.1758 7.75127C71.0304 7.36276 70.8064 7.04873 70.5037 6.80919C70.201 6.56966 69.8154 6.44989 69.3465 6.44989C68.8777 6.44989 68.4919 6.56966 68.1893 6.80919C67.8867 7.04873 67.6627 7.36276 67.5173 7.75127C67.3719 8.13979 67.2992 8.55897 67.2992 9.00884C67.2992 9.45868 67.3719 9.87645 67.5173 10.262C67.6627 10.6476 67.8867 10.9587 68.1893 11.1953C68.4919 11.432 68.8777 11.5502 69.3465 11.5502ZM75.098 8.29022V12.339H74.0476V5.6086H75.0624V6.66022H75.1514C75.3117 6.31844 75.5549 6.04385 75.8813 5.83645C76.2077 5.62612 76.6291 5.52096 77.1454 5.52096C77.6082 5.52096 78.0132 5.61445 78.3604 5.8014C78.7076 5.98543 78.9776 6.26587 79.1704 6.64269C79.3634 7.0166 79.4598 7.48983 79.4598 8.06238V12.339H78.4094V8.13248C78.4094 7.60375 78.2699 7.19187 77.991 6.89683C77.7121 6.59888 77.3294 6.44989 76.8427 6.44989C76.5075 6.44989 76.2077 6.52146 75.9436 6.6646C75.6826 6.80773 75.4763 7.0166 75.325 7.29119C75.1736 7.56578 75.098 7.89879 75.098 8.29022Z" fill="white"/>
<path d="M20.1433 40.5424H3.13379V9.69495H6.84903V40.1017H20.1433V40.5424ZM33.032 40.7187C29.8986 40.7187 27.3472 39.8373 25.3777 38.0746C23.4082 36.3119 22.4234 33.5944 22.4234 29.9221C22.4234 26.2497 23.438 23.4 25.4672 21.3729C27.5263 19.3458 30.1224 18.3322 33.2558 18.3322C36.4189 18.3322 38.9853 19.2136 40.9548 20.9763C42.9243 22.739 43.9091 25.4565 43.9091 29.1288C43.9091 32.8012 42.8796 35.6509 40.8205 37.678C38.7913 39.7051 36.1951 40.7187 33.032 40.7187ZM33.3453 18.6848C31.0773 18.6848 29.1973 19.6836 27.7053 21.6814C26.2132 23.6497 25.4672 26.4114 25.4672 29.9661C25.4672 33.4916 26.1535 36.1063 27.5263 37.8102C28.8989 39.5141 30.7192 40.3661 32.9872 40.3661C35.2551 40.3661 37.1351 39.3819 38.6272 37.4136C40.1192 35.4158 40.8653 32.6543 40.8653 29.1288C40.8653 25.5741 40.1789 22.9446 38.8063 21.2407C37.4335 19.5368 35.6132 18.6848 33.3453 18.6848ZM47.247 30.3187C47.247 26.4995 48.187 23.547 50.067 21.461C51.947 19.3751 54.767 18.3322 58.527 18.3322C61.3022 18.3322 64.1222 18.817 66.987 19.7865V41.0712C66.9572 48.0633 63.8537 51.5594 57.6765 51.5594C54.2746 51.5594 51.3651 50.4724 48.948 48.2983L49.2613 48.0339C51.8277 50.1492 54.6327 51.2068 57.6765 51.2068C61.7946 51.2068 63.8537 47.8283 63.8537 41.0712V36.7085C63.2867 37.7368 62.3467 38.6475 61.0337 39.4407C59.7206 40.2339 58.1689 40.6305 56.3784 40.6305C50.2908 40.4836 47.247 37.0463 47.247 30.3187ZM56.4232 40.278C58.4225 40.278 60.1384 39.7492 61.5708 38.6916C63.0032 37.6339 63.7641 36.591 63.8537 35.5627V20.0068C61.7051 19.1255 59.8848 18.6848 58.3927 18.6848C55.7368 18.6848 53.7375 19.7131 52.3946 21.7695C51.0518 23.7966 50.3803 26.6463 50.3803 30.3187C50.3803 36.9582 52.3946 40.278 56.4232 40.278ZM80.9412 40.7187C77.8078 40.7187 75.2564 39.8373 73.2869 38.0746C71.3174 36.3119 70.3326 33.5944 70.3326 29.9221C70.3326 26.2497 71.3472 23.4 73.3764 21.3729C75.4355 19.3458 78.0316 18.3322 81.165 18.3322C84.3281 18.3322 86.8945 19.2136 88.864 20.9763C90.834 22.739 91.8188 25.4565 91.8188 29.1288C91.8188 32.8012 90.7892 35.6509 88.7297 37.678C86.7005 39.7051 84.1043 40.7187 80.9412 40.7187ZM81.2545 18.6848C78.9866 18.6848 77.1066 19.6836 75.6145 21.6814C74.1224 23.6497 73.3764 26.4114 73.3764 29.9661C73.3764 33.4916 74.0628 36.1063 75.4355 37.8102C76.8081 39.5141 78.6285 40.3661 80.8964 40.3661C83.1643 40.3661 85.0443 39.3819 86.5364 37.4136C88.0285 35.4158 88.7745 32.6543 88.7745 29.1288C88.7745 25.5741 88.0881 22.9446 86.7155 21.2407C85.3428 19.5368 83.5224 18.6848 81.2545 18.6848Z" fill="white"/>
</svg>
