<svg width="175" height="50" viewBox="0 0 175 50" fill="none" xmlns="http://www.w3.org/2000/svg">
<path d="M33.6743 3.65405C30.486 3.65405 27.2977 4.87206 24.8975 7.30809C22.4614 4.87206 19.2731 3.65405 16.1206 3.65405C18.3775 1.39714 21.4942 0 24.8975 0C28.3007 0 31.4174 1.39714 33.6743 3.65405Z" fill="#41A4DC"/>
<path d="M46.1052 16.0849C43.8483 13.828 40.7316 12.4309 37.3284 12.4309C37.3284 8.99179 35.9312 5.91093 33.6743 3.65402C36.8626 3.65402 40.051 4.87204 42.4512 7.30806C44.8872 9.70827 46.1052 12.8966 46.1052 16.0849Z" fill="#7FBB49"/>
<path d="M37.2927 12.4309C33.8536 12.4309 30.7369 13.828 28.5159 16.0849C28.5159 12.8966 27.2978 9.70827 24.8618 7.30806C27.2978 4.87204 30.4504 3.65402 33.6387 3.65402C35.8956 5.91093 37.2927 8.99179 37.2927 12.4309Z" fill="#36A533"/>
<path d="M28.5156 16.085C26.2587 18.3419 24.8616 21.4227 24.8616 24.8618C24.8616 21.4227 23.4644 18.306 21.2075 16.085C21.2075 12.8966 22.4255 9.70829 24.8616 7.30809C27.2976 9.70829 28.5156 12.8966 28.5156 16.085Z" fill="#368332"/>
<path d="M24.8621 7.27227C22.426 9.7083 21.208 12.8966 21.208 16.0491C18.9511 13.7922 15.8703 12.3951 12.4312 12.3951C12.4312 8.95599 13.8283 5.87513 16.0852 3.61823C19.2735 3.65405 22.4619 4.87206 24.8621 7.27227Z" fill="#424797"/>
<path d="M24.8621 24.8618C22.426 22.4258 19.2377 21.2078 16.0852 21.2078C13.8283 18.9509 12.4312 15.8342 12.4312 12.4309C15.8703 12.4309 18.9511 13.828 21.208 16.0849C21.2438 19.2733 22.4619 22.4258 24.8621 24.8618Z" fill="#24348A"/>
<path d="M46.1052 33.6387C46.1052 30.4503 44.8872 27.262 42.4512 24.8618C44.8872 22.4258 46.1052 19.2375 46.1052 16.0849C48.3621 18.3419 49.7593 21.4585 49.7593 24.8618C49.7234 28.3009 48.3263 31.4176 46.1052 33.6387Z" fill="#41A4DC"/>
<path d="M33.6743 46.0696C35.9312 43.8127 37.3284 40.696 37.3284 37.2927C40.7675 37.2927 43.8483 35.8956 46.1052 33.6387C46.1052 36.827 44.8872 40.0153 42.4512 42.4155C40.0152 44.8516 36.8626 46.0696 33.6743 46.0696Z" fill="#7FBB49"/>
<path d="M37.2927 37.2927C37.2927 33.8536 35.8956 30.7369 33.6387 28.5159C36.827 28.5159 40.0153 27.2978 42.4155 24.8618C44.8516 27.2978 46.0696 30.4504 46.0696 33.6387C43.8485 35.8956 40.7318 37.2927 37.2927 37.2927Z" fill="#36A533"/>
<path d="M33.6743 28.5159C31.4174 26.259 28.3366 24.8618 24.8975 24.8618C28.3366 24.8618 31.4532 23.4647 33.6743 21.2078C36.8627 21.2078 40.051 22.4258 42.4512 24.8618C40.0152 27.2979 36.8627 28.5159 33.6743 28.5159Z" fill="#368332"/>
<path d="M42.4512 24.8618C40.0152 22.4258 36.8626 21.2078 33.6743 21.2078C35.9312 18.9509 37.3284 15.87 37.3284 12.4309C40.7675 12.4309 43.8483 13.828 46.1052 16.0849C46.1052 19.2374 44.8872 22.4258 42.4512 24.8618Z" fill="#424797"/>
<path d="M24.8618 24.8618C27.2978 22.4258 28.5159 19.2374 28.5159 16.0849C30.7728 13.828 33.8895 12.4309 37.2927 12.4309C37.2927 15.87 35.8956 18.9509 33.6387 21.2078C30.4862 21.2078 27.2978 22.4258 24.8618 24.8618Z" fill="#24348A"/>
<path d="M16.085 46.0696C19.2733 46.0696 22.4616 44.8516 24.8618 42.4155C27.2979 44.8516 30.4862 46.0696 33.6387 46.0696C31.3818 48.3265 28.2651 49.7236 24.8618 49.7236C21.4586 49.7236 18.3419 48.3265 16.085 46.0696Z" fill="#41A4DC"/>
<path d="M3.65381 33.6387C5.91072 35.8956 9.0274 37.2927 12.4307 37.2927C12.4307 40.7318 13.8278 43.8127 16.0847 46.0696C12.8964 46.0696 9.70806 44.8516 7.30785 42.4155C4.87182 40.0153 3.65381 36.827 3.65381 33.6387Z" fill="#7FBB49"/>
<path d="M12.4668 37.2927C15.9059 37.2927 19.0226 35.8956 21.2437 33.6387C21.2437 36.827 22.4617 40.0153 24.8977 42.4155C22.4617 44.8516 19.2733 46.0696 16.1208 46.0696C13.8281 43.8127 12.4668 40.7318 12.4668 37.2927Z" fill="#36A533"/>
<path d="M21.2437 33.6387C23.5006 31.3818 24.8977 28.3009 24.8977 24.8618C24.8977 28.3009 26.2948 31.4176 28.5517 33.6387C28.5517 36.827 27.3337 40.0153 24.8977 42.4156C22.4617 40.0153 21.2437 36.827 21.2437 33.6387Z" fill="#368332"/>
<path d="M24.8618 42.4514C27.2978 40.0154 28.5159 36.8628 28.5159 33.6745C30.7728 35.9314 33.8536 37.3286 37.2927 37.3286C37.2927 40.7677 35.8956 43.8485 33.6387 46.1054C30.4862 46.0696 27.2978 44.8516 24.8618 42.4514Z" fill="#424797"/>
<path d="M24.8618 24.8618C27.2978 27.2978 30.4862 28.5159 33.6387 28.5159C35.8956 30.7728 37.2927 33.8895 37.2927 37.2927C33.8536 37.2927 30.7728 35.8956 28.5159 33.6387C28.5159 30.4862 27.2978 27.2978 24.8618 24.8618Z" fill="#24348A"/>
<path d="M3.65404 16.0849C3.65404 19.2733 4.87206 22.4616 7.30808 24.8618C4.87206 27.2978 3.65404 30.4862 3.65404 33.6387C1.39713 31.3818 0 28.2651 0 24.8618C0.035824 21.4227 1.39713 18.306 3.65404 16.0849Z" fill="#41A4DC"/>
<path d="M16.0847 3.65402C13.8278 5.91093 12.4307 9.02761 12.4307 12.4309C8.99158 12.4309 5.91072 13.828 3.65381 16.0849C3.65381 12.8966 4.87182 9.70827 7.30785 7.30806C9.74388 4.87204 12.8964 3.65402 16.0847 3.65402Z" fill="#7FBB49"/>
<path d="M12.4668 12.4309C12.4668 15.87 13.8639 18.9867 16.1209 21.2078C12.9325 21.2078 9.74419 22.4258 7.34398 24.8618C4.90795 22.4258 3.68994 19.2733 3.68994 16.0849C5.91103 13.828 9.02771 12.4309 12.4668 12.4309Z" fill="#36A533"/>
<path d="M16.085 21.2078C18.3419 23.4647 21.4227 24.8618 24.8618 24.8618C21.4227 24.8618 18.3061 26.259 16.085 28.5159C12.8966 28.5159 9.70831 27.2979 7.30811 24.8618C9.74413 22.4258 12.8966 21.2078 16.085 21.2078Z" fill="#368332"/>
<path d="M7.30785 24.8618C9.74388 27.2978 12.8964 28.5159 16.0847 28.5159C13.8278 30.7728 12.4307 33.8536 12.4307 37.2927C8.99158 37.2927 5.91072 35.8956 3.65381 33.6387C3.65381 30.4862 4.87182 27.2978 7.30785 24.8618Z" fill="#424797"/>
<path d="M24.8621 24.8618C22.426 27.2978 21.208 30.4862 21.208 33.6387C18.9511 35.8956 15.8344 37.2927 12.4312 37.2927C12.4312 33.8536 13.8283 30.7728 16.0852 28.5159C19.2735 28.5159 22.4619 27.2978 24.8621 24.8618Z" fill="#24348A"/>
<path d="M58.0709 16.8014V19.2016H63.552V20.5988H58.0709V24.7543H56.4946V15.4043H65.9163V16.8014H58.0709Z" fill="#24348A"/>
<path d="M76.52 23.7513C75.4811 24.5394 74.0482 25.0051 72.4003 25.0051C70.7524 25.0051 69.2836 24.5394 68.2805 23.7513C67.0267 22.8199 66.3818 21.566 66.3818 20.0614C66.3818 18.5568 67.0267 17.3388 68.2805 16.3716C69.3194 15.5834 70.7882 15.1177 72.4003 15.1177C73.9765 15.1177 75.4453 15.5834 76.4842 16.3716C77.738 17.3388 78.3829 18.5926 78.3829 20.0614C78.4187 21.566 77.7738 22.8199 76.52 23.7513ZM75.4095 17.3746C74.6572 16.8373 73.6183 16.479 72.4361 16.479C69.8209 16.479 68.0297 17.9836 68.0297 20.0256C68.0297 22.1392 69.7493 23.5722 72.4361 23.5722C75.1229 23.5722 76.8066 22.1392 76.8066 20.0256C76.8066 18.9509 76.3409 18.0553 75.4095 17.3746Z" fill="#24348A"/>
<path d="M90.5631 18.0195C89.5958 16.9806 88.3062 16.5149 86.5866 16.5149C83.9715 16.5149 82.2161 18.0195 82.2161 20.0256C82.2161 22.1392 83.9356 23.5722 86.6941 23.5722C88.3778 23.5722 89.5958 23.1065 90.5989 22.0317L91.9244 22.784C90.5631 24.3603 88.9152 25.0051 86.5866 25.0051C84.9745 25.0051 83.4699 24.5394 82.4669 23.7513C81.213 22.8199 80.604 21.566 80.604 20.0256C80.604 18.521 81.2488 17.303 82.5027 16.3357C83.5416 15.5476 85.0104 15.0819 86.5866 15.0819C88.8793 15.0819 90.7422 15.9058 91.9602 17.5179L90.5631 18.0195Z" fill="#24348A"/>
<path d="M99.8058 25.0051C96.51 25.0051 94.5039 23.608 94.5039 21.7093V15.3685H96.0443V21.3511C96.0443 22.784 97.334 23.608 99.8058 23.608C102.278 23.608 103.532 22.784 103.532 21.3511V15.4043H105.072V21.7093C105.108 23.608 103.066 25.0051 99.8058 25.0051Z" fill="#24348A"/>
<path d="M112.093 16.5148C110.159 16.5148 109.12 17.0164 109.12 17.7687C109.12 18.1986 109.407 18.4852 109.944 18.6643C110.947 19.0225 112.487 18.915 114.386 19.1658C116.715 19.4524 117.825 20.2764 117.825 21.8168C117.825 23.7871 116.034 24.9335 112.738 24.9335C110.374 24.9335 108.511 24.4319 107.186 23.3572L108.045 22.2467C109.55 23.1781 111.055 23.5722 112.774 23.5722C114.995 23.5722 116.177 22.9273 116.177 21.9243C116.177 20.5988 114.601 20.5988 111.843 20.4196C108.977 20.2405 107.508 19.7748 107.508 17.9836C107.508 16.2283 109.192 15.1535 112.237 15.1535C114.243 15.1535 115.927 15.6192 117.288 16.5507L116.356 17.5896C114.959 16.8731 113.598 16.5148 112.093 16.5148Z" fill="#24348A"/>
<path d="M132.943 24.7185L131.868 22.6407H125.563L124.488 24.7185H122.805L127.748 15.3685H129.683L134.627 24.7185H132.943ZM128.716 16.7298L126.315 21.2436H131.08L128.716 16.7298Z" fill="#24348A"/>
<path d="M147.523 20.1689C147.523 21.4944 147.022 22.6407 146.019 23.5005C145.123 24.2886 143.905 24.7543 142.544 24.7543H136.346V15.4043H142.257C145.481 15.3685 147.523 17.2671 147.523 20.1689ZM145.84 20.1331C145.84 18.1269 144.442 16.8014 142.365 16.8014H137.887V23.3214H142.687C144.514 23.3214 145.84 21.9959 145.84 20.1331Z" fill="#24348A"/>
<path d="M159.095 24.7185V20.5629H151.607V24.7185H150.067V15.3685H151.607V19.1658H159.095V15.3685H160.635V24.7185H159.095Z" fill="#24348A"/>
<path d="M175 20.1689C175 21.4944 174.499 22.6407 173.496 23.5005C172.6 24.2886 171.382 24.7543 170.021 24.7543H163.823V15.4043H169.698C172.958 15.3685 175 17.2671 175 20.1689ZM173.317 20.1331C173.317 18.1269 171.919 16.8014 169.842 16.8014H165.364V23.3214H170.164C171.991 23.3214 173.317 21.9959 173.317 20.1331Z" fill="#24348A"/>
<path d="M73.7979 28.0143H72.7231V34.4268H73.7979V28.0143Z" fill="#9C9C9C"/>
<path d="M82.0732 33.2805L77.1653 28.0143H75.8398V34.4627H76.9146V29.1607L81.8224 34.4627H83.1479V28.0143H82.0732V33.2805Z" fill="#9C9C9C"/>
<path d="M89.3813 28.0143H85.2974V34.4268H89.5604C90.4918 34.4268 91.3516 34.1402 91.9606 33.5671C92.6413 32.958 92.9995 32.1699 92.9995 31.2743C92.9995 29.304 91.6024 28.0143 89.3813 28.0143ZM89.6679 33.4954H86.3721V29.0174H89.4529C90.8859 29.0174 91.8532 29.9488 91.8532 31.3101C91.8532 32.564 90.9576 33.4954 89.6679 33.4954Z" fill="#9C9C9C"/>
<path d="M95.8296 28.0143H94.7549V34.4268H95.8296V28.0143Z" fill="#9C9C9C"/>
<path d="M100.379 28.0143L96.9761 34.4268H98.1224L98.8747 32.9939H103.209L103.962 34.4268H105.108L101.705 28.0143H100.379ZM99.4121 32.0624L101.06 28.9458L102.708 32.0624H99.4121Z" fill="#9C9C9C"/>
<path d="M112.488 33.2805L107.58 28.0143H106.254V34.4627H107.329V29.1607L112.237 34.4627H113.562V28.0143H112.488V33.2805Z" fill="#9C9C9C"/>
<path d="M118.148 28.0143L114.745 34.4268H115.891L116.643 32.9939H120.978L121.73 34.4268H122.877L119.473 28.0143H118.148ZM117.181 32.0624L118.829 28.9458L120.476 32.0624H117.181Z" fill="#9C9C9C"/>
<path d="M129.146 28.0143H124.059V34.4268H125.134V31.9908H128.967C130.507 31.9908 131.296 31.2743 131.296 30.0205C131.26 28.8025 130.436 28.0143 129.146 28.0143ZM128.967 31.0236H125.134V28.9816H128.895C129.755 28.9816 130.185 29.3398 130.185 30.0563C130.185 30.7011 129.755 31.0236 128.967 31.0236Z" fill="#9C9C9C"/>
<path d="M139.105 28.695C138.389 28.1576 137.386 27.8352 136.275 27.8352C135.165 27.8352 134.162 28.1576 133.445 28.695C132.585 29.3398 132.12 30.1996 132.12 31.2385C132.12 32.2774 132.55 33.1372 133.409 33.782C134.126 34.3194 135.129 34.6418 136.239 34.6418C137.35 34.6418 138.353 34.3194 139.069 33.782C139.929 33.1372 140.359 32.2774 140.359 31.2385C140.431 30.1996 139.965 29.3398 139.105 28.695ZM136.311 33.6745C134.448 33.6745 133.266 32.6715 133.266 31.2385C133.266 29.8414 134.484 28.8025 136.311 28.8025C137.135 28.8025 137.851 29.0174 138.353 29.4115C138.998 29.8772 139.32 30.4862 139.32 31.2385C139.32 32.6715 138.138 33.6745 136.311 33.6745Z" fill="#9C9C9C"/>
<path d="M143.296 28.0143H142.222V34.4627H148.276V33.4954H143.296V28.0143Z" fill="#9C9C9C"/>
<path d="M150.461 28.0143H149.387V34.4268H150.461V28.0143Z" fill="#9C9C9C"/>
<path d="M156.91 30.6295C155.62 30.4504 154.545 30.5578 153.829 30.3071C153.471 30.1638 153.256 29.9847 153.256 29.6981C153.256 29.1607 153.972 28.8383 155.298 28.8383C156.301 28.8383 157.268 29.0891 158.199 29.5548L158.844 28.8383C157.913 28.1935 156.731 27.871 155.369 27.871C153.291 27.871 152.145 28.6234 152.145 29.8414C152.145 31.0594 153.148 31.3818 155.118 31.5251C157.017 31.6326 158.092 31.6326 158.092 32.564C158.092 33.2446 157.268 33.7103 155.763 33.7103C154.581 33.7103 153.542 33.4238 152.503 32.7789L151.93 33.5671C152.862 34.3194 154.115 34.6418 155.763 34.6418C158.056 34.6418 159.274 33.8536 159.274 32.4923C159.274 31.3818 158.522 30.8444 156.91 30.6295Z" fill="#9C9C9C"/>
</svg>
