<svg width="19" height="24" viewBox="0 0 19 24" fill="none" xmlns="http://www.w3.org/2000/svg">
<path fill-rule="evenodd" clip-rule="evenodd" d="M11.334 5.42553C10.8508 4.94207 10.2002 4.66693 9.51803 4.65788C8.80991 4.64767 8.12747 4.92369 7.62767 5.42553C6.60326 6.44789 6.60326 8.10747 7.62767 9.13187C8.65061 10.1548 10.3102 10.1548 11.334 9.13187C12.3567 8.10747 12.3567 6.44789 11.334 5.42553ZM2.69794 7.27797C2.69794 3.5337 5.73584 0.496094 9.4801 0.496094C13.2261 0.496094 16.2637 3.53341 16.2634 7.27797C16.2634 8.73506 15.6437 10.9432 14.3261 12.4779L9.4801 18.1189L4.63412 12.4779C3.31795 10.9435 2.69794 8.73506 2.69794 7.27797ZM2.42891 15.5307C2.50506 15.2969 2.72243 15.1385 2.96868 15.1385H5.20976L8.2567 18.6856H1.40947L2.42891 15.5307ZM13.7516 15.1384L10.7064 18.6852H17.5507L16.5328 15.5303C16.4563 15.2965 16.2378 15.1381 15.9918 15.1381H13.7516V15.1384ZM0.0279337 22.959L1.05233 19.7872H17.9081L18.9325 22.959C19.0504 23.3249 18.7773 23.6987 18.3927 23.6998H0.567706C0.182571 23.6987 -0.0905244 23.3249 0.0279337 22.959Z" fill="white"/>
</svg>
