<svg width="114" height="130" viewBox="0 0 114 130" fill="none" xmlns="http://www.w3.org/2000/svg">
<path d="M68.3895 129.643V125.893H76.026V124.331C76.2345 120.269 76.026 116.129 76.6776 112.093C77.7175 105.952 80.8365 100.355 85.513 96.2361C89.819 92.2226 93.2908 87.4005 95.7297 82.0454C96.5898 80.1446 97.2674 78.1397 98.1015 76.0306H91.0644V79.8061H79.6488V76.0046H74.0973V83.4254H55.0191V72.151H43.5774V60.7464H32.2139V41.7647H39.668V34.1617H28.3827V28.1729C24.2354 31.333 20.7021 35.2247 17.9574 39.6557L14.7256 37.7028C18.9475 30.7858 24.8921 25.0802 31.9793 21.1427V30.3341H43.3429V45.5142H35.9149V56.9188H47.2263V68.2974H58.6419V79.8061H70.0836V72.2031H83.3758V75.8223H87.1289V72.2031H102.975C101.959 75.4318 101.125 78.6084 99.9519 81.6288C97.4017 88.0972 93.4498 93.9215 88.3799 98.6836C84.8372 101.745 82.2649 105.771 80.978 110.27C80.3354 113.059 79.9516 115.9 79.8312 118.759C79.6227 122.378 79.8312 126.023 79.8312 129.643H68.3895Z" fill="#24348A"/>
<path d="M32.3964 129.643V115.244H12.1715V96.2361C9.77366 96.2361 7.50617 96.2361 5.21262 96.2361C3.83015 96.2361 2.50429 95.6874 1.52674 94.7108C0.549181 93.7342 0 92.4096 0 91.0285C0.00346838 90.1462 0.135142 89.2691 0.390931 88.4247C2.47598 80.7435 4.69133 73.0884 6.64606 65.3811C7.13469 62.7298 7.46542 60.0519 7.63647 57.3615C8.34819 51.753 10.0234 46.3093 12.5884 41.27L15.8724 42.9104C15.8724 43.2229 15.69 43.5093 15.5857 43.7697C12.717 49.9011 11.1465 56.5582 10.9725 63.3241C10.7393 65.3745 10.2759 67.392 9.5912 69.3389C7.76678 76.0567 5.91632 82.7484 4.06584 89.4662C3.44032 91.8096 4.06584 92.4345 6.38545 92.4606H15.8985V111.416H36.0192V125.789H64.6886V129.643H32.3964Z" fill="#24348A"/>
<path d="M94.9474 11.4567V34.0576H72.1943V11.4567H94.9474ZM75.9995 15.2061V30.3342H91.0901V15.2061H75.9995Z" fill="#24348A"/>
<path d="M47.3047 37.8591V19.0077H66.2786V37.8591H47.3047ZM62.3952 34.1097V22.8092H51.162V34.1097H62.3952Z" fill="#24348A"/>
<path d="M51.1621 45.5663H70.0318V64.4698H51.1621V45.5663ZM54.9673 49.3678V60.6683H66.2787V49.3678H54.9673Z" fill="#24348A"/>
<path d="M106.208 66.3706H89.2666V49.3939H106.208V66.3706ZM93.1761 62.5431H102.533V53.1955H93.1761V62.5431Z" fill="#24348A"/>
<path d="M98.7266 15.0759V0.026001H113.843V15.0759H98.7266ZM110.012 11.2744V3.85357H102.558V11.2744H110.012Z" fill="#24348A"/>
<path d="M41.4138 89.1798H28.252V76.0306H41.4138V89.1798ZM32.1093 79.8061V85.4043H37.6086V79.8061H32.1093Z" fill="#24348A"/>
<path d="M100.655 28.5115H111.993V39.7599H100.655V28.5115ZM108.161 32.339H104.513V35.9583H108.161V32.339Z" fill="#24348A"/>
<path d="M74.0977 39.9161H85.409V51.1645H74.0977V39.9161ZM81.5778 43.7437H77.9289V47.3369H81.5778V43.7437Z" fill="#24348A"/>
<path d="M56.8438 0H68.103V11.2223H56.8438V0ZM60.6229 3.80154V7.44684H64.2717V3.80154H60.6229Z" fill="#24348A"/>
<path d="M87.1293 22.679H83.4805V19.0337H87.1293V22.679Z" fill="#24348A"/>
<path d="M58.5896 30.3341H54.9668V26.6107H58.5896V30.3341Z" fill="#24348A"/>
</svg>
