<svg width="17" height="14" viewBox="0 0 17 14" fill="none" xmlns="http://www.w3.org/2000/svg">
<path d="M15.8945 5.98295C15.8032 5.91919 15.7154 5.85066 15.6313 5.77783C15.3126 5.45971 15.0016 5.13394 14.6841 4.81454C14.4081 4.53693 14.122 4.26931 13.8499 3.9881C13.5496 3.67766 13.2596 3.35735 12.9662 3.0403C12.6774 2.72823 12.391 2.41399 12.1018 2.10228C11.9207 1.90704 11.7378 1.71342 11.5531 1.52145C11.0988 1.05184 10.6418 0.584822 10.1874 0.115214C10.0207 -0.0569855 9.89055 -0.0349974 9.78572 0.173389C9.67461 0.394227 9.55279 0.610054 9.42805 0.82368C9.33509 0.982616 9.23386 1.13703 9.12855 1.28805C9.07701 1.36205 9.00638 1.42243 8.94763 1.49178C8.92017 1.52412 8.88247 1.56217 8.88026 1.59929C8.86374 1.88668 8.85024 2.17443 8.84454 2.46228C8.83593 2.89766 8.83267 3.33329 8.83116 3.76879C8.83081 3.86315 8.80905 3.9133 8.70108 3.91097C8.37924 3.90422 8.05719 3.9062 7.73535 3.90236C7.44016 3.89875 7.14499 3.88968 6.84981 3.88735C6.63979 3.88572 6.42827 3.90853 6.2201 3.89014H6.21998C5.86231 3.85756 5.50255 3.85756 5.145 3.89014C5.07251 3.9012 4.99945 3.90748 4.92614 3.90899C4.63666 3.89759 4.3474 3.87071 4.05794 3.8685C3.7802 3.86641 3.50225 3.8884 3.22428 3.89806C3.1134 3.90189 3.00228 3.90271 2.89139 3.90236C2.58573 3.90155 2.28846 3.88526 2.07576 4.19045L2.07564 4.19056C1.8932 4.42897 1.69599 4.65574 1.48528 4.86972C1.22419 5.15897 0.960777 5.44623 0.695025 5.73131C0.569831 5.865 0.439168 5.99334 0.302801 6.11645C0.134674 6.25456 0.0391463 6.46211 0.0436857 6.6797C0.0503179 7.33952 0.0514814 7.99959 0.0432203 8.65944C0.0360064 9.24468 0.00924638 9.82959 5.43838e-05 10.4149C-0.000992807 10.5903 0.0130859 10.7656 0.0420588 10.9388C0.0456656 10.964 0.0532285 10.9886 0.0645148 11.0115C0.228339 11.0027 0.39252 11.0046 0.556105 11.0176C0.573209 11.0172 0.590312 11.0169 0.607302 11.0165V11.0166C0.657566 11.0053 0.70841 10.9967 0.759491 10.9907C0.960315 10.971 1.16172 10.9574 1.36302 10.9425C1.67985 10.9191 1.99657 10.8913 2.31385 10.8754C2.61356 10.8604 2.91398 10.8596 3.21408 10.85C3.45504 10.8423 3.69578 10.8255 3.93687 10.8227C4.22565 10.8193 4.51466 10.8329 4.80323 10.8272C5.10004 10.8213 5.39651 10.7959 5.69344 10.7882C6.02005 10.7797 6.34838 10.8004 6.67326 10.775V10.7751C7.30621 10.7207 7.94173 10.7027 8.57677 10.7211C8.80377 10.7292 8.8139 10.728 8.83507 10.9452C8.86253 11.2266 8.8758 11.5098 8.88825 11.7926C8.91012 12.2913 8.92734 12.7902 8.94538 13.289C8.95073 13.4353 8.95329 13.5818 8.95538 13.7283V13.7282C8.95725 13.8401 9.02659 13.9397 9.13084 13.9805C9.22951 14.0244 9.3454 13.9922 9.40741 13.9038C9.66816 13.6113 9.9346 13.3241 10.1978 13.0338C10.3367 12.8806 10.4661 12.7179 10.6125 12.5724C10.8491 12.3371 11.0972 12.1132 11.3389 11.883C11.5197 11.7108 11.6999 11.5379 11.8776 11.3623C12.2419 11.0022 12.6051 10.641 12.9672 10.2786C13.2175 10.0283 13.4614 9.77164 13.7156 9.52545C14.1525 9.10228 14.5974 8.68724 15.0327 8.26223L15.0328 8.26234C15.0806 8.19776 15.114 8.12365 15.1307 8.04511C15.1471 7.99799 15.1403 7.94261 15.1571 7.8956C15.2676 7.58448 15.3688 7.26905 15.4983 6.96583C15.6281 6.66216 15.7123 6.32706 16.0128 6.09899C15.9673 6.05384 15.9339 6.01463 15.8945 5.98299L15.8945 5.98295ZM0.215347 7.94103L0.190564 7.9408L0.203945 7.44048L0.228611 7.44374L0.215347 7.94103ZM0.571619 8.65334L0.53136 8.65439C0.532407 8.53198 0.533455 8.40958 0.534618 8.28707C0.546952 8.40912 0.559285 8.53117 0.571618 8.65335L0.571619 8.65334ZM0.430832 6.46081C0.431996 6.41997 0.437929 6.37936 0.441653 6.33853L0.477256 6.33597C0.481096 6.3718 0.487495 6.40752 0.488193 6.44336C0.495523 6.7716 0.500759 7.09994 0.508671 7.42815C0.515303 7.70414 0.524379 7.98012 0.532523 8.25611C0.51507 8.14837 0.495291 8.04109 0.481211 7.93299V7.93311C0.447353 7.73019 0.423965 7.52564 0.411166 7.32041C0.404068 7.03418 0.422452 6.74738 0.430829 6.46081L0.430832 6.46081ZM0.301798 9.86239L0.274107 9.85902L0.303776 8.74996L0.331584 8.75066L0.301798 9.86239ZM0.331933 10.6141C0.285392 10.5051 0.287835 10.509 0.382081 10.4484C0.414777 10.4252 0.436417 10.3895 0.44177 10.3497C0.452707 10.1359 0.455848 9.92185 0.461549 9.70786C0.542996 10.029 0.680293 10.3612 0.331932 10.6141L0.331933 10.6141ZM9.78546 3.65788C9.79569 3.71187 9.80046 3.76667 9.79953 3.82159C9.79639 3.84509 9.76137 3.86429 9.74066 3.88535C9.72879 3.85905 9.7025 3.82868 9.70831 3.80716H9.7082C9.72891 3.75503 9.75486 3.705 9.78546 3.65788H9.78546ZM9.72193 0.611651L9.77149 0.62061C9.78139 1.06484 9.79128 1.50895 9.80116 1.95318L9.75614 1.95446C9.75183 1.80029 9.73589 1.64543 9.74601 1.4923V1.49218C9.77219 1.2461 9.75009 0.997108 9.68086 0.759504C9.66748 0.719013 9.70692 0.661302 9.72193 0.611622L9.72193 0.611651ZM9.52448 0.948264L9.54624 0.949078C9.55112 1.23112 9.55613 1.51305 9.56101 1.79506L9.50191 1.79413L9.52448 0.948264ZM9.54554 2.35217L9.52297 3.19619L9.49318 3.19561L9.51575 2.35159L9.54554 2.35217ZM9.33832 1.38725C9.31668 1.7135 9.36612 2.04207 9.29189 2.36671C9.2578 2.0401 9.25059 1.7113 9.27037 1.38353L9.33832 1.38725ZM2.46636 8.33457C2.72024 8.322 2.97516 8.33189 3.22915 8.32061C3.58334 8.3049 3.93681 8.27383 4.29097 8.25661C4.45014 8.24894 4.61024 8.26301 4.76975 8.26057C5.32848 8.25208 5.88709 8.2373 6.44581 8.2323C6.6172 8.23078 6.78871 8.25941 6.96031 8.26208C7.10901 8.26441 7.25794 8.2423 7.40663 8.24428C7.59407 8.24684 7.78139 8.26197 7.9686 8.2736C8.05447 8.27895 8.13999 8.29455 8.22585 8.29594C8.55803 8.30094 8.89035 8.29897 9.22253 8.30641C9.34074 8.30909 9.45849 8.33131 9.57648 8.3447L9.57624 8.38553C9.44698 8.39077 9.31771 8.3995 9.18843 8.40043C8.85962 8.40252 8.53081 8.40264 8.202 8.40054C7.78836 8.3974 7.37475 8.38437 6.96111 8.38693C6.4174 8.3903 5.87368 8.40671 5.32996 8.41346C5.13426 8.4159 4.93833 8.39996 4.74273 8.40403C4.43858 8.4102 4.13479 8.42975 3.83065 8.43743C3.46425 8.44662 3.09776 8.44743 2.73136 8.45616C2.64212 8.45825 2.55346 8.48467 2.46445 8.48548V8.48536C2.41686 8.47699 2.37102 8.46047 2.32902 8.43638C2.37474 8.40089 2.41907 8.33702 2.46631 8.33457L2.46636 8.33457ZM2.66276 8.18017C2.75573 8.06335 4.89032 8.01856 5.17909 8.09849L2.66276 8.18017ZM9.78016 8.21996L9.52116 8.13212C9.57992 8.12351 9.63856 8.11373 9.69755 8.11036C9.80005 8.10477 9.81844 8.14061 9.78027 8.22008L9.78016 8.21996ZM9.82914 9.07107L9.67207 9.04803L9.65904 9.00242L9.7698 8.94658L9.82914 9.07107ZM2.26585 7.46018C2.26666 7.68241 2.43898 7.90056 2.29621 8.12733L2.24793 8.12895L2.26585 7.46018ZM2.44898 8.60498C2.56673 8.60218 2.68436 8.59218 2.8021 8.59078C3.022 8.58822 3.24225 8.59451 3.46204 8.58799C3.80634 8.57775 4.15037 8.55657 4.49466 8.54657C4.7233 8.53994 4.95227 8.54587 5.18115 8.54413C5.54719 8.54145 5.91311 8.53517 6.27915 8.53424C6.64951 8.53319 7.01984 8.53691 7.39009 8.53831C7.85689 8.54017 8.3237 8.53912 8.79051 8.54459C9.01949 8.54727 9.24859 8.55914 9.47711 8.57356C9.51341 8.57589 9.54739 8.61405 9.58241 8.63558C9.54587 8.6692 9.50981 8.73145 9.47281 8.73203C9.09327 8.73785 8.71362 8.73622 8.33396 8.7318C7.59536 8.72331 6.85687 8.71051 6.11826 8.70225C5.78317 8.69852 5.44796 8.69561 5.1131 8.70329C4.74217 8.71179 4.37157 8.73355 4.00077 8.74774C3.91118 8.75123 3.821 8.74251 3.73176 8.74856C3.4261 8.76915 3.12103 8.80254 2.81503 8.81418C2.58896 8.82279 2.36196 8.80499 2.12587 8.79859C2.17707 8.63023 2.21395 8.61068 2.44899 8.60498H2.44898ZM2.29598 4.27884L2.28702 4.61334L2.1915 4.4174L2.29598 4.27884ZM2.11261 5.93673L2.14298 5.93708L2.10551 7.33959L2.07515 7.3389L2.11261 5.93673ZM2.07061 8.96479C2.51448 8.9385 2.95803 8.9008 3.40226 8.88509C3.94585 8.86578 4.49005 8.86194 5.03409 8.85554C5.54278 8.8496 6.05146 8.84262 6.56003 8.84774C7.08001 8.85298 7.59963 8.8759 8.11961 8.88405C8.44981 8.88916 8.78026 8.87858 9.11047 8.88067C9.22159 8.88137 9.3327 8.89975 9.47023 8.91255C9.42171 9.0225 9.36656 9.12931 9.30512 9.23263C9.28406 9.26428 9.21169 9.27405 9.16306 9.27336C8.7798 9.26777 8.39666 9.25172 8.01349 9.24974C7.6364 9.24776 7.25919 9.25986 6.88198 9.26323C6.72199 9.26463 6.56201 9.2573 6.40203 9.25823C5.75162 9.26219 5.10109 9.2694 4.45068 9.27196C4.20425 9.27289 3.95736 9.25369 3.71139 9.26277C3.36769 9.27545 3.02479 9.30722 2.68133 9.32886C2.48039 9.34154 2.27909 9.34817 2.07816 9.36167C1.95971 9.36958 1.84173 9.38576 1.72352 9.39821L1.70758 9.3498C1.7376 9.33328 1.76669 9.30454 1.79787 9.30187C2.29295 9.26045 2.78802 9.216 3.28381 9.18528C3.83194 9.15142 4.38054 9.12257 4.9295 9.10756C5.29938 9.09743 5.67007 9.11849 6.04055 9.11896C6.39006 9.11942 6.7396 9.10744 7.08923 9.10779C7.42757 9.10825 7.76594 9.12094 8.10428 9.12187C8.39237 9.12257 8.68046 9.11291 8.96867 9.1107C9.03302 9.11023 9.09759 9.12815 9.1617 9.12606H9.16159C9.19556 9.11768 9.22756 9.10302 9.25607 9.08277C9.24059 9.0488 9.21965 9.01762 9.19428 8.99039C9.1652 8.97177 9.13122 8.9627 9.0969 8.96444C8.63661 8.9677 8.17633 8.97352 7.71604 8.97806C7.37571 8.98143 7.03528 8.98853 6.69494 8.98608C6.20523 8.98248 5.71561 8.96375 5.22601 8.96642C4.86938 8.9684 4.5129 8.9926 4.15651 9.0104C3.85108 9.02576 3.54613 9.04856 3.24071 9.06369C2.81625 9.08464 2.39168 9.10151 1.96431 9.12024C1.92044 8.99842 1.93848 8.97271 2.07066 8.96479L2.07061 8.96479ZM9.22911 9.39285C9.20246 9.50792 9.16023 9.56063 9.05865 9.55877C8.48703 9.54853 7.91513 9.5476 7.34386 9.52991C6.99736 9.51921 6.65193 9.46743 6.30555 9.46347C5.86308 9.45847 5.42022 9.48256 4.9775 9.49524C4.65254 9.50466 4.32733 9.51164 4.00269 9.5277C3.62012 9.54666 3.23826 9.5782 2.85569 9.5967C2.62519 9.60787 2.394 9.60775 2.16316 9.60705C1.97199 9.60647 1.78095 9.59774 1.5899 9.59262L1.58338 9.56132L1.58327 9.56167C1.60979 9.5462 1.6383 9.53468 1.66809 9.52735C2.10091 9.48686 2.53317 9.4373 2.96691 9.41321C3.39113 9.38971 3.81674 9.38564 4.24179 9.38633C4.58909 9.38692 4.93628 9.41368 5.28362 9.41635C5.53692 9.41833 5.79046 9.39564 6.04397 9.39157C6.38198 9.3861 6.72008 9.38971 7.0581 9.38633C7.35956 9.38331 7.66103 9.36969 7.96249 9.3726C8.27105 9.37563 8.57939 9.39494 8.88795 9.40309C8.99662 9.40599 9.10576 9.39704 9.22897 9.39296L9.22911 9.39285ZM2.02891 4.59937V4.59948C2.08627 4.97113 2.08767 5.34926 2.03321 5.72135C2.00785 6.00862 1.99214 6.29741 1.9883 6.58574C1.98399 6.90722 2.00191 7.22894 2.00296 7.55066C2.00389 7.81676 1.99493 8.08285 1.98865 8.34896H1.98877C1.98551 8.3898 1.97981 8.43029 1.97178 8.47032L1.93338 8.46473C1.91872 8.06983 1.90557 7.67492 1.8887 7.28014C1.88102 7.10037 1.85403 6.92074 1.85671 6.74131C1.86008 6.50942 1.88358 6.27777 1.89999 6.0461C1.92489 5.69414 1.95165 5.34228 1.97631 4.99033C1.98271 4.89992 2.02635 4.79846 1.8972 4.74099L2.02891 4.59937ZM1.76118 4.89908L1.78771 4.91886V4.91897C1.75815 4.99251 1.73814 5.06953 1.72825 5.14818C1.72872 5.41486 1.74466 5.68154 1.75059 5.94833C1.75327 6.06817 1.74384 6.18836 1.74373 6.30832C1.74326 6.73742 1.73931 7.16652 1.74664 7.59541C1.75257 7.946 1.76607 8.29667 1.78945 8.64642C1.78352 8.79442 1.71708 8.93357 1.60573 9.03119C1.60143 8.66271 1.59666 8.30808 1.59351 7.95341C1.59247 7.83473 1.59747 7.71594 1.59607 7.59714C1.59119 7.15383 1.57502 6.71041 1.582 6.26734C1.58746 5.92096 1.62423 5.57529 1.63877 5.22891C1.64075 5.1805 1.59514 5.13012 1.5635 5.06334L1.76118 4.89908ZM1.48403 6.02303C1.48147 6.1196 1.47612 6.21617 1.47681 6.31263C1.47949 6.68135 1.48473 7.05019 1.48798 7.41891C1.49182 7.86082 1.49985 8.30285 1.49485 8.74475V8.74487C1.4689 8.88263 1.46937 9.02412 1.49613 9.16164C1.51277 9.20923 1.40247 9.30138 1.34615 9.37887C1.25086 9.14919 1.3465 6.32579 1.48403 6.02316L1.48403 6.02303ZM1.45482 5.24882L1.44784 5.50852C1.43248 5.423 1.29635 5.33574 1.45494 5.24882H1.45482ZM1.26203 5.48385C1.2775 5.59148 1.28635 5.70004 1.28856 5.8087C1.27739 6.1203 1.25272 6.43141 1.24027 6.743C1.22863 7.03365 1.22631 7.32476 1.21909 7.61565C1.2113 7.9312 1.20013 8.24664 1.19478 8.56216C1.18907 8.89249 1.19117 9.22306 1.18314 9.55336H1.18302C1.17302 9.61374 1.15463 9.67238 1.12846 9.72765L1.07016 9.70892C1.04899 8.29804 1.11298 6.88704 1.26203 5.48376L1.26203 5.48385ZM1.29705 10.3024C1.7436 10.2706 2.19016 10.2393 2.63695 10.2131C2.79903 10.2037 2.96192 10.2095 3.12446 10.2079C3.4463 10.2045 3.76823 10.1976 4.09007 10.1981C4.37408 10.1986 4.65797 10.2099 4.94201 10.2111C5.23394 10.2125 5.52597 10.2067 5.8179 10.2059C5.92227 10.2057 6.02663 10.211 6.13089 10.2138L6.12775 10.2217C5.61698 10.2548 5.10665 10.2962 4.5954 10.3181C4.24717 10.333 3.89763 10.3161 3.54893 10.3213C3.05361 10.3288 2.55842 10.3423 2.06334 10.3556C1.75735 10.3639 1.45145 10.3775 1.14545 10.3873V10.3875C1.10461 10.3866 1.06401 10.3833 1.02352 10.3778L1.02014 10.3383C1.11241 10.3261 1.20433 10.309 1.29706 10.3025L1.29705 10.3024ZM0.895295 8.6562C0.896226 8.53566 0.898204 8.415 0.902858 8.29444C0.904836 8.24418 0.915075 8.19438 0.921591 8.14435L0.977672 8.14691L0.927756 10.0212L0.840957 9.86451C0.862831 9.78574 0.878305 9.70533 0.887265 9.62401C0.893664 9.30148 0.892734 8.97872 0.895293 8.6562L0.895295 8.6562ZM0.759396 8.45456C0.741594 7.58344 0.780804 6.71207 0.876911 5.84607L0.927175 5.85119L0.759396 8.45456ZM8.60506 10.5004C8.12628 10.5128 7.64738 10.5211 7.16848 10.5249C6.76568 10.5276 6.36273 10.5191 5.95982 10.5189C5.40457 10.5185 4.84912 10.5109 4.29424 10.526C3.83452 10.5386 3.37575 10.5823 2.91639 10.6072C2.51612 10.6288 2.11529 10.6415 1.71493 10.662C1.53017 10.6714 1.34621 10.694 1.16145 10.7031C1.05301 10.7084 0.943986 10.6988 0.835201 10.6959L0.820192 10.6363L0.820076 10.6364C0.865803 10.6093 0.915484 10.5894 0.967377 10.5774C1.36624 10.5504 1.7652 10.5177 2.16451 10.5095C2.77605 10.4968 3.3883 10.5141 3.99972 10.4967C4.57126 10.4804 5.14196 10.4343 5.71311 10.4036C5.95815 10.3904 6.20342 10.3819 6.44868 10.3733C6.80948 10.3607 7.1704 10.3405 7.53135 10.3409C7.87016 10.3412 8.20898 10.3641 8.5478 10.3768C8.61994 10.3795 8.69219 10.3808 8.76433 10.3828L8.77596 10.4379V10.4378C8.72256 10.4676 8.66496 10.4888 8.60504 10.5004L8.60506 10.5004ZM8.9233 9.81299C8.53784 9.80938 8.15234 9.81031 7.76676 9.80822C7.28214 9.80554 6.79743 9.79821 6.31284 9.79891C5.93354 9.79937 5.55434 9.81229 5.17516 9.81345C4.90383 9.81427 4.63216 9.79542 4.36105 9.8017C3.86177 9.81334 3.36273 9.83754 2.86361 9.85569C2.68303 9.86232 2.50233 9.86476 2.32177 9.87267C2.02542 9.88559 1.72908 9.89944 1.43307 9.91968C1.40863 9.92131 1.36349 9.9931 1.36908 10.0002C1.39677 10.0357 1.43947 10.0865 1.47472 10.0848C1.67601 10.0752 1.87636 10.0486 2.07754 10.0349C2.47593 10.0075 2.87431 9.97332 3.2733 9.96284C3.80177 9.949 4.33083 9.954 4.85965 9.95295C5.48051 9.95167 6.10126 9.95377 6.72209 9.95191C7.2602 9.95039 7.79835 9.94423 8.33647 9.94271C8.49052 9.94225 8.64469 9.94981 8.79863 9.95586L8.79874 9.95575C8.83784 9.95947 8.87682 9.96529 8.91533 9.97343L8.91324 10.0273C8.83458 10.0344 8.75605 10.0466 8.67727 10.0477C8.48343 10.0501 8.28946 10.0482 8.09552 10.0466C7.94135 10.0453 7.78729 10.0398 7.63324 10.0396C7.06426 10.0389 6.49532 10.0408 5.92634 10.0396C5.51935 10.0388 5.11235 10.0306 4.70547 10.0328C4.24715 10.0352 3.78886 10.0434 3.33054 10.053C2.81986 10.0638 2.30921 10.0772 1.79864 10.0933C1.60631 10.0993 1.41446 10.116 1.20116 10.1291C1.28657 9.99635 1.35649 9.87814 1.43771 9.76831C1.45644 9.74295 1.51368 9.73666 1.55301 9.73713C1.8141 9.74027 2.07543 9.75656 2.33618 9.75109C2.56702 9.7462 2.79718 9.71409 3.02811 9.70222C3.55669 9.67523 4.08528 9.64056 4.61434 9.63218C5.41332 9.6195 6.21254 9.62171 7.01165 9.62811C7.28403 9.63032 7.55584 9.67244 7.82832 9.68116C8.18379 9.69256 8.53971 9.68861 8.89538 9.69163C8.95042 9.6921 9.00533 9.69443 9.07014 9.69617C9.05327 9.79379 9.00161 9.8138 8.92331 9.81299L8.9233 9.81299ZM9.14751 13.3257C9.1211 12.7016 9.09538 12.0966 9.06978 11.4917L9.12261 11.4834C9.14204 11.6325 9.17089 11.7812 9.17904 11.931C9.19916 12.2991 9.20021 12.6686 9.23035 13.0358C9.23884 13.1387 9.29981 13.2321 9.14751 13.3257V13.3257ZM9.2983 11.065C9.41605 11.1132 9.43164 11.2083 9.31761 11.3135L9.2983 11.065ZM9.4136 12.8897C9.39673 12.6676 9.38102 12.4617 9.36543 12.256L9.39603 12.2517C9.43734 12.3541 9.48376 12.4548 9.51855 12.5593H9.51844C9.55904 12.6805 9.51669 12.8141 9.4136 12.8897V12.8897ZM9.58057 11.665C9.56696 11.3195 9.55334 10.9741 9.53973 10.6287L9.60151 10.6282L9.6249 11.6636L9.58057 11.665ZM9.94104 12.1099C9.84971 11.9754 9.73056 10.9932 9.78362 10.8041L9.82027 10.8006C9.84354 11.0824 9.86948 11.3641 9.88903 11.6461H9.88892C9.89555 11.7853 9.93744 11.9205 10.0106 12.039L9.94104 12.1099ZM9.99422 8.76821L9.95652 8.76902C9.99468 8.63801 9.84087 8.50397 10.0047 8.37495L9.99422 8.76821ZM9.9991 9.58849C10.017 9.71159 10.0349 9.83469 10.0527 9.95778L9.99282 9.96569L9.95885 9.59396L9.9991 9.58849ZM10.0124 11.2709V11.271C9.96478 11.0627 9.97025 10.8457 10.0285 10.6399C10.0145 10.85 10.098 11.0637 10.0124 11.271V11.2709ZM10.0367 12.4986C10.0366 12.3677 10.0894 12.3138 10.1832 12.3422L10.0367 12.4986ZM11.9456 10.9678C11.8633 11.0657 11.7865 11.1689 11.6976 11.2603C11.4677 11.497 11.2327 11.7287 10.9989 11.9615V11.9616C10.9859 11.9709 10.9713 11.9781 10.956 11.983L10.9324 11.9595C11.0567 11.8223 11.1762 11.6805 11.3065 11.5492C11.4891 11.3652 11.679 11.1886 11.8674 11.0103H11.8672C11.8912 10.9927 11.9173 10.9782 11.9448 10.9672C12.019 10.8757 12.093 10.7842 12.1671 10.6927L12.2205 10.7444L11.9456 10.9678ZM12.0354 10.2896C11.7899 10.5627 11.5222 10.8157 11.2644 11.0778L11.2277 11.04L14.5223 7.39979L14.5453 7.41806C14.4257 7.57269 14.3147 7.73513 14.1847 7.88034C13.8775 8.22323 13.5557 8.55297 13.2499 8.89703C12.8407 9.35743 12.4472 9.83169 12.0353 10.2895L12.0354 10.2896ZM13.033 9.39357C13.5274 8.84577 14.0223 8.29729 14.5181 7.74788L14.6265 7.82793C14.1662 8.42041 13.5675 8.87453 13.0656 9.42382L13.033 9.39357ZM14.5708 8.33652C14.508 8.3691 14.4491 8.40877 14.3953 8.45485C14.0377 8.78691 13.6828 9.12212 13.3271 9.45629L13.2968 9.42464C13.7362 8.98821 14.1756 8.55164 14.6007 8.1293L14.7064 8.27614V8.27602C14.66 8.29336 14.6148 8.3136 14.5708 8.33652V8.33652ZM14.931 7.24804L15.2556 6.84557C15.2553 7.07758 15.07 7.14332 14.9312 7.24804H14.931ZM14.4613 7.14309L14.4614 7.14298C14.3379 7.26235 14.2222 7.38941 14.115 7.52367C13.9581 7.69564 13.7987 7.86541 13.642 8.0376C13.3149 8.39668 12.9942 8.76156 12.6608 9.11467C12.4099 9.38042 12.1364 9.62476 11.8856 9.89063C11.6296 10.1622 11.3896 10.4491 11.1411 10.728C11.0501 10.83 10.9509 10.9249 10.8621 11.0287C10.6969 11.2217 10.5374 11.4195 10.3737 11.6139H10.3738C10.3335 11.655 10.2911 11.6938 10.2466 11.7303C10.2417 11.4608 10.2358 11.2257 10.2335 10.9907C10.2288 10.5139 10.2295 10.0371 10.2215 9.5604C10.213 9.05892 10.2005 8.55756 10.1802 8.05644C10.173 8.00373 10.1522 7.95381 10.12 7.91158C9.98191 7.90087 9.84415 7.8854 9.70686 7.86515V7.86504C9.59341 7.88644 9.47718 7.88831 9.36315 7.87074C9.08821 7.86876 8.81327 7.8655 8.53835 7.86422C8.39384 7.86352 8.24921 7.8655 8.10469 7.86713C7.60613 7.87271 7.10754 7.87993 6.60886 7.88412C6.31728 7.88656 6.02571 7.88435 5.73425 7.88423C5.40824 7.884 5.08232 7.88586 4.75631 7.88295C4.45961 7.88028 4.16303 7.86771 3.86633 7.86841C3.63025 7.86899 3.39416 7.88807 3.15799 7.889C3.04222 7.88947 2.92645 7.86643 2.81044 7.85654C2.75366 7.85177 2.69642 7.85294 2.62975 7.85119V7.85131C2.61858 7.80477 2.61102 7.75753 2.60718 7.70994C2.60019 7.26595 2.59926 6.82172 2.58937 6.37781C2.57937 5.92542 2.56145 5.47318 2.54691 5.02091C2.53864 4.76691 2.52957 4.5129 2.52247 4.25892C2.52375 4.21191 2.52747 4.16502 2.53364 4.11836C2.80811 4.12569 3.07271 4.14012 3.33706 4.13791C3.65902 4.13512 3.98083 4.11033 4.30267 4.10987C4.65218 4.10929 5.00172 4.13046 5.35135 4.13267C5.53984 4.13384 5.72844 4.11208 5.91717 4.10603C6.10926 4.09986 6.30147 4.0973 6.4938 4.09835C7.02182 4.10138 7.54992 4.10615 8.07794 4.11243C8.50972 4.1179 8.94138 4.13046 9.37316 4.13349C9.54897 4.13477 9.725 4.11918 9.90094 4.11173H9.90106C9.93178 4.11499 9.96226 4.1037 9.98344 4.08125C10.0046 4.05879 10.014 4.02761 10.009 3.99724C10.0064 3.78397 10.0039 3.5707 10.0052 3.35744C10.0066 3.11729 10.0104 2.87713 10.0165 2.63697C10.0245 2.31513 10.0327 1.9932 10.0463 1.67148C10.0599 1.34744 10.0821 1.02387 10.0965 0.699828C10.101 0.599648 10.0923 0.498887 10.0898 0.398362L10.1386 0.381258C10.2949 0.537055 10.4551 0.689247 10.6065 0.849705C10.8373 1.09428 11.057 1.34967 11.2908 1.59132C11.6442 1.95668 12.0118 2.30839 12.362 2.67676C12.6137 2.94157 12.8381 3.23233 13.0902 3.4968C13.4237 3.84679 13.7744 4.1806 14.1141 4.52502C14.3194 4.73317 14.5142 4.95155 14.7206 5.15866C14.9363 5.37507 15.1616 5.58183 15.3794 5.79626C15.4493 5.86514 15.5086 5.94472 15.5851 6.03362V6.03338C15.2351 6.42737 14.8598 6.79805 14.4615 7.14292L14.4613 7.14309Z" fill="#1471BB"/>
</svg>
