<svg width="22" height="18" viewBox="0 0 22 18" fill="none" xmlns="http://www.w3.org/2000/svg">
<g opacity="0.5">
<path d="M20.5556 15.2222C20.5556 15.6937 20.3683 16.1459 20.0349 16.4793C19.7015 16.8127 19.2493 17 18.7778 17H2.77778C2.30628 17 1.8541 16.8127 1.5207 16.4793C1.1873 16.1459 1 15.6937 1 15.2222V5.44444C1 4.97295 1.1873 4.52076 1.5207 4.18737C1.8541 3.85397 2.30628 3.66667 2.77778 3.66667H6.33333L8.11111 1H13.4444L15.2222 3.66667H18.7778C19.2493 3.66667 19.7015 3.85397 20.0349 4.18737C20.3683 4.52076 20.5556 4.97295 20.5556 5.44444V15.2222Z" stroke="#214469" stroke-width="1.77778" stroke-linecap="round" stroke-linejoin="round"/>
<path d="M10.7782 13.4445C12.7419 13.4445 14.3338 11.8526 14.3338 9.88893C14.3338 7.92525 12.7419 6.33337 10.7782 6.33337C8.81453 6.33337 7.22266 7.92525 7.22266 9.88893C7.22266 11.8526 8.81453 13.4445 10.7782 13.4445Z" stroke="#214469" stroke-width="1.77778" stroke-linecap="round" stroke-linejoin="round"/>
</g>
</svg>
