<svg width="130" height="130" viewBox="0 0 130 130" fill="none" xmlns="http://www.w3.org/2000/svg">
<path d="M0 111.43C1.02065 107.364 2.78816 103.524 5.21262 100.103C12.4321 87.5008 19.7037 74.8724 26.9232 62.244C27.1585 61.6403 27.5702 61.1212 28.1047 60.7544C28.6393 60.3875 29.2719 60.1898 29.9204 60.187C29.6598 57.0624 29.4252 53.99 29.1385 50.9435C28.856 48.6934 29.1075 46.4084 29.8727 44.2734C30.6379 42.1384 31.8953 40.2132 33.5432 38.6536C34.5746 37.6824 35.3223 36.4494 35.7064 35.0864C37.6282 28.7039 41.5854 23.1238 46.9752 19.1959C52.365 15.268 58.8922 13.2076 65.5625 13.3285C72.2329 13.4494 78.681 15.745 83.9246 19.8656C89.1683 23.9862 92.9203 29.706 94.6091 36.154C94.7054 36.6777 94.9601 37.1593 95.3388 37.534C97.5442 39.4554 99.1917 41.934 100.109 44.7101C101.026 47.4862 101.179 50.4576 100.551 53.313C100.213 55.5262 100.108 57.7654 99.8999 60.1349C101.802 60.1349 102.506 61.5149 103.288 62.8949C106.155 67.9463 109.074 72.9976 111.967 78.0229C112.275 78.4614 112.441 78.9842 112.441 79.5201C112.441 80.056 112.275 80.5789 111.967 81.0173C111.723 81.4659 111.324 81.8107 110.845 81.9879C110.366 82.165 109.838 82.1625 109.361 81.9807C108.564 81.6714 107.888 81.1147 107.432 80.3924C104.826 76.1222 102.428 71.7739 99.952 67.3734L99.118 65.9674L86.0864 71.9561L89.4746 81.1475L102.506 116.507C103.21 118.804 104.627 120.817 106.553 122.254C108.48 123.692 110.814 124.478 113.218 124.501C115.127 124.516 117.008 124.042 118.681 123.125C120.355 122.209 121.766 120.879 122.78 119.263C123.794 117.648 124.377 115.799 124.473 113.895C124.569 111.99 124.176 110.093 123.331 108.383C122.053 105.779 120.464 103.436 119.16 100.884C118.755 100.08 118.644 99.1582 118.848 98.2805C118.996 97.882 119.249 97.5307 119.58 97.2635C119.911 96.9963 120.308 96.8229 120.729 96.7617C121.15 96.7005 121.58 96.7535 121.974 96.9154C122.367 97.0772 122.71 97.3419 122.966 97.6816C125.592 101.259 127.649 105.22 129.064 109.425C129.617 111.608 129.708 113.882 129.33 116.101C128.952 118.321 128.114 120.438 126.87 122.315C125.626 124.193 124.004 125.79 122.106 127.005C120.208 128.22 118.078 129.025 115.85 129.37L115.147 129.604H14.439C14.1655 129.511 13.8871 129.432 13.6049 129.37C10.654 128.904 7.89202 127.623 5.63083 125.673C3.36964 123.722 1.69919 121.178 0.80795 118.33C0.443066 117.288 0.260631 116.221 0 115.179V111.43ZM101.177 124.449C99.9913 122.379 98.9126 120.249 97.9451 118.069C95.8862 112.862 93.8272 107.472 92.107 102.056C91.1948 99.1657 89.9438 97.291 86.6598 97.5254C86.6598 97.5254 86.4774 97.5254 86.3992 97.5254C84.7239 96.9422 82.9606 96.6515 81.1866 96.6661C79.5838 97.2673 78.1011 98.1491 76.808 99.2699L76.5995 99.4001C72.4718 101.821 67.695 102.906 62.9254 102.505C58.1558 102.104 53.6275 100.237 49.963 97.1608C49.5585 96.7852 49.0295 96.5719 48.4774 96.562C45.8711 96.9265 43.2647 97.4733 40.6584 97.8899C40.214 97.9139 39.7878 98.0744 39.438 98.3493C39.0882 98.6242 38.8317 99.0003 38.7037 99.4261C35.2894 107.758 33.3608 116.715 28.513 124.449H101.177ZM30.572 66.0195L29.8422 67.2172C24.9598 75.7577 20.0686 84.2807 15.1687 92.7865C12.2757 97.8638 9.27845 102.915 6.46364 108.045C5.41843 109.782 4.90361 111.787 4.98232 113.813C5.06102 115.839 5.72984 117.798 6.90673 119.449C7.92487 121.155 9.39718 122.546 11.1597 123.465C12.9221 124.385 14.9055 124.797 16.8889 124.657C19.208 124.533 21.4321 123.696 23.2565 122.261C25.0809 120.825 26.4162 118.861 27.0796 116.637C31.406 104.92 35.7499 93.1857 40.1111 81.4339L43.4993 72.1123L30.572 66.0195ZM82.6982 68.1025C82.2792 66.1243 81.966 64.1253 81.7599 62.1138C81.7165 60.0984 81.7774 58.0821 81.9424 56.073C81.9424 55.1877 82.1509 54.3024 82.177 53.4692C82.2609 52.9279 82.1567 52.3743 81.8816 51.9005C81.6065 51.4267 81.1773 51.0614 80.6653 50.8654C72.4186 49.4847 64.6699 45.9953 58.1728 40.7366C57.9753 40.5855 57.746 40.4812 57.5021 40.4315C57.2583 40.3819 57.0064 40.3883 56.7654 40.4502C55.0713 41.1272 53.4294 41.9084 51.8134 42.7155C51.4845 42.8803 51.2255 43.1574 51.0837 43.4967C50.2497 45.788 49.5459 48.1314 48.6337 50.3967C47.9653 52.0463 47.706 53.833 47.8779 55.6043C48.0343 58.3708 48.0343 61.1439 47.8779 63.9104C47.723 65.274 47.4616 66.6234 47.096 67.9463C49.3635 69.4044 49.546 70.0554 48.6077 72.581C48.4598 73.1082 48.268 73.622 48.0343 74.1173C47.8116 74.4955 47.7287 74.9398 47.8002 75.3727C47.8716 75.8057 48.0928 76.1999 48.4252 76.4867C50.2988 78.7961 52.6377 80.6859 55.29 82.0334C57.9423 83.381 60.8487 84.156 63.8203 84.3082C66.792 84.4605 69.7625 83.9865 72.5388 82.9171C75.3152 81.8478 77.8353 80.2069 79.9355 78.1011C80.8277 77.4915 81.4538 76.565 81.6862 75.5104C81.9187 74.4558 81.74 73.3524 81.1866 72.4248C80.0137 70.2116 80.5871 69.4304 82.6461 68.1025H82.6982ZM87.9108 33.1857C85.7455 28.3879 82.1297 24.3886 77.5717 21.7498C73.0137 19.1111 67.7426 17.9655 62.4993 18.4742C58.0872 18.8474 53.8549 20.3908 50.2397 22.9451C46.6246 25.4993 43.7577 28.9717 41.9355 33.0034C43.5276 33.3059 45.0828 33.7772 46.5747 34.4094C47.9044 35.3017 49.1362 36.3315 50.2497 37.4819C52.2044 36.7528 54.2894 35.9977 56.3484 35.1906C57.0513 34.8981 57.8267 34.8261 58.5715 34.9843C59.3163 35.1424 59.9954 35.5231 60.5185 36.0759C65.3302 40.2848 71.0463 43.3316 77.225 44.9808C77.8244 45.1371 78.4239 45.2412 79.1015 45.3714C78.5932 43.9811 78.4366 42.4869 78.6457 41.0216C78.8548 39.5563 79.423 38.1653 80.2999 36.9723C81.1769 35.7793 82.3353 34.8213 83.6722 34.1834C85.009 33.5455 86.483 33.2474 87.963 33.3158L87.9108 33.1857ZM42.2744 65.8893C42.2744 65.4727 42.5089 65.2123 42.5871 64.9259C43.1862 61.7249 43.1862 58.4407 42.5871 55.2398C42.3063 53.4003 42.5315 51.5192 43.2387 49.7978C44.1769 47.5586 45.011 45.2672 45.845 42.9499C46.0877 42.2187 46.0756 41.4271 45.8106 40.7037C45.5456 39.9804 45.0433 39.3679 44.3855 38.9661C43.7868 38.5202 43.0601 38.2793 42.3134 38.2793C41.5668 38.2793 40.84 38.5202 40.2414 38.9661C38.7182 40.3056 37.2818 41.7405 35.941 43.2623C34.4886 44.9567 33.767 47.1567 33.9342 49.3812C34.1948 53.4692 34.6118 57.5311 35.0027 61.593C35.0368 61.8277 35.1221 62.0521 35.2528 62.2501C35.3834 62.4481 35.5561 62.6149 35.7586 62.7387C37.9218 63.9104 40.059 64.8478 42.2744 65.8893ZM87.5199 65.8893C89.5268 64.9519 91.4554 63.9885 93.4362 63.2855C93.8454 63.1456 94.1984 62.8773 94.4426 62.5208C94.6868 62.1642 94.8092 61.7383 94.7915 61.3066C95.0521 57.6353 95.417 53.9899 95.7298 50.3186C95.8663 48.9466 95.7041 47.5614 95.2542 46.258C94.8043 44.9546 94.0774 43.7639 93.1235 42.7676C92.1591 41.7261 91.0905 40.7366 90.048 39.7732C89.4723 39.1082 88.674 38.6753 87.8022 38.5553C86.9304 38.4353 86.0446 38.6365 85.3104 39.1212C84.5762 39.606 84.0437 40.3412 83.8124 41.1895C83.5811 42.0378 83.6668 42.9412 84.0535 43.731C84.8875 45.9703 85.8519 48.1835 86.6598 50.4748C87.0325 51.797 87.2253 53.1632 87.2332 54.5368C87.2332 55.8647 86.9726 57.1405 86.8683 58.5726C86.5998 61.0306 86.8212 63.5173 87.5199 65.8893ZM53.6379 93.5936C56.8073 96.2281 60.8001 97.6706 64.9232 97.6706C69.0462 97.6706 73.0391 96.2281 76.2085 93.5936L73.6022 88.1517C68.0398 90.0269 62.0151 90.0269 56.4527 88.1517L53.6379 93.5936ZM84.3662 81.1996C82.6721 82.5535 81.0562 83.8034 79.3882 85.1313C79.1137 85.2804 78.9006 85.5213 78.7862 85.8118C78.6718 86.1022 78.6635 86.4236 78.7627 86.7196C79.2918 88.753 80.5985 90.4978 82.4018 91.5788C84.2052 92.6598 86.3611 92.9905 88.406 92.5L84.3662 81.1996ZM45.5322 81.1996L41.2579 92.7604C43.0041 92.5 44.5418 92.3178 46.0535 92.0053C47.4016 91.7588 48.6352 91.0873 49.5733 90.0891C50.5114 89.091 51.1047 87.8189 51.2661 86.4592C51.2991 86.283 51.2953 86.1018 51.255 85.927C51.2146 85.7523 51.1386 85.5878 51.0316 85.4438C49.129 84.0377 47.3306 82.7879 45.4801 81.2256L45.5322 81.1996Z" fill="#41A4DC"/>
<path d="M0 26.0513C1.32922 24.1245 2.21535 23.8641 4.32646 24.8796L15.6379 30.2434C16.2217 30.3455 16.7532 30.6433 17.1449 31.0877C17.5365 31.5322 17.7648 32.0967 17.7922 32.6882C17.8195 33.2797 17.6442 33.8628 17.2952 34.3414C16.9462 34.82 16.4443 35.1654 15.8724 35.3208C14.7256 35.9197 13.6049 36.6227 12.3278 37.3518L13.4485 38.0287C16.0549 39.5129 18.6612 40.971 21.2675 42.5073C21.5793 42.6571 21.8581 42.8675 22.0876 43.1262C22.3172 43.3848 22.4928 43.6866 22.6044 44.0138C22.716 44.341 22.7613 44.6871 22.7376 45.0319C22.7139 45.3768 22.6217 45.7135 22.4664 46.0224C22.2857 46.3316 22.0431 46.6003 21.7537 46.8117C21.4644 47.023 21.1345 47.1724 20.7847 47.2506C20.4349 47.3288 20.0727 47.3341 19.7208 47.2661C19.3689 47.1982 19.0348 47.0584 18.7394 46.8556C14.5171 44.4775 10.3036 42.082 6.09876 39.6691C5.685 39.446 5.33936 39.1153 5.09846 38.7119C4.85756 38.3085 4.73038 37.8475 4.73038 37.3778C4.73038 36.9081 4.85756 36.4471 5.09846 36.0437C5.33936 35.6403 5.685 35.3096 6.09876 35.0865C7.21947 34.4095 8.34018 33.7846 9.64334 33.0295C7.03703 31.8057 4.69135 30.7381 2.37173 29.5143C1.5178 28.9541 0.723138 28.3085 0 27.5875V26.0513Z" fill="#41A4DC"/>
<path d="M24.4992 10.8972C22.4924 8.73605 20.6419 6.73113 18.8175 4.70018C18.362 4.26514 18.0141 3.73031 17.801 3.1379C17.7202 2.64064 17.7855 2.13064 17.9891 1.66973C18.1926 1.20882 18.5256 0.816804 18.9477 0.541191C19.3698 0.265578 19.8629 0.118209 20.3671 0.116951C20.8714 0.115694 21.3652 0.260604 21.7887 0.534109C22.2703 0.945935 22.7151 1.39898 23.1179 1.88808L31.1974 10.6368C31.6298 10.9719 31.9456 11.4344 32.1002 11.9588C32.2547 12.4833 32.2401 13.043 32.0585 13.5586C31.8768 14.0743 31.5373 14.5198 31.088 14.8319C30.6388 15.144 30.1026 15.3069 29.5554 15.2976L25.3593 15.8965L29.6076 21.2603C30.3634 22.2237 31.1453 23.1611 31.8751 24.1505C32.2881 24.6835 32.4782 25.3558 32.4053 26.0259C32.3324 26.6961 32.0022 27.3118 31.4841 27.7437C31.2309 27.956 30.9364 28.1137 30.6192 28.2069C30.3021 28.3001 29.969 28.3267 29.641 28.2851C29.3131 28.2436 28.9972 28.1347 28.7134 27.9654C28.4296 27.796 28.1838 27.5698 27.9917 27.3011C24.812 23.4301 21.6844 19.5071 18.609 15.5319C18.322 15.1982 18.1315 14.7927 18.0578 14.3589C17.9842 13.9252 18.0302 13.4796 18.191 13.07C18.3518 12.6604 18.6212 12.3023 18.9704 12.0342C19.3195 11.7661 19.7352 11.598 20.1727 11.5481C21.528 11.2878 22.8833 11.1315 24.4992 10.8972Z" fill="#41A4DC"/>
<path d="M104.435 15.9225L100.499 15.3758C99.8771 15.5196 99.2236 15.4301 98.663 15.1244C98.1024 14.8187 97.6737 14.3179 97.4582 13.7172C97.2428 13.1165 97.2557 12.4577 97.4944 11.8659C97.7331 11.274 98.181 10.7903 98.7531 10.5067L107.588 0.924705C107.959 0.486386 108.463 0.182424 109.024 0.0600105C109.585 -0.0624026 110.171 0.00358129 110.69 0.247718C111.194 0.479464 111.602 0.878607 111.844 1.37713C112.087 1.87566 112.148 2.44273 112.019 2.9817C111.805 3.61188 111.459 4.18897 111.003 4.67417C109.178 6.73116 107.302 8.71004 105.295 10.8972L108.735 11.3919C109.307 11.3794 109.87 11.5263 110.363 11.816C110.856 12.1058 111.258 12.527 111.524 13.0323C111.718 13.5929 111.742 14.1979 111.593 14.7721C111.445 15.3462 111.131 15.8641 110.69 16.261C107.849 19.7762 105.086 23.3434 102.219 26.8324C101.664 27.5478 100.867 28.0379 99.9781 28.2124C99.5381 28.1675 99.1114 28.0362 98.7223 27.8262C98.3332 27.6162 97.9894 27.3316 97.7106 26.9887C97.3964 26.5523 97.2499 26.0175 97.2977 25.4821C97.3456 24.9467 97.5846 24.4463 97.9712 24.0724L103.184 17.5629L104.435 15.9225Z" fill="#41A4DC"/>
<path d="M120.151 33.0294C121.402 33.7585 122.497 34.3573 123.565 35.0083C124.013 35.2186 124.391 35.5518 124.657 35.9691C124.922 36.3864 125.063 36.8704 125.063 37.3647C125.063 37.859 124.922 38.3431 124.657 38.7603C124.391 39.1776 124.013 39.5109 123.565 39.7211C119.369 42.1427 115.173 44.5382 110.925 46.9076C110.637 47.1838 110.29 47.3903 109.91 47.5112C109.529 47.6322 109.127 47.6644 108.732 47.6053C108.338 47.5462 107.962 47.3974 107.634 47.1704C107.306 46.9434 107.035 46.6442 106.841 46.2959C106.647 45.9476 106.536 45.5595 106.516 45.1615C106.495 44.7635 106.567 44.3661 106.725 44.0001C106.883 43.6341 107.123 43.3091 107.426 43.0503C107.729 42.7915 108.088 42.6057 108.475 42.5072C111.081 40.997 113.687 39.5389 116.294 38.0547L117.466 37.3517L113.583 35.1385C113.143 34.9114 112.776 34.5637 112.527 34.1361C112.277 33.7085 112.155 33.2187 112.174 32.7241C112.193 32.2295 112.353 31.7505 112.635 31.3435C112.917 30.9364 113.309 30.618 113.765 30.4256C117.805 28.5248 121.819 26.572 125.859 24.6973C126.166 24.5165 126.506 24.4006 126.86 24.3566C127.214 24.3126 127.573 24.3416 127.914 24.4416C128.256 24.5417 128.574 24.7107 128.848 24.9383C129.122 25.1659 129.347 25.4472 129.508 25.7648C129.654 26.093 129.731 26.448 129.733 26.8074C129.736 27.1667 129.664 27.5227 129.522 27.8529C129.38 28.1831 129.171 28.4803 128.908 28.7259C128.646 28.9715 128.335 29.1601 127.996 29.2799L120.151 33.0294Z" fill="#41A4DC"/>
<path d="M118.17 89.4536C118.171 90.1222 117.914 90.7655 117.453 91.2502C116.993 91.7349 116.363 92.0239 115.694 92.0574C115.003 92.0574 114.34 91.783 113.851 91.2947C113.362 90.8064 113.088 90.1442 113.088 89.4536C113.121 88.7858 113.411 88.1565 113.896 87.696C114.381 87.2355 115.025 86.9791 115.694 86.98C116.341 87.0115 116.952 87.2823 117.41 87.7395C117.868 88.1967 118.139 88.8077 118.17 89.4536Z" fill="#41A4DC"/>
<path d="M64.9491 68.5452C65.9851 68.5289 67.0139 68.7185 67.9759 69.1029C68.9379 69.4873 69.8138 70.0589 70.5527 70.7844C70.9106 70.9572 71.2241 71.2094 71.4694 71.5218C71.7147 71.8343 71.8852 72.1986 71.9679 72.5869C72.0506 72.9753 72.0433 73.3774 71.9466 73.7625C71.8499 74.1477 71.6663 74.5056 71.4098 74.8089C71.1534 75.1122 70.8309 75.353 70.467 75.5127C70.1031 75.6724 69.7075 75.7468 69.3104 75.7304C68.9133 75.7139 68.5253 75.6069 68.1759 75.4175C67.8266 75.2282 67.5252 74.9616 67.2948 74.638C66.9879 74.3142 66.6182 74.0563 66.2081 73.88C65.7981 73.7037 65.3564 73.6128 64.91 73.6128C64.4637 73.6128 64.022 73.7037 63.6119 73.88C63.2019 74.0563 62.8322 74.3142 62.5253 74.638C62.0045 75.063 61.3396 75.2705 60.6693 75.2171C59.999 75.1638 59.3753 74.8536 58.9286 74.3516C58.5155 73.8186 58.3254 73.1463 58.3983 72.4762C58.4712 71.8061 58.8014 71.1903 59.3195 70.7584C60.0637 70.0344 60.9448 69.4658 61.9114 69.0858C62.878 68.7058 63.9107 68.522 64.9491 68.5452Z" fill="#41A4DC"/>
<path d="M77.0163 60.6296C77.0842 61.0761 77.0346 61.5325 76.8725 61.9541C76.7103 62.3757 76.4412 62.7479 76.0916 63.0342C75.742 63.3204 75.3238 63.5109 74.8782 63.5869C74.4326 63.6629 73.9749 63.6219 73.55 63.4677C72.6495 63.1412 71.7777 62.7406 70.9437 62.27C70.5185 61.9047 70.2225 61.4122 70.0998 60.8656C69.9771 60.3189 70.0341 59.7474 70.2624 59.2357C70.4907 58.724 70.8781 58.2995 71.367 58.0253C71.856 57.751 72.4204 57.6416 72.9766 57.7133C73.8919 58.0361 74.7666 58.4643 75.5829 58.9892C76.1437 59.4577 76.6274 60.0112 77.0163 60.6296Z" fill="#41A4DC"/>
<path d="M60.2578 59.9526C60.2202 60.552 59.9968 61.1247 59.6184 61.5914C59.2401 62.058 58.7257 62.3953 58.1467 62.5564C56.7132 63.1293 55.2797 64.2489 53.6899 62.947C53.3862 62.7005 53.146 62.3849 52.9895 62.0267C52.833 61.6684 52.7646 61.2779 52.7901 60.8878C52.8156 60.4978 52.9343 60.1195 53.1362 59.7846C53.3381 59.4498 53.6173 59.1681 53.9505 58.9632C54.9646 58.3547 56.0501 57.8737 57.1823 57.5311C57.5495 57.4341 57.9342 57.4238 58.306 57.5008C58.6779 57.5779 59.0267 57.7402 59.325 57.9751C59.6232 58.2099 59.8628 58.5108 60.0247 58.854C60.1865 59.1972 60.2663 59.5733 60.2578 59.9526Z" fill="#41A4DC"/>
</svg>
