<svg width="12" height="12" viewBox="0 0 12 12" fill="none" xmlns="http://www.w3.org/2000/svg">
<path d="M12 11.3592L11.9593 11.4523C11.9214 11.576 11.8532 11.6883 11.7607 11.7788C11.6683 11.8694 11.5547 11.9353 11.4302 11.9706C11.3057 12.0059 11.1743 12.0095 11.0481 11.9809C10.9219 11.9524 10.8049 11.8927 10.7077 11.8073L10.6087 11.7084L6.10889 7.21591L6.01575 7.09371L5.89932 7.20427L1.37039 11.7317C1.22824 11.8532 1.04714 11.9196 0.860101 11.9188C0.673064 11.918 0.492541 11.8501 0.351431 11.7273C0.210321 11.6046 0.118019 11.4353 0.0913491 11.2502C0.0646793 11.0652 0.105416 10.8767 0.206136 10.7191L0.31674 10.6027L4.81657 6.11025C4.8515 6.07533 4.89225 6.05205 4.95046 6.0055C4.88643 5.95312 4.84568 5.92985 4.81075 5.89493L0.27017 1.37335C0.181205 1.2976 0.110694 1.20257 0.064002 1.09548C0.0173098 0.988394 -0.00433331 0.872069 0.00071838 0.755358C0.00577007 0.638648 0.0373836 0.524626 0.0931544 0.421968C0.148925 0.319311 0.227384 0.230725 0.322561 0.162944C0.451253 0.0922598 0.588095 0.0375382 0.73005 0H0.82319C1.08802 0.0515814 1.32671 0.193513 1.49846 0.401532L5.90515 4.81255L6.02157 4.92311C6.04591 4.87918 6.07521 4.83817 6.10889 4.80091L10.5039 0.401532C10.6757 0.193513 10.9144 0.0515814 11.1792 0H11.2723C11.4159 0.0486252 11.5559 0.106954 11.6915 0.17458C11.8487 0.293636 11.9581 0.464946 12 0.657582V0.942725C11.9322 1.1689 11.8009 1.37087 11.6216 1.52465L7.19746 5.94149C7.16254 5.94149 7.11597 5.98804 7.06357 6.02296L7.19746 6.13934C8.67606 7.61744 10.1527 9.0936 11.6274 10.5678C11.8077 10.7196 11.9376 10.9225 12 11.1497V11.3592Z" fill="white"/>
</svg>
