<svg width="23" height="23" viewBox="0 0 23 23" fill="none" xmlns="http://www.w3.org/2000/svg">
<path d="M0 10.6255C0 10.5241 0.0589948 10.4143 0.101137 10.313C0.211328 10.0006 0.415768 9.73037 0.686095 9.53968C0.956422 9.34899 1.27925 9.2473 1.60983 9.24872C3.91922 9.24872 6.22861 9.24872 8.53799 9.24872C8.75701 9.24738 8.97401 9.29063 9.17586 9.37581C9.37771 9.46099 9.56021 9.58634 9.7123 9.74427C9.86438 9.90221 9.9829 10.0894 10.0607 10.2946C10.1384 10.4998 10.1738 10.7187 10.1647 10.938V20.2289C10.2071 20.4498 10.2051 20.6771 10.1587 20.8973C10.1123 21.1174 10.0225 21.3261 9.89449 21.511C9.76652 21.6959 9.60296 21.8533 9.41344 21.974C9.22391 22.0947 9.01223 22.1762 8.79084 22.2138H1.38226C1.13525 22.1698 0.901151 22.0712 0.697014 21.9251C0.492877 21.779 0.32386 21.589 0.202287 21.3691C0.126218 21.2096 0.0586905 21.046 0 20.8792V10.6255ZM1.38226 15.7439V20.4232C1.38226 20.761 1.43284 20.8117 1.76997 20.8117H8.42842C8.76556 20.8117 8.81613 20.761 8.81613 20.4232V11.0224C8.81613 10.7015 8.75713 10.6339 8.44528 10.6339H1.80368C1.4834 10.6339 1.42441 10.693 1.42441 11.014L1.38226 15.7439Z" fill="white"/>
<path d="M0 1.34299L0.0758527 1.14028C0.172201 0.811675 0.37199 0.523104 0.645404 0.317609C0.918818 0.112114 1.2512 0.000705595 1.59297 2.29435e-05H8.56328C8.7735 -0.00110958 8.98184 0.0396962 9.17617 0.120049C9.3705 0.200401 9.54693 0.318693 9.69519 0.468051C9.84345 0.617408 9.96056 0.794838 10.0397 0.990001C10.1189 1.18516 10.1585 1.39417 10.1562 1.60482C10.1562 2.99846 10.1562 4.40054 10.1562 5.82796C10.1586 6.04078 10.1181 6.25188 10.0374 6.44874C9.95671 6.6456 9.83732 6.82418 9.68636 6.97388C9.5354 7.12359 9.35594 7.24136 9.15867 7.32019C8.96139 7.39901 8.75033 7.43729 8.53799 7.43275C6.22861 7.43275 3.91922 7.43275 1.60983 7.43275C1.24171 7.43443 0.884377 7.30829 0.598578 7.07578C0.312778 6.84327 0.116155 6.51874 0.0421447 6.15737C0.0317401 6.12217 0.01761 6.08819 0 6.056V1.34299ZM5.05705 1.38521H1.68568C1.39069 1.38521 1.32327 1.44434 1.32327 1.73151V5.65903C1.32327 5.9462 1.39069 6.01378 1.67726 6.01378H8.42842C8.71499 6.01378 8.78241 5.9462 8.78241 5.65058V1.74841C8.78241 1.44434 8.72341 1.38521 8.41156 1.38521H5.05705Z" fill="white"/>
<path d="M13.3753 22.2054L13.0719 22.1041C12.7588 21.9958 12.4877 21.7915 12.297 21.5201C12.1064 21.2487 12.0059 20.924 12.0099 20.5922C12.0099 19.1985 12.0099 17.7965 12.0099 16.369C12.0096 16.151 12.0536 15.9352 12.1393 15.7348C12.225 15.5343 12.3506 15.3535 12.5083 15.2033C12.6661 15.0532 12.8527 14.9368 13.0568 14.8613C13.2609 14.7858 13.4783 14.7528 13.6956 14.7642H20.4383C20.6656 14.7555 20.8922 14.7947 21.1035 14.8792C21.3148 14.9637 21.506 15.0916 21.6649 15.2548C21.8237 15.418 21.9467 15.6127 22.0257 15.8265C22.1048 16.0402 22.1383 16.2682 22.124 16.4957V20.3726C22.1661 20.7846 22.0502 21.1972 21.7997 21.5266C21.5492 21.8561 21.183 22.0776 20.7754 22.1463L13.3753 22.2054ZM17.0838 20.8118H20.413C20.7164 20.8118 20.7754 20.7527 20.7754 20.4486V16.5464C20.7754 16.2508 20.708 16.1832 20.4214 16.1832H13.7377C13.4596 16.1832 13.3837 16.2592 13.3837 16.5464V20.4486C13.3837 20.7527 13.4511 20.8118 13.7546 20.8118H17.0838Z" fill="white"/>
<path d="M22.1675 6.46982V11.2166C22.1836 11.4485 22.15 11.6812 22.069 11.8991C21.988 12.1169 21.8614 12.3149 21.6978 12.4797C21.5341 12.6445 21.3372 12.7723 21.1202 12.8545C20.9032 12.9368 20.6712 12.9716 20.4397 12.9566H13.6969C13.4733 12.9648 13.2504 12.9268 13.0422 12.8449C12.8339 12.7629 12.6448 12.6388 12.4866 12.4802C12.3284 12.3217 12.2045 12.1321 12.1227 11.9234C12.0409 11.7147 12.003 11.4914 12.0112 11.2673V1.71456C12.0017 1.49017 12.0388 1.26625 12.1201 1.05698C12.2014 0.847698 12.3253 0.657632 12.4837 0.498822C12.6422 0.340012 12.8319 0.215924 13.0407 0.134414C13.2495 0.0529043 13.473 0.0157427 13.6969 0.0253043H20.4397C20.6636 0.0157427 20.887 0.0529043 21.0959 0.134414C21.3047 0.215924 21.4944 0.340012 21.6528 0.498822C21.8113 0.657632 21.9351 0.847698 22.0165 1.05698C22.0978 1.26625 22.1349 1.49017 22.1253 1.71456L22.1675 6.46982ZM20.7768 6.46982V1.76525C20.7768 1.4274 20.7262 1.37671 20.3975 1.37671H13.7728C13.4441 1.37671 13.3851 1.43584 13.3851 1.76525V11.1744C13.3851 11.4954 13.4525 11.5545 13.7643 11.5545H20.4059C20.7178 11.5545 20.7768 11.4954 20.7768 11.1744V6.46982Z" fill="white"/>
</svg>
