<svg width="124" height="130" viewBox="0 0 124 130" fill="none" xmlns="http://www.w3.org/2000/svg">
<path d="M46.5745 129.706C45.7926 129.498 45.0367 129.342 44.2549 129.108C40.7845 128.07 37.7701 125.885 35.7062 122.911C35.5252 122.686 35.2999 122.5 35.0444 122.366C34.7889 122.232 34.5085 122.151 34.2206 122.129C30.7876 122.018 27.4369 121.051 24.473 119.317C22.9874 118.432 22.5443 117.443 23.1698 116.349C23.7953 115.255 24.916 115.151 26.3495 116.037C28.471 117.33 30.879 118.082 33.3605 118.224C33.3605 116.297 33.3605 114.474 33.3605 112.652C33.4884 111.519 33.733 110.402 34.0902 109.319C34.5073 107.991 35.4716 107.418 36.5402 107.756C37.6088 108.095 38.0779 109.163 37.6609 110.543C37.1393 112.075 36.9473 113.701 37.0973 115.312C37.2473 116.924 37.736 118.486 38.5314 119.897C39.3269 121.307 40.4112 122.534 41.7136 123.497C43.016 124.46 44.5071 125.138 46.0895 125.486C47.672 125.835 49.3101 125.845 50.8971 125.518C52.484 125.191 53.9839 124.533 55.2989 123.587C56.6139 122.641 57.7143 121.428 58.5284 120.029C59.3424 118.629 59.8517 117.073 60.023 115.464C60.1794 113.615 60.023 111.766 60.023 109.918C60.023 108.069 60.6746 107.444 61.8996 107.314C63.1245 107.184 63.8022 108.121 63.8282 109.918C63.8543 111.714 63.8282 113.459 63.8282 115.125C63.9321 117.296 64.6751 119.388 65.964 121.139C67.2529 122.89 69.0304 124.222 71.0738 124.968C73.016 125.852 75.1804 126.128 77.2828 125.761C79.3852 125.394 81.3274 124.4 82.8543 122.911C84.5548 121.503 85.8045 119.627 86.4485 117.517C87.0924 115.406 87.1024 113.153 86.4771 111.037L86.2946 110.256C86.1755 110.014 86.1094 109.749 86.1006 109.48C86.0918 109.21 86.1406 108.941 86.2438 108.692C86.3469 108.443 86.502 108.218 86.6987 108.033C86.8955 107.848 87.1293 107.707 87.3848 107.62C87.6403 107.532 87.9115 107.5 88.1804 107.525C88.4493 107.551 88.7097 107.633 88.9444 107.766C89.179 107.9 89.3825 108.082 89.5413 108.3C89.7001 108.519 89.8105 108.768 89.8653 109.032C90.8109 111.622 91.0537 114.416 90.569 117.13C90.5814 117.373 90.5814 117.616 90.569 117.859C90.5491 117.936 90.5491 118.017 90.569 118.094C92.5871 117.99 94.5648 117.49 96.3884 116.62C98.212 115.75 99.8455 114.529 101.195 113.026C102.544 111.523 103.582 109.769 104.25 107.863C104.918 105.958 105.202 103.939 105.086 101.924C101.759 102.395 98.3685 101.784 95.4167 100.179C94.6108 99.7221 93.8437 99.1996 93.1232 98.6172C92.8853 98.4806 92.6794 98.295 92.5191 98.0726C92.3588 97.8503 92.2478 97.5963 92.1935 97.3277C92.1393 97.0591 92.143 96.782 92.2044 96.515C92.2658 96.2479 92.3836 95.997 92.5498 95.779C92.7131 95.5539 92.9252 95.3684 93.1702 95.2365C93.4152 95.1046 93.6868 95.0296 93.9649 95.0171C94.2429 95.0046 94.5202 95.0549 94.7761 95.1643C95.032 95.2736 95.2599 95.4393 95.4428 95.6488C96.7059 96.7174 98.1927 97.4896 99.7939 97.9087C101.395 98.3278 103.07 98.383 104.695 98.0704C106.825 97.6607 108.78 96.6149 110.301 95.0714C111.823 93.5278 112.84 91.5592 113.218 89.4258C113.723 87.7745 113.789 86.0202 113.41 84.3355C113.031 82.6509 112.219 81.0939 111.055 79.8178C110.321 80.4548 109.555 81.0545 108.761 81.6144C108.561 81.7873 108.326 81.9153 108.073 81.9899C107.819 82.0646 107.553 82.084 107.291 82.047C107.029 82.01 106.778 81.9174 106.555 81.7754C106.332 81.6334 106.142 81.4453 105.998 81.2238C105.857 81.0164 105.761 80.7821 105.714 80.5356C105.668 80.2891 105.673 80.0357 105.73 79.7913C105.786 79.5469 105.892 79.3167 106.041 79.1152C106.191 78.9137 106.38 78.7451 106.598 78.62C107.418 78.0614 108.096 77.3179 108.576 76.4495C109.056 75.5811 109.324 74.6121 109.36 73.6208C109.361 73.3642 109.417 73.1109 109.525 72.8782C109.633 72.6455 109.791 72.4391 109.986 72.2731C110.182 72.1072 110.412 71.9858 110.659 71.9173C110.907 71.8487 111.166 71.8347 111.419 71.8762C111.666 71.8788 111.908 71.9358 112.13 72.0432C112.352 72.1506 112.547 72.3057 112.701 72.4974C112.856 72.6891 112.966 72.9126 113.024 73.1519C113.081 73.3911 113.085 73.6402 113.035 73.8811C112.462 76.0423 113.635 77.2661 115.094 78.6461C115.452 78.355 115.792 78.042 116.111 77.7087C118.047 75.7901 119.366 73.3383 119.9 70.6667C120.434 67.9951 120.158 65.2251 119.108 62.7109C118.215 60.1324 116.557 57.8868 114.354 56.2728C112.152 54.6589 109.51 53.753 106.78 53.6757H105.894C105.64 53.673 105.388 53.6179 105.156 53.5138C104.924 53.4097 104.716 53.2589 104.544 53.0707C104.373 52.8825 104.243 52.6611 104.161 52.4202C104.079 52.1793 104.048 51.9242 104.07 51.6708C104.075 51.4148 104.134 51.1627 104.243 50.9311C104.352 50.6994 104.509 50.4934 104.704 50.3263C104.898 50.1593 105.125 50.035 105.371 49.9616C105.616 49.8881 105.874 49.8672 106.129 49.9002C109.395 49.8946 112.598 50.7961 115.381 52.504L116.762 53.3633C117.261 51.526 117.135 49.5754 116.404 47.8176C115.672 46.0597 114.378 44.5942 112.723 43.6511C110.846 42.5575 110.794 42.4013 111.185 40.3443C111.704 38.2325 111.593 36.0152 110.866 33.9656C110.138 31.916 108.827 30.1237 107.093 28.8095C105.36 27.4008 103.266 26.5073 101.049 26.2311C98.8325 25.9548 96.5826 26.3069 94.5566 27.2472C94.1136 27.4295 93.7226 27.6899 93.3056 27.8461C93.0807 27.9668 92.8337 28.041 92.5794 28.0644C92.3251 28.0877 92.0687 28.0596 91.8255 27.9819C91.5823 27.9041 91.3573 27.7783 91.1638 27.6118C90.9703 27.4453 90.8123 27.2416 90.6993 27.0129C90.5776 26.7897 90.5018 26.5444 90.4766 26.2915C90.4514 26.0386 90.4773 25.7832 90.5526 25.5404C90.6279 25.2977 90.7512 25.0725 90.9152 24.8782C91.0792 24.6838 91.2805 24.5243 91.5073 24.4091C93.7759 23.0865 96.3364 22.3442 98.9613 22.2479C99.4304 22.2479 99.8735 22.2479 100.421 22.2479C100.662 20.3415 100.345 18.4062 99.5086 16.6758C99.3262 16.2072 99.0395 15.7905 98.8049 15.3219C98.5465 14.8901 98.47 14.3735 98.5921 13.8854C98.7142 13.3974 99.0251 12.9776 99.4565 12.7181C99.669 12.5803 99.9079 12.4882 100.158 12.4477C100.408 12.4072 100.664 12.4192 100.909 12.4828C101.154 12.5465 101.383 12.6605 101.582 12.8176C101.781 12.9746 101.944 13.1713 102.063 13.3951C103.669 15.8719 104.487 18.7768 104.408 21.7272C104.331 22.1478 104.422 22.5819 104.66 22.9369C104.899 23.292 105.267 23.5399 105.686 23.628C108.819 24.8982 111.446 27.1667 113.156 30.0812C114.867 32.9956 115.567 36.393 115.146 39.7454C115.142 39.991 115.191 40.2347 115.29 40.4595C115.389 40.6843 115.535 40.8849 115.72 41.0473C117.925 42.6708 119.551 44.9584 120.358 47.5738C121.165 50.1892 121.111 52.9943 120.203 55.5765C120.088 56.08 120.162 56.6081 120.411 57.0606C123.153 60.7727 124.371 65.392 123.813 69.9718C123.256 74.5516 120.967 78.745 117.414 81.6925C117.246 81.8725 117.119 82.0868 117.043 82.3207C116.966 82.5545 116.942 82.8022 116.971 83.0465C117.775 86.3057 117.507 89.737 116.207 92.8323C114.907 95.9275 112.643 98.522 109.751 100.232C109.492 100.348 109.278 100.545 109.141 100.795C109.005 101.044 108.954 101.331 108.996 101.612C109.121 104.208 108.726 106.803 107.832 109.245C106.938 111.686 105.564 113.924 103.791 115.826C102.018 117.729 99.8815 119.257 97.5077 120.322C95.1339 121.387 92.5708 121.966 89.9695 122.025C89.6221 121.997 89.2739 122.068 88.9649 122.229C88.656 122.391 88.3989 122.636 88.2233 122.937C87.0784 124.641 85.5985 126.094 83.8734 127.209C82.1484 128.324 80.2143 129.076 78.189 129.42L77.4853 129.654H73.6801C73.4998 129.558 73.3067 129.488 73.1067 129.446C70.9541 129.112 68.8982 128.321 67.0774 127.126C65.2566 125.931 63.7132 124.361 62.5511 122.52C62.3948 122.286 62.2123 122.077 61.9778 121.791C60.1233 125.039 57.164 127.515 53.6376 128.769C52.569 129.134 51.4483 129.368 50.3797 129.654L46.5745 129.706Z" fill="#24348A"/>
<path d="M77.0163 94.2688C74.41 96.1175 71.8037 98.0183 69.1974 99.6587C65.9031 101.823 62.1434 103.179 58.2248 103.616C54.8008 104.052 51.3251 103.442 48.2549 101.866C45.1846 100.291 42.6635 97.8236 41.0232 94.7896C39.4526 92.2257 38.4403 89.3601 38.052 86.3793C37.935 85.6898 37.6383 85.0433 37.1919 84.5046C35.452 82.3973 34.1785 79.9458 33.4553 77.3115C32.732 74.6771 32.5754 71.9196 32.9957 69.2203C33.2043 67.8403 34.0383 67.1894 35.2111 67.3717C36.384 67.5539 36.9052 68.4913 36.7228 69.9754C36.2817 73.1636 36.8369 76.41 38.3126 79.271C39.1886 75.8287 40.8094 72.6202 43.061 69.8715C45.3125 67.1227 48.14 64.9007 51.3442 63.3618L45.7406 57.1127L40.528 62.086C40.2136 62.4844 39.8348 62.8276 39.4073 63.1014C39.0323 63.304 38.5953 63.3602 38.1812 63.2591C37.767 63.1581 37.4052 62.9071 37.1658 62.5546C36.8504 62.2251 36.6744 61.7868 36.6744 61.3309C36.6744 60.8749 36.8504 60.4366 37.1658 60.1071C39.0424 58.2323 40.9711 56.4097 42.8997 54.587C43.2646 54.2485 43.6816 53.9621 44.0726 53.6497L41.1274 44.9009C38.7296 46.2809 36.3839 47.713 33.9601 49.0149C32.3005 49.9308 30.5545 50.6808 28.7475 51.2542C28.1654 51.4703 27.5387 51.5388 26.9236 51.4535C26.3085 51.3681 25.7242 51.1317 25.2231 50.7652C24.722 50.3988 24.3198 49.9139 24.0524 49.3539C23.785 48.7939 23.6609 48.1765 23.6912 47.5568C23.6132 46.4663 23.6922 45.3702 23.9258 44.3021C24.9326 39.9585 27.3078 36.0523 30.7022 33.1578C31.4183 32.4879 32.264 31.9713 33.1873 31.64C34.1106 31.3086 35.092 31.1694 36.0712 31.231C37.1508 31.3373 38.1858 31.7156 39.0792 32.3303C39.9726 32.9451 40.6953 33.7763 41.1796 34.7461C42.0136 36.1522 42.6652 37.6624 43.4471 39.2507L46.7571 37.9488C51.0064 36.1061 55.7229 35.624 60.2577 36.5688C60.4119 36.5963 60.57 36.5921 60.7224 36.5563C60.8748 36.5204 61.0182 36.4538 61.1439 36.3605C62.6295 34.7461 64.063 33.2099 65.6267 31.4393L59.8147 28.1065C59.4354 27.9147 59.0696 27.6972 58.72 27.4555C58.5265 27.3272 58.3605 27.1615 58.2319 26.9683C58.1032 26.7751 58.0145 26.5581 57.9708 26.3302C57.9271 26.1023 57.9294 25.8679 57.9775 25.6409C58.0256 25.4138 58.1185 25.1987 58.2509 25.008C58.3595 24.7749 58.5184 24.5688 58.7161 24.4042C58.9138 24.2397 59.1454 24.1208 59.3944 24.0561C59.6435 23.9914 59.9037 23.9825 60.1566 24.0301C60.4095 24.0776 60.6487 24.1803 60.8572 24.331C63.0465 25.5548 65.1837 26.9348 67.3209 28.0804C67.8161 28.3669 68.2852 28.7314 68.8586 29.122C69.2884 28.8101 69.7415 28.5316 70.2139 28.2887C72.2344 27.3449 74.3153 26.536 76.4429 25.8672C78.2905 25.3317 80.2625 25.4131 82.0594 26.0993C83.8563 26.7854 85.38 28.0387 86.399 29.6687C88.4117 32.3359 89.5812 35.5427 89.7577 38.8782C89.9342 42.2137 89.1095 45.5258 87.3894 48.39C87.207 48.7806 86.9724 49.1191 86.7118 49.6138L87.8064 50.3689C92.2029 53.0755 95.864 56.8225 98.4662 61.2788C100.413 64.6217 101.236 68.5005 100.812 72.3449C100.805 72.598 100.749 72.8472 100.645 73.0784C100.542 73.3096 100.394 73.5182 100.21 73.6923C100.026 73.8664 99.8099 74.0026 99.5733 74.0931C99.3366 74.1836 99.0844 74.2266 98.8311 74.2196C98.575 74.207 98.3242 74.1421 98.0942 74.0289C97.8641 73.9157 97.6598 73.7565 97.4937 73.5613C97.3276 73.3661 97.2033 73.139 97.1286 72.894C97.0538 72.6489 97.03 72.3912 97.0588 72.1366C97.6322 65.4448 94.2962 60.6278 89.5787 56.5138C88.9272 55.915 88.2234 55.3942 87.3634 54.6912C88.8429 60.164 89.1947 65.8799 88.3972 71.4925C87.5997 77.1051 85.6697 82.4975 82.7241 87.3427C83.3231 87.2192 83.9147 87.0627 84.4964 86.8741C88.0993 85.5977 91.2513 83.2993 93.5664 80.2604C93.8068 79.908 94.0771 79.577 94.3743 79.271C94.6823 78.9389 95.1014 78.7313 95.5524 78.6874C96.0033 78.6435 96.4547 78.7664 96.821 79.0328C97.1873 79.2992 97.443 79.6907 97.5397 80.1329C97.6364 80.5751 97.5673 81.0374 97.3455 81.4321C96.9538 82.1274 96.4814 82.7741 95.9381 83.3589C92.3838 87.6764 87.3661 90.5395 81.838 91.4047L80.8215 91.5869C80.8215 93.722 80.9779 95.8311 80.8215 97.9141C80.4567 101.585 79.8833 105.257 79.3359 108.928C79.3252 109.215 79.2505 109.496 79.1173 109.75C78.984 110.004 78.7956 110.225 78.5658 110.398C78.336 110.57 78.0706 110.689 77.789 110.745C77.5074 110.802 77.2167 110.795 76.9381 110.725C75.8435 110.438 75.3483 109.449 75.661 108.121C76.7432 103.587 77.1992 98.9264 77.0163 94.2688ZM54.0547 66.3822C51.1075 67.5485 48.4869 69.4107 46.4172 71.8094C44.3475 74.2082 42.8902 77.0721 42.17 80.1563C41.3881 83.5412 41.7008 84.114 44.9587 85.3639C48.5291 86.6016 52.3913 86.7287 56.0355 85.7284C58.6149 85.213 61.0733 84.2147 63.2811 82.7861C58.9676 78.1115 55.808 72.494 54.0547 66.3822ZM42.5348 88.6446C43.2463 91.1205 44.5018 93.4067 46.2097 95.3364C47.5412 96.9274 49.2416 98.1695 51.1629 98.9545C53.0843 99.7395 55.1685 100.044 57.2344 99.8409C61.245 99.4689 65.0894 98.0601 68.3894 95.753C70.6048 94.2949 72.6377 92.6024 74.9834 90.8839C71.9465 89.8969 69.1561 88.2722 66.7996 86.119C66.6351 85.9112 66.3959 85.7759 66.133 85.7418C65.8701 85.7078 65.6042 85.7777 65.3922 85.9367C62.0488 88.1172 58.2461 89.4962 54.2811 89.966C50.3161 90.4357 46.296 89.9835 42.5348 88.6446ZM83.2715 54.2746C81.3949 55.8629 79.6747 57.2689 78.0588 58.7531C77.9232 58.9189 77.8232 59.1108 77.7649 59.3168C77.7066 59.5229 77.6913 59.7387 77.72 59.9508C78.0946 63.2205 77.9184 66.5296 77.1988 69.7411C76.5136 71.2701 76.0654 72.8944 75.8695 74.5581C76.3236 76.208 77.008 77.7858 77.9025 79.2449C78.6062 81.0155 79.1535 82.8382 79.8311 84.8691C82.483 80.2813 84.1574 75.1955 84.7495 69.9308C85.3415 64.6661 84.8383 59.3359 83.2715 54.2746ZM56.9999 61.2267H57.5472C62.875 61.8439 68.2477 60.5321 72.6898 57.5293C72.8422 57.3685 72.9527 57.1729 73.0118 56.9596C73.0708 56.7462 73.0766 56.5217 73.0287 56.3055C72.2207 54.1444 71.3606 52.0093 70.4223 49.9263C70.2787 49.7021 70.0827 49.5162 69.8511 49.3847C69.6195 49.2531 69.3594 49.1799 69.0931 49.1712C65.6007 49.6659 62.1082 50.2647 58.6679 50.8636C58.4782 50.9112 58.302 51.0017 58.1529 51.1281C58.0038 51.2545 57.8857 51.4135 57.8078 51.5927C56.9135 54.7209 56.6391 57.9934 56.9999 61.2267ZM84.0534 46.333C85.229 44.3722 85.8672 42.1368 85.9038 39.8514C85.9404 37.5661 85.3741 35.3114 84.2619 33.3141C83.7225 32.2372 82.9281 31.3081 81.9477 30.6077C80.9673 29.9073 79.8304 29.4567 78.636 29.295C77.4416 29.1333 76.2257 29.2655 75.0941 29.6801C73.9624 30.0946 72.9492 30.779 72.1425 31.6737C76.9363 35.8306 80.9671 40.7915 84.0534 46.333ZM66.565 80.7551C68.0767 78.7763 69.5362 76.9276 70.9176 75.0789C70.9884 74.9421 71.0254 74.7903 71.0254 74.6362C71.0254 74.4822 70.9884 74.3304 70.9176 74.1936C69.2649 70.9586 66.7365 68.2522 63.6199 66.3822C61.8572 65.3854 59.7983 65.0441 57.8078 65.4188C59.4098 71.1769 62.419 76.4469 66.565 80.7551ZM47.5129 51.3323C49.8325 50.3168 51.9957 49.3795 54.1329 48.39C54.442 48.2737 54.7004 48.0525 54.8627 47.7651C56.0355 45.1613 57.1302 42.7398 58.303 40.11C53.5364 39.7167 48.7613 40.7597 44.5938 43.1043L47.5129 51.3323ZM27.3922 47.7651C31.7614 45.8912 35.9864 43.6981 40.0328 41.2035C39.3551 39.7454 38.8339 38.4175 38.1562 37.1677C36.6967 34.5639 35.2111 34.3295 32.9436 36.2824C30.1859 38.7524 28.2872 42.0356 27.5225 45.656C27.4371 46.3558 27.3936 47.0601 27.3922 47.7651ZM64.2715 38.2352C67.2117 40.0099 69.7573 42.367 71.7516 45.1613C71.9395 45.385 72.196 45.5406 72.4813 45.604L79.779 46.6455C76.8504 41.924 73.1706 37.7114 68.8846 34.1733L64.2715 38.2352ZM76.052 87.2126L76.4169 86.9782L73.4457 78.3597L69.2756 83.2288C71.1868 85.074 73.5093 86.4394 76.052 87.2126ZM74.2276 61.3569L67.6597 64.195L73.4457 70.4181L74.2276 61.3569ZM62.2385 41.2556L59.3195 46.6455L67.3469 45.3436L62.2385 41.2556ZM76.7296 55.0297L80.9779 50.9938L74.5664 49.4315L76.7296 55.0297ZM52.5952 59.1437L52.8819 58.9614L53.351 52.8165L49.1549 54.9255L52.5952 59.1437Z" fill="#24348A"/>
<path d="M80.5866 8.44785C79.7201 6.81668 78.3564 5.50341 76.6929 4.69822C75.0294 3.89304 73.1526 3.63775 71.3342 3.96933C69.4267 4.28715 67.6775 5.225 66.358 6.63737C65.0385 8.04975 64.2225 9.85769 64.0365 11.7807C63.8801 13.8377 64.0365 15.9207 64.0365 18.0038C64.0669 18.3126 64.019 18.6241 63.8972 18.9096C63.7754 19.195 63.5836 19.4453 63.3396 19.6372C63.0955 19.8292 62.807 19.9567 62.5006 20.0079C62.1943 20.0592 61.88 20.0326 61.5866 19.9306C61.1608 19.7947 60.7954 19.5153 60.5529 19.1401C60.3105 18.7649 60.206 18.3172 60.2574 17.8736C60.2574 15.9989 60.2574 14.1502 60.2574 12.3015C60.2064 10.6409 59.6644 9.03267 58.6996 7.67956C57.7348 6.32644 56.3905 5.2891 54.8363 4.69839C53.3286 4.00084 51.648 3.76461 50.0061 4.01945C48.3643 4.27429 46.8347 5.0088 45.6099 6.13048C44.8446 6.85566 44.1467 7.64873 43.5249 8.49993C44.9323 10.0622 46.1312 11.4683 47.4604 12.9524C47.676 13.1426 47.8464 13.3785 47.9589 13.6429C48.0715 13.9074 48.1234 14.1936 48.1109 14.4807C48.0985 14.7678 48.0219 15.0484 47.8867 15.3021C47.7516 15.5558 47.5614 15.776 47.3301 15.9468C46.3657 16.6498 45.2972 16.3894 44.4371 15.1656C43.253 13.2604 41.4958 11.7784 39.4171 10.9318C37.3385 10.0852 35.045 9.91755 32.8651 10.4528C30.5986 10.8692 28.5151 11.972 26.8973 13.6116C25.2795 15.2511 24.2056 17.3481 23.8212 19.6181C23.6719 20.4077 23.6021 21.2102 23.6127 22.0136C26.219 22.6385 28.6168 23.1853 30.9885 23.8102C31.5592 23.9781 32.0969 24.2423 32.5784 24.5914C32.8049 24.707 33.0062 24.8662 33.1708 25.0599C33.3355 25.2536 33.4602 25.4779 33.5377 25.7199C33.6152 25.9619 33.644 26.2168 33.6225 26.47C33.601 26.7232 33.5296 26.9697 33.4124 27.1952C33.1433 27.6151 32.729 27.9215 32.2483 28.056C31.7677 28.1904 31.2543 28.1435 30.8061 27.9242C29.3061 27.2772 27.7425 26.7885 26.1408 26.4661C24.2585 26.1835 22.3355 26.367 20.5408 27.0005C18.746 27.634 17.1345 28.6981 15.8477 30.0994C14.5609 31.5006 13.6382 33.1961 13.1608 35.0369C12.6833 36.8777 12.6656 38.8075 13.1092 40.6568C13.5002 42.4013 13.3177 42.7658 11.7018 43.7032C10.0082 44.6197 8.67158 46.0776 7.90601 47.8433C7.14045 49.609 6.99029 51.5803 7.4796 53.4414C7.76629 53.2591 8.05299 53.1289 8.31362 52.9467C10.9343 51.1547 13.9822 50.0858 17.149 49.8481C19.0516 49.8481 19.9117 50.2908 19.9899 51.5666C20.0681 52.8425 19.2601 53.5195 17.3836 53.6757C14.9516 53.7598 12.5858 54.489 10.5292 55.7886C8.47264 57.0882 6.79937 58.9112 5.68125 61.0705C4.19444 63.7948 3.64419 66.9314 4.11505 69.9985C4.58591 73.0656 6.05183 75.8933 8.28756 78.0472C8.51097 78.2596 8.74589 78.4595 8.99126 78.6461C9.64284 77.9431 10.2944 77.2921 10.8678 76.563C11.0342 76.2519 11.1067 75.8991 11.0763 75.5476C11.0763 74.8706 11.0763 74.1936 11.0763 73.5426C11.0797 73.3181 11.1277 73.0965 11.2176 72.8908C11.3075 72.685 11.4375 72.4991 11.6 72.344C11.7626 72.1889 11.9544 72.0677 12.1642 71.9874C12.3741 71.9071 12.5979 71.8693 12.8225 71.8762C13.2729 71.8307 13.7237 71.9591 14.0823 72.2351C14.4409 72.5111 14.6803 72.9137 14.7512 73.3604C14.7763 73.5679 14.7763 73.7777 14.7512 73.9853C14.7991 74.8954 15.0598 75.7817 15.5124 76.573C15.965 77.3643 16.5969 78.0387 17.3575 78.5419C17.5808 78.6608 17.7773 78.8241 17.9349 79.0219C18.0925 79.2196 18.2079 79.4475 18.2738 79.6916C18.3398 79.9356 18.3549 80.1905 18.3184 80.4407C18.2818 80.6908 18.1943 80.9307 18.0612 81.1457C17.9107 81.3792 17.7108 81.5768 17.4756 81.7248C17.2404 81.8728 16.9756 81.9674 16.6998 82.0022C16.4241 82.0369 16.144 82.0109 15.8794 81.9259C15.6148 81.8409 15.372 81.699 15.1682 81.5103C14.4645 81.0155 13.8129 80.4167 13.031 79.7657C12.0924 80.7936 11.3764 82.0041 10.9279 83.3214C10.4794 84.6387 10.3081 86.0343 10.4247 87.4209C10.4528 89.5532 11.1042 91.6308 12.299 93.3981C13.4937 95.1653 15.1795 96.545 17.149 97.3673C19.0019 98.1818 21.0478 98.4551 23.0497 98.1556C25.0517 97.856 26.9277 96.9959 28.4604 95.6749C29.6854 94.7375 30.7279 94.7635 31.4837 95.6749C31.6484 95.9063 31.7628 96.1697 31.8193 96.448C31.8758 96.7262 31.8733 97.0133 31.8119 97.2906C31.7505 97.5678 31.6316 97.8291 31.4628 98.0576C31.2941 98.2861 31.0792 98.4768 30.8321 98.6172C27.7709 101.096 23.8618 102.282 19.9378 101.924H19.0777H18.8431C18.6606 104.209 19.0643 106.503 20.016 108.59C20.1723 109.032 20.433 109.423 20.5893 109.866C20.7755 110.319 20.7791 110.827 20.5994 111.283C20.4197 111.739 20.0706 112.108 19.625 112.313C19.3903 112.437 19.1317 112.508 18.8668 112.523C18.6019 112.538 18.3369 112.496 18.0897 112.4C17.8425 112.304 17.6189 112.155 17.4341 111.965C17.2493 111.775 17.1077 111.547 17.0187 111.298C15.4658 108.38 14.7445 105.093 14.9336 101.794C14.9911 101.413 14.9229 101.025 14.7395 100.686C14.5561 100.348 14.2675 100.079 13.9172 99.9191C11.1085 98.2281 8.91689 95.6817 7.66431 92.654C6.41173 89.6264 6.16429 86.2771 6.95834 83.0986C7.07634 82.7967 7.08632 82.4633 6.98658 82.1549C6.88685 81.8465 6.68352 81.582 6.41101 81.4061C2.92752 78.4803 0.683912 74.3439 0.13253 69.8308C-0.418851 65.3177 0.763002 60.7636 3.43982 57.0867C3.6413 56.8333 3.77163 56.531 3.81744 56.2106C3.86324 55.8903 3.82287 55.5636 3.70046 55.264C2.88667 52.7323 2.89186 50.0088 3.71527 47.4802C4.53869 44.9515 6.13849 42.7463 8.28756 41.1775C8.49524 41.0097 8.66524 40.8001 8.78648 40.5624C8.90773 40.3246 8.9775 40.064 8.99126 39.7975C8.54773 36.412 9.24773 32.9754 10.9804 30.0323C12.713 27.0892 15.3792 24.8079 18.5564 23.5498C18.9092 23.4686 19.2182 23.257 19.4212 22.9575C19.6243 22.6581 19.7064 22.2929 19.6511 21.9355C19.6015 19.5764 20.0966 17.2376 21.0979 15.1006C22.0992 12.9635 23.5798 11.0856 25.4248 9.61248C27.2699 8.13937 29.4298 7.11066 31.7371 6.60615C34.0444 6.10164 36.4369 6.13489 38.7293 6.70331C39.3808 6.85954 39.8239 7.01577 40.293 6.26067C41.3697 4.4185 42.896 2.87883 44.7294 1.78534C46.5628 0.69184 48.6436 0.0801561 50.7776 0.00735694C52.9117 -0.0654422 55.0294 0.403018 56.9332 1.36903C58.837 2.33503 60.4648 3.7671 61.6648 5.53161C61.6648 5.53161 61.8472 5.71387 62.0036 5.92218L62.7073 5.08896C63.9468 3.44942 65.568 2.13678 67.4303 1.26492C69.2926 0.393061 71.3396 -0.0116847 73.3939 0.0858003C75.4482 0.183285 77.4477 0.780056 79.2189 1.82434C80.9901 2.86862 82.4794 4.32887 83.5578 6.0784C83.6847 6.38017 83.9251 6.62014 84.2273 6.74673C84.5295 6.87332 84.8693 6.87643 85.1737 6.75539C87.8799 6.03927 90.7326 6.09338 93.4097 6.91162C94.9474 7.35426 95.6511 8.26559 95.3644 9.35918C95.0777 10.4528 93.983 11.0256 92.3932 10.583C90.4669 10.0366 88.4368 9.96507 86.4769 10.3747C83.8124 10.9661 81.4788 12.5608 79.9611 14.8271C79.5873 15.4215 79.0148 15.8643 78.3452 16.077C78.0101 16.1097 77.6721 16.0577 77.3624 15.9258C77.0527 15.7938 76.7812 15.5862 76.5729 15.3219C76.4053 14.9862 76.3182 14.6163 76.3182 14.2413C76.3182 13.8663 76.4053 13.4963 76.5729 13.1607C77.7457 11.5203 79.1531 10.0882 80.5866 8.44785Z" fill="#24348A"/>
</svg>
