<svg width="128" height="103" viewBox="0 0 128 103" fill="none" xmlns="http://www.w3.org/2000/svg">
<g clip-path="url(#clip0_549_2593)">
<path d="M29.1586 62.5695C25.2315 60.4888 22.1648 57.0886 20.4991 52.9681C18.8334 48.8475 18.6756 44.2712 20.0536 40.0457C21.3076 36.2904 23.7235 33.0312 26.9519 30.7396C30.1803 28.448 34.0539 27.2427 38.0125 27.298C41.9711 27.3533 45.8095 28.6664 48.9726 31.0474C52.1357 33.4283 54.4596 36.7537 55.6082 40.5427C56.8369 44.7551 56.5656 49.2633 54.8408 53.298C53.116 57.3326 50.0444 60.6435 46.1505 62.6657L47.497 63.1145C61.9347 67.6032 70.7246 77.2219 73.8665 91.9706C74.171 93.4134 73.626 94.0546 72.1192 94.0546H3.3983C1.7953 94.0546 1.33045 93.5096 1.66708 91.8584C2.65577 86.1681 4.99812 80.799 8.49658 76.2039C11.995 71.6087 16.5471 67.9221 21.7688 65.4551C24.0931 64.3169 26.6419 63.5474 29.1586 62.5695ZM70.8368 91.2492C69.1922 83.3118 64.7247 76.2404 58.2631 71.3467C51.8015 66.453 43.7844 64.0692 35.6989 64.6375C28.3257 65.0564 21.2948 67.8885 15.6897 72.6973C10.0845 77.5062 6.2162 84.025 4.68074 91.2492H70.8368ZM37.7027 30.0744C34.5658 30.0871 31.5031 31.0302 28.9024 32.7844C26.3017 34.5385 24.2798 37.0248 23.0926 39.9286C21.9054 42.8323 21.6063 46.0231 22.233 49.0969C22.8598 52.1708 24.3843 54.9896 26.6137 57.1967C28.843 59.4037 31.6769 60.8997 34.7568 61.4954C37.8366 62.0911 41.0239 61.7596 43.9153 60.543C46.8068 59.3264 49.2723 57.2793 50.9999 54.6608C52.7275 52.0423 53.6395 48.97 53.6205 45.833C53.6121 43.7524 53.1935 41.6939 52.3886 39.7753C51.5837 37.8567 50.4084 36.1157 48.9298 34.652C47.4513 33.1882 45.6986 32.0305 43.7721 31.245C41.8455 30.4595 39.7831 30.0617 37.7027 30.0744Z" fill="#41A4DC"/>
<path d="M92.317 93.3813H81.8493C80.054 93.3813 79.7334 93.0767 79.7334 91.2652C79.7334 87.4605 79.7334 83.6611 79.7334 79.8671C79.7334 77.9754 80.0861 77.7029 81.9295 77.767C82.7598 77.8295 83.5947 77.7864 84.4141 77.6387C85.9828 77.3455 87.3743 76.4499 88.291 75.1437C89.2078 73.8374 89.5769 72.2242 89.3193 70.6492C88.946 69.0785 88.0116 67.6984 86.6921 66.7684C85.3725 65.8384 83.7585 65.4227 82.1539 65.5994C80.07 65.8078 79.7334 65.5192 79.7334 63.371C79.7334 59.6198 79.7334 55.8685 79.7334 52.1493C79.7334 50.3858 80.1021 50.0171 81.8654 50.0171H121.075C122.678 50.0171 123.143 50.4339 123.143 52.0691C123.143 65.1826 123.143 78.296 123.143 91.4095C123.143 93.0126 122.758 93.4134 121.059 93.4134H110.559C108.828 100.355 106.215 103.112 101.438 103.112C96.6611 103.112 93.9841 100.195 92.317 93.3813ZM82.5867 90.5278C83.1157 90.5278 83.5646 90.5278 84.0134 90.5278H92.7658C95.2665 90.5278 95.4749 90.7522 95.3306 93.221C95.2033 94.0973 95.266 94.9908 95.5146 95.8407C95.7631 96.6906 96.1916 97.4771 96.7709 98.1467C97.3503 98.8164 98.067 99.3535 98.8723 99.7217C99.6776 100.09 100.553 100.28 101.438 100.28C102.324 100.28 103.199 100.09 104.004 99.7217C104.809 99.3535 105.526 98.8164 106.105 98.1467C106.685 97.4771 107.113 96.6906 107.362 95.8407C107.61 94.9908 107.673 94.0973 107.546 93.221C107.385 90.7682 107.546 90.5278 110.078 90.5278H120.273V52.7585H82.6188V62.5855C88.5178 63.4191 91.8842 66.449 92.1567 71.0339C92.3216 73.0369 91.7518 75.0314 90.5537 76.6448C89.6252 77.8897 88.4144 78.8963 87.021 79.5819C85.6276 80.2675 84.0914 80.6125 82.5387 80.5885L82.5867 90.5278Z" fill="#41A4DC"/>
<path d="M118.334 12.6967C124.441 13.4341 128.032 16.8006 128.048 21.6581C128.064 26.5155 124.553 29.898 118.334 30.7477V39.164C118.334 39.9977 118.334 40.7672 118.334 41.6809C118.371 41.9057 118.357 42.136 118.292 42.3543C118.227 42.5726 118.112 42.7731 117.957 42.9402C117.803 43.1074 117.612 43.2369 117.399 43.3187C117.186 43.4006 116.958 43.4326 116.731 43.4123H104.227C103.089 43.4123 102.544 42.8352 102.624 41.6649C102.737 40.7439 102.737 39.8125 102.624 38.8915C102.372 37.3652 101.558 35.9887 100.341 35.0333C99.1247 34.0778 97.5945 33.6126 96.052 33.7295C94.5085 33.9437 93.0957 34.7128 92.0779 35.8929C91.0601 37.0731 90.5069 38.5835 90.5216 40.1419C90.4255 43.4764 90.4255 43.4764 86.979 43.4764H76.9602C75.3572 43.4764 74.9404 43.0275 74.9404 41.5206V2.00389C74.9404 0.496969 75.3732 0.0641174 76.832 0.0641174H116.474C117.965 0.0641174 118.35 0.464915 118.35 1.98787C118.334 5.49869 118.334 9.05759 118.334 12.6967ZM87.6042 40.5908C88.4057 34.6112 91.5797 31.1004 96.2604 30.9722C98.3153 30.8805 100.333 31.5417 101.935 32.8317C103.062 33.7599 103.968 34.9281 104.587 36.2511C105.205 37.574 105.521 39.0183 105.51 40.4786H115.464V38.8755C115.464 35.7655 115.464 32.6714 115.464 29.5614C115.464 27.9583 116.009 27.5736 117.5 27.7339C117.965 27.7658 118.431 27.7658 118.895 27.7339C120.437 27.691 121.914 27.1017 123.062 26.0711C124.21 25.0405 124.954 23.6356 125.163 22.1069C125.235 20.5942 124.752 19.1071 123.804 17.9259C122.857 16.7447 121.509 15.951 120.017 15.6945C119.196 15.5578 118.361 15.5255 117.532 15.5983C115.929 15.5983 115.464 15.2937 115.464 13.6265C115.464 10.7569 115.464 7.88733 115.464 5.01776V2.85354H77.7617V40.5427L87.6042 40.5908Z" fill="#41A4DC"/>
<path d="M41.3896 9.79503C42.7201 9.65075 43.8102 9.49045 44.9002 9.42632C45.9903 9.3622 46.8078 9.97136 46.5833 11.2859C46.1986 13.5623 45.7658 15.8388 45.3971 18.1152C45.2208 19.1412 44.772 19.8465 43.6659 19.6061C42.5598 19.3656 42.4796 18.4839 42.672 17.522C42.9766 15.9189 43.2331 14.3158 43.5537 12.3921L40.4278 12.7448C38.8248 12.9371 38.1996 12.2959 38.4241 10.7729C38.8408 7.83923 39.3217 4.92158 39.7706 1.98788C39.9148 1.09014 40.3797 0.496974 41.3736 0.625223C42.3674 0.753472 42.6881 1.52296 42.5598 2.46879L41.3896 9.79503Z" fill="#41A4DC"/>
<path d="M59.5837 19.7824C58.3975 19.2694 57.3716 18.8686 56.3777 18.3877C55.3839 17.9068 55.0152 17.009 55.7525 16.0471C57.6281 13.6264 59.5677 11.2378 61.4753 8.88123C61.5708 8.70565 61.7043 8.55356 61.8659 8.43598C62.0276 8.3184 62.2134 8.23828 62.4098 8.20144C62.6063 8.1646 62.8085 8.17198 63.0017 8.22302C63.195 8.27405 63.3745 8.36747 63.5271 8.4965C64.3286 9.13774 64.1844 9.93929 63.5271 10.6928L59.0227 16.4319C60.1288 16.9128 61.1387 17.3297 62.1325 17.7946C63.3989 18.3877 63.6393 19.2373 62.7577 20.3114C61.2989 22.1069 59.7921 23.8703 58.3174 25.6498C57.6762 26.4193 56.9228 26.8361 56.0732 26.0666C55.2236 25.2971 55.5602 24.5917 56.1854 23.8703L59.5837 19.7824Z" fill="#41A4DC"/>
<path d="M22.875 12.8089C23.9169 12.0234 24.7825 11.334 25.6962 10.7088C25.8691 10.5288 26.0875 10.3991 26.3283 10.3335C26.569 10.268 26.8231 10.269 27.0633 10.3364C27.3035 10.4039 27.5209 10.5353 27.6923 10.7166C27.8638 10.898 27.9828 11.1224 28.0366 11.3661C28.9183 13.6104 29.7358 15.8708 30.5373 18.1312C30.8419 19.0129 30.7617 19.8465 29.7198 20.1832C28.6778 20.5198 28.229 19.9267 27.9244 19.1091C27.2992 17.506 26.7061 15.8067 26.0329 13.9471C25.0871 14.6524 24.2375 15.3097 23.3398 15.9349C22.1696 16.7525 21.3841 16.5601 20.8391 15.2456C19.733 12.5043 18.6751 9.73091 17.6331 6.97355C17.2965 6.09184 17.3125 5.2582 18.2903 4.87345C19.2682 4.48871 19.8933 5.12997 20.2781 6.04374C21.0796 8.24001 21.9452 10.4363 22.875 12.8089Z" fill="#41A4DC"/>
<path d="M11.606 24.0948C11.1091 25.249 10.7243 26.1788 10.3075 27.1086C9.66633 28.4713 8.88088 28.7117 7.67862 27.7499C5.35427 25.9223 3.04596 24.0627 0.737631 22.2031C0.0483384 21.642 -0.304354 20.9527 0.304788 20.1511C0.91393 19.3496 1.71546 19.4297 2.4849 20.0389L8.28777 24.6719C8.73662 23.6299 9.13735 22.668 9.57016 21.7382C10.2595 20.1351 11.0289 20.0068 12.3434 21.0809C14.0746 22.4917 15.7577 23.9345 17.473 25.3452C18.2264 25.9704 18.7234 26.6918 17.9699 27.5896C17.2165 28.4873 16.3669 28.1186 15.6776 27.4773L11.606 24.0948Z" fill="#41A4DC"/>
</g>
<defs>
<clipPath id="clip0_549_2593">
<rect width="128" height="103" fill="white"/>
</clipPath>
</defs>
</svg>
