<svg width="29" height="29" viewBox="0 0 29 29" fill="none" xmlns="http://www.w3.org/2000/svg">
<path d="M3.81754 18.4389L1.69622 16.3176C1.49849 16.1215 1.3439 15.8862 1.24236 15.6269C1.14081 15.3676 1.09455 15.0899 1.10653 14.8116C1.11852 14.5334 1.18848 14.2607 1.31194 14.0111C1.4354 13.7614 1.60964 13.5403 1.8235 13.3619C4.23581 11.4225 7.06942 10.0759 10.0966 9.4304C12.8908 8.80756 15.7878 8.80756 18.5819 9.43041C21.6217 10.0801 24.4656 11.4366 26.8834 13.3902C27.0966 13.5681 27.2704 13.7884 27.3938 14.0371C27.5172 14.2859 27.5875 14.5576 27.6001 14.8349C27.6127 15.1123 27.5675 15.3893 27.4672 15.6482C27.3669 15.9071 27.2139 16.1423 27.0177 16.3388L24.8964 18.4602C24.5566 18.8067 24.1024 19.0179 23.6184 19.0543C23.1345 19.0907 22.6538 18.9499 22.266 18.6581C21.4976 18.0688 20.6649 17.5683 19.784 17.1662C19.4358 17.0082 19.1401 16.7537 18.9321 16.4329C18.7241 16.1121 18.6124 15.7383 18.6102 15.356V13.5599C15.8333 12.7962 12.9018 12.7962 10.1249 13.5599V15.356C10.1228 15.7383 10.0111 16.1121 9.80305 16.4329C9.59501 16.7537 9.29936 17.0082 8.95114 17.1662C8.07021 17.5683 7.2376 18.0688 6.46919 18.6581C6.07724 18.9532 5.59053 19.0939 5.10163 19.0534C4.61272 19.013 4.15572 18.7943 3.81754 18.4389Z" stroke="white" stroke-width="2" stroke-linecap="round" stroke-linejoin="round"/>
</svg>
