<svg width="19" height="13" viewBox="0 0 19 13" fill="none" xmlns="http://www.w3.org/2000/svg">
<path d="M19.0006 6.27365C18.9234 6.42575 18.8348 6.57179 18.7356 6.71053C17.4737 8.34678 15.9136 9.72949 14.1376 10.7857C12.9694 11.4852 11.6559 11.9067 10.2988 12.0176C9.18569 12.084 8.07143 11.908 7.03294 11.5019C5.47693 10.8764 4.05301 9.96279 2.83602 8.80899C2.1083 8.15049 1.43747 7.43174 0.830663 6.66039C0.769814 6.59983 0.721529 6.52785 0.688581 6.44858C0.655634 6.3693 0.638672 6.2843 0.638672 6.19845C0.638672 6.1126 0.655634 6.0276 0.688581 5.94832C0.721529 5.86905 0.769814 5.79706 0.830663 5.7365C2.10206 4.07423 3.68283 2.67343 5.48595 1.6112C6.8736 0.736931 8.48715 0.288725 10.1269 0.322044C11.2736 0.377325 12.3959 0.672549 13.4214 1.18864C15.5405 2.27621 17.3864 3.82841 18.8216 5.72934C18.8939 5.83182 18.9539 5.94238 19.0006 6.05879V6.27365ZM17.6542 6.17338C17.2889 5.77231 16.9451 5.39272 16.5727 5.05611C15.4219 3.83741 14.0483 2.85038 12.5262 2.14835C11.7704 1.79933 10.9574 1.59063 10.1269 1.53242C8.85644 1.49667 7.59975 1.80342 6.48863 2.4205C5.2333 3.09728 4.09051 3.96464 3.10101 4.99166C2.73575 5.36408 2.38481 5.75799 2.01239 6.16622C2.37765 6.55297 2.72859 6.93255 3.0652 7.29781C4.21469 8.50385 5.58625 9.47658 7.10456 10.1626C7.87307 10.5091 8.69818 10.7129 9.53963 10.7642C10.8121 10.7974 12.0704 10.4909 13.1851 9.87613C14.2805 9.31011 15.2867 8.58618 16.1716 7.72753C16.6658 7.24052 17.1385 6.71053 17.6542 6.17338Z" fill="white"/>
<path d="M13.4517 6.16622C13.4516 6.88651 13.2373 7.5905 12.8361 8.18868C12.4348 8.78685 11.8647 9.25218 11.1983 9.52547C10.5319 9.79877 9.79924 9.86769 9.09354 9.72347C8.38784 9.57925 7.74097 9.22841 7.2352 8.71556C6.72943 8.20271 6.38762 7.55103 6.25322 6.84339C6.11883 6.13575 6.19793 5.40412 6.48046 4.74156C6.76299 4.079 7.2362 3.51543 7.83989 3.12253C8.44359 2.72963 9.15049 2.52515 9.87071 2.5351C10.825 2.54828 11.7358 2.93665 12.406 3.61619C13.0761 4.29574 13.4518 5.21181 13.4517 6.16622ZM12.2413 6.16622C12.2399 5.68745 12.0965 5.21984 11.8294 4.82254C11.5622 4.42524 11.1832 4.11609 10.7403 3.93418C10.2975 3.75227 9.8106 3.70577 9.3413 3.80057C8.872 3.89536 8.44135 4.12719 8.1038 4.46674C7.76626 4.80629 7.53698 5.2383 7.44497 5.70815C7.35295 6.17801 7.40233 6.66459 7.58686 7.10638C7.77139 7.54817 8.08277 7.92532 8.48165 8.19014C8.88052 8.45495 9.34897 8.59555 9.82774 8.59413C10.149 8.59698 10.4676 8.53604 10.7651 8.41485C11.0626 8.29366 11.3332 8.11463 11.561 7.88814C11.7888 7.66164 11.9694 7.39218 12.0924 7.09538C12.2153 6.79857 12.2781 6.48032 12.2771 6.15906L12.2413 6.16622Z" fill="white"/>
</svg>
