<svg width="130" height="130" viewBox="0 0 130 130" fill="none" xmlns="http://www.w3.org/2000/svg">
<path d="M0 111.43C1.02065 107.364 2.78816 103.524 5.21262 100.103C12.4321 87.5008 19.7037 74.8724 26.9232 62.244C27.1585 61.6403 27.5702 61.1212 28.1047 60.7544C28.6393 60.3875 29.2719 60.1898 29.9204 60.187C29.6598 57.0624 29.4252 53.99 29.1385 50.9435C28.856 48.6934 29.1075 46.4084 29.8727 44.2734C30.6379 42.1384 31.8953 40.2132 33.5432 38.6536C34.5746 37.6824 35.3223 36.4494 35.7064 35.0864C37.6282 28.7039 41.5854 23.1238 46.9752 19.1959C52.365 15.268 58.8922 13.2076 65.5625 13.3285C72.2329 13.4494 78.681 15.745 83.9246 19.8656C89.1683 23.9862 92.9203 29.706 94.6091 36.154C94.7054 36.6777 94.9601 37.1593 95.3388 37.534C97.5442 39.4554 99.1917 41.934 100.109 44.7101C101.026 47.4862 101.179 50.4576 100.551 53.313C100.213 55.5262 100.108 57.7654 99.8999 60.1349C101.802 60.1349 102.506 61.5149 103.288 62.8949C106.155 67.9463 109.074 72.9976 111.967 78.0229C112.275 78.4614 112.441 78.9842 112.441 79.5201C112.441 80.056 112.275 80.5789 111.967 81.0173C111.723 81.4659 111.324 81.8107 110.845 81.9879C110.366 82.165 109.838 82.1625 109.361 81.9807C108.564 81.6714 107.888 81.1147 107.432 80.3924C104.826 76.1222 102.428 71.7739 99.952 67.3734L99.118 65.9674L86.0864 71.9561L89.4746 81.1475L102.506 116.507C103.21 118.804 104.627 120.817 106.553 122.254C108.48 123.692 110.814 124.478 113.218 124.501C115.127 124.516 117.008 124.042 118.681 123.125C120.355 122.209 121.766 120.879 122.78 119.263C123.794 117.648 124.377 115.799 124.473 113.895C124.569 111.99 124.176 110.093 123.331 108.383C122.053 105.779 120.464 103.436 119.16 100.884C118.755 100.08 118.644 99.1582 118.848 98.2805C118.996 97.882 119.249 97.5307 119.58 97.2635C119.911 96.9963 120.308 96.8229 120.729 96.7617C121.15 96.7005 121.58 96.7535 121.974 96.9154C122.367 97.0772 122.71 97.3419 122.966 97.6816C125.592 101.259 127.649 105.22 129.064 109.425C129.617 111.608 129.708 113.882 129.33 116.101C128.952 118.321 128.114 120.438 126.87 122.315C125.626 124.193 124.004 125.79 122.106 127.005C120.208 128.22 118.078 129.025 115.85 129.37L115.147 129.604H14.439C14.1655 129.511 13.8871 129.432 13.6049 129.37C10.654 128.904 7.89202 127.623 5.63083 125.673C3.36964 123.722 1.69919 121.178 0.80795 118.33C0.443066 117.288 0.260631 116.221 0 115.179V111.43ZM101.177 124.449C99.9913 122.379 98.9126 120.249 97.9451 118.069C95.8862 112.862 93.8272 107.472 92.107 102.056C91.1948 99.1657 89.9438 97.291 86.6598 97.5254C86.6598 97.5254 86.4774 97.5254 86.3992 97.5254C84.7239 96.9422 82.9606 96.6515 81.1866 96.6661C79.5838 97.2673 78.1011 98.1491 76.808 99.2699L76.5995 99.4001C72.4718 101.821 67.695 102.906 62.9254 102.505C58.1558 102.104 53.6275 100.237 49.963 97.1608C49.5585 96.7852 49.0295 96.5719 48.4774 96.562C45.8711 96.9265 43.2647 97.4733 40.6584 97.8899C40.214 97.9139 39.7878 98.0744 39.438 98.3493C39.0882 98.6242 38.8317 99.0003 38.7037 99.4261C35.2894 107.758 33.3608 116.715 28.513 124.449H101.177ZM30.572 66.0195L29.8422 67.2172C24.9598 75.7577 20.0686 84.2807 15.1687 92.7865C12.2757 97.8638 9.27845 102.915 6.46364 108.045C5.41843 109.782 4.90361 111.787 4.98232 113.813C5.06102 115.839 5.72984 117.798 6.90673 119.449C7.92487 121.155 9.39718 122.546 11.1597 123.465C12.9221 124.385 14.9055 124.797 16.8889 124.657C19.208 124.533 21.4321 123.696 23.2565 122.261C25.0809 120.825 26.4162 118.861 27.0796 116.637C31.406 104.92 35.7499 93.1857 40.1111 81.4339L43.4993 72.1123L30.572 66.0195ZM82.6982 68.1025C82.2792 66.1243 81.966 64.1253 81.7599 62.1138C81.7165 60.0984 81.7774 58.0821 81.9424 56.073C81.9424 55.1877 82.1509 54.3024 82.177 53.4692C82.2609 52.9279 82.1567 52.3743 81.8816 51.9005C81.6065 51.4267 81.1773 51.0614 80.6653 50.8654C72.4186 49.4847 64.6699 45.9953 58.1728 40.7366C57.9753 40.5855 57.746 40.4812 57.5021 40.4315C57.2583 40.3819 57.0064 40.3883 56.7654 40.4502C55.0713 41.1272 53.4294 41.9084 51.8134 42.7155C51.4845 42.8803 51.2255 43.1574 51.0837 43.4967C50.2497 45.788 49.5459 48.1314 48.6337 50.3967C47.9653 52.0463 47.706 53.833 47.8779 55.6043C48.0343 58.3708 48.0343 61.1439 47.8779 63.9104C47.723 65.274 47.4616 66.6234 47.096 67.9463C49.3635 69.4044 49.546 70.0554 48.6077 72.581C48.4598 73.1082 48.268 73.622 48.0343 74.1173C47.8116 74.4955 47.7287 74.9398 47.8002 75.3727C47.8716 75.8057 48.0928 76.1999 48.4252 76.4867C50.2988 78.7961 52.6377 80.6859 55.29 82.0334C57.9423 83.381 60.8487 84.156 63.8203 84.3082C66.792 84.4605 69.7625 83.9865 72.5388 82.9171C75.3152 81.8478 77.8353 80.2069 79.9355 78.1011C80.8277 77.4915 81.4538 76.565 81.6862 75.5104C81.9187 74.4558 81.74 73.3524 81.1866 72.4248C80.0137 70.2116 80.5871 69.4304 82.6461 68.1025H82.6982ZM87.9108 33.1857C85.7455 28.3879 82.1297 24.3886 77.5717 21.7498C73.0137 19.1111 67.7426 17.9655 62.4993 18.4742C58.0872 18.8474 53.8549 20.3908 50.2397 22.9451C46.6246 25.4993 43.7577 28.9717 41.9355 33.0034C43.5276 33.3059 45.0828 33.7772 46.5747 34.4094C47.9044 35.3017 49.1362 36.3315 50.2497 37.4819C52.2044 36.7528 54.2894 35.9977 56.3484 35.1906C57.0513 34.8981 57.8267 34.8261 58.5715 34.9843C59.3163 35.1424 59.9954 35.5231 60.5185 36.0759C65.3302 40.2848 71.0463 43.3316 77.225 44.9808C77.8244 45.1371 78.4239 45.2412 79.1015 45.3714C78.5932 43.9811 78.4366 42.4869 78.6457 41.0216C78.8548 39.5563 79.423 38.1653 80.2999 36.9723C81.1769 35.7793 82.3353 34.8213 83.6722 34.1834C85.009 33.5455 86.483 33.2474 87.963 33.3158L87.9108 33.1857ZM42.2744 65.8893C42.2744 65.4727 42.5089 65.2123 42.5871 64.9259C43.1862 61.7249 43.1862 58.4407 42.5871 55.2398C42.3063 53.4003 42.5315 51.5192 43.2387 49.7978C44.1769 47.5586 45.011 45.2672 45.845 42.9499C46.0877 42.2187 46.0756 41.4271 45.8106 40.7037C45.5456 39.9804 45.0433 39.3679 44.3855 38.9661C43.7868 38.5202 43.0601 38.2793 42.3134 38.2793C41.5668 38.2793 40.84 38.5202 40.2414 38.9661C38.7182 40.3056 37.2818 41.7405 35.941 43.2623C34.4886 44.9567 33.767 47.1567 33.9342 49.3812C34.1948 53.4692 34.6118 57.5311 35.0027 61.593C35.0368 61.8277 35.1221 62.0521 35.2528 62.2501C35.3834 62.4481 35.5561 62.6149 35.7586 62.7387C37.9218 63.9104 40.059 64.8478 42.2744 65.8893ZM87.5199 65.8893C89.5268 64.9519 91.4554 63.9885 93.4362 63.2855C93.8454 63.1456 94.1984 62.8773 94.4426 62.5208C94.6868 62.1642 94.8092 61.7383 94.7915 61.3066C95.0521 57.6353 95.417 53.9899 95.7298 50.3186C95.8663 48.9466 95.7041 47.5614 95.2542 46.258C94.8043 44.9546 94.0774 43.7639 93.1235 42.7676C92.1591 41.7261 91.0905 40.7366 90.048 39.7732C89.4723 39.1082 88.674 38.6753 87.8022 38.5553C86.9304 38.4353 86.0446 38.6365 85.3104 39.1212C84.5762 39.606 84.0437 40.3412 83.8124 41.1895C83.5811 42.0378 83.6668 42.9412 84.0535 43.731C84.8875 45.9703 85.8519 48.1835 86.6598 50.4748C87.0325 51.797 87.2253 53.1632 87.2332 54.5368C87.2332 55.8647 86.9726 57.1405 86.8683 58.5726C86.5998 61.0306 86.8212 63.5173 87.5199 65.8893ZM53.6379 93.5936C56.8073 96.2281 60.8001 97.6706 64.9232 97.6706C69.0462 97.6706 73.0391 96.2281 76.2085 93.5936L73.6022 88.1517C68.0398 90.0269 62.0151 90.0269 56.4527 88.1517L53.6379 93.5936ZM84.3662 81.1996C82.6721 82.5535 81.0562 83.8034 79.3882 85.1313C79.1137 85.2804 78.9006 85.5213 78.7862 85.8118C78.6718 86.1022 78.6635 86.4236 78.7627 86.7196C79.2918 88.753 80.5985 90.4978 82.4018 91.5788C84.2052 92.6598 86.3611 92.9905 88.406 92.5L84.3662 81.1996ZM45.5322 81.1996L41.2579 92.7604C43.0041 92.5 44.5418 92.3178 46.0535 92.0053C47.4016 91.7588 48.6352 91.0873 49.5733 90.0891C50.5114 89.091 51.1047 87.8189 51.2661 86.4592C51.2991 86.283 51.2953 86.1018 51.255 85.927C51.2146 85.7523 51.1386 85.5878 51.0316 85.4438C49.129 84.0377 47.3306 82.7879 45.4801 81.2256L45.5322 81.1996Z" fill="#24348A"/>
<path d="M0 26.0513C1.32922 24.1245 2.21535 23.8641 4.32646 24.8796L15.6379 30.2434C16.2217 30.3455 16.7532 30.6433 17.1449 31.0877C17.5365 31.5322 17.7648 32.0967 17.7922 32.6882C17.8195 33.2797 17.6442 33.8628 17.2952 34.3414C16.9462 34.82 16.4443 35.1654 15.8724 35.3208C14.7256 35.9197 13.6049 36.6227 12.3278 37.3518L13.4485 38.0287C16.0549 39.5129 18.6612 40.971 21.2675 42.5073C21.5793 42.6571 21.8581 42.8675 22.0876 43.1262C22.3172 43.3848 22.4928 43.6866 22.6044 44.0138C22.716 44.341 22.7613 44.6871 22.7376 45.0319C22.7139 45.3768 22.6217 45.7135 22.4664 46.0224C22.2857 46.3316 22.0431 46.6003 21.7537 46.8117C21.4644 47.023 21.1345 47.1724 20.7847 47.2506C20.4349 47.3288 20.0727 47.3341 19.7208 47.2661C19.3689 47.1982 19.0348 47.0584 18.7394 46.8556C14.5171 44.4775 10.3036 42.082 6.09876 39.6691C5.685 39.446 5.33936 39.1153 5.09846 38.7119C4.85756 38.3085 4.73038 37.8475 4.73038 37.3778C4.73038 36.9081 4.85756 36.4471 5.09846 36.0437C5.33936 35.6403 5.685 35.3096 6.09876 35.0865C7.21947 34.4095 8.34018 33.7846 9.64334 33.0295C7.03703 31.8057 4.69135 30.7381 2.37173 29.5143C1.5178 28.9541 0.723138 28.3085 0 27.5875V26.0513Z" fill="#24348A"/>
<path d="M24.4995 10.8972C22.4926 8.73605 20.6421 6.73113 18.8177 4.70018C18.3623 4.26514 18.0143 3.73031 17.8013 3.1379C17.7205 2.64064 17.7858 2.13064 17.9893 1.66973C18.1929 1.20882 18.5259 0.816804 18.948 0.541191C19.3701 0.265578 19.8631 0.118209 20.3674 0.116951C20.8716 0.115694 21.3654 0.260604 21.7889 0.534109C22.2706 0.945935 22.7153 1.39898 23.1181 1.88808L31.1977 10.6368C31.6301 10.9719 31.9459 11.4344 32.1004 11.9588C32.255 12.4833 32.2404 13.043 32.0587 13.5586C31.877 14.0743 31.5375 14.5198 31.0883 14.8319C30.639 15.144 30.1028 15.3069 29.5557 15.2976L25.3595 15.8965L29.6078 21.2603C30.3637 22.2237 31.1455 23.1611 31.8753 24.1505C32.2884 24.6835 32.4785 25.3558 32.4055 26.0259C32.3326 26.6961 32.0024 27.3118 31.4844 27.7437C31.2311 27.956 30.9367 28.1137 30.6195 28.2069C30.3023 28.3001 29.9693 28.3267 29.6413 28.2851C29.3133 28.2436 28.9975 28.1347 28.7136 27.9654C28.4298 27.796 28.1841 27.5698 27.9919 27.3011C24.8122 23.4301 21.6846 19.5071 18.6092 15.5319C18.3222 15.1982 18.1317 14.7927 18.0581 14.3589C17.9844 13.9252 18.0305 13.4796 18.1913 13.07C18.352 12.6604 18.6215 12.3023 18.9706 12.0342C19.3198 11.7661 19.7354 11.598 20.173 11.5481C21.5283 11.2878 22.8836 11.1315 24.4995 10.8972Z" fill="#24348A"/>
<path d="M104.435 15.9225L100.5 15.3758C99.8773 15.5196 99.2238 15.4301 98.6632 15.1244C98.1026 14.8187 97.6739 14.3179 97.4585 13.7172C97.2431 13.1165 97.2559 12.4577 97.4946 11.8659C97.7333 11.274 98.1812 10.7903 98.7533 10.5067L107.589 0.924705C107.959 0.486386 108.464 0.182424 109.024 0.0600105C109.585 -0.0624026 110.171 0.00358129 110.69 0.247718C111.194 0.479464 111.602 0.878607 111.844 1.37713C112.087 1.87566 112.149 2.44273 112.019 2.9817C111.805 3.61188 111.459 4.18897 111.003 4.67417C109.179 6.73116 107.302 8.71004 105.295 10.8972L108.736 11.3919C109.307 11.3794 109.871 11.5263 110.363 11.816C110.856 12.1058 111.258 12.527 111.524 13.0323C111.718 13.5929 111.742 14.1979 111.594 14.7721C111.445 15.3462 111.131 15.8641 110.69 16.261C107.849 19.7762 105.087 23.3434 102.22 26.8324C101.664 27.5478 100.868 28.0379 99.9783 28.2124C99.5384 28.1675 99.1116 28.0362 98.7225 27.8262C98.3334 27.6162 97.9896 27.3316 97.7108 26.9887C97.3967 26.5523 97.2501 26.0175 97.2979 25.4821C97.3458 24.9467 97.5849 24.4463 97.9714 24.0724L103.184 17.5629L104.435 15.9225Z" fill="#24348A"/>
<path d="M120.15 33.0294C121.401 33.7585 122.496 34.3573 123.565 35.0083C124.012 35.2186 124.391 35.5518 124.656 35.9691C124.921 36.3864 125.062 36.8704 125.062 37.3647C125.062 37.859 124.921 38.3431 124.656 38.7603C124.391 39.1776 124.012 39.5109 123.565 39.7211C119.368 42.1427 115.172 44.5382 110.924 46.9076C110.636 47.1838 110.289 47.3903 109.909 47.5112C109.529 47.6322 109.126 47.6644 108.732 47.6053C108.337 47.5462 107.961 47.3974 107.633 47.1704C107.306 46.9434 107.034 46.6442 106.84 46.2959C106.646 45.9476 106.535 45.5595 106.515 45.1615C106.495 44.7635 106.567 44.3661 106.724 44.0001C106.882 43.6341 107.122 43.3091 107.425 43.0503C107.729 42.7915 108.088 42.6057 108.474 42.5072C111.08 40.997 113.687 39.5389 116.293 38.0547L117.466 37.3517L113.582 35.1385C113.142 34.9114 112.776 34.5637 112.526 34.1361C112.277 33.7085 112.154 33.2187 112.174 32.7241C112.193 32.2295 112.353 31.7505 112.634 31.3435C112.916 30.9364 113.308 30.618 113.765 30.4256C117.805 28.5248 121.818 26.572 125.858 24.6973C126.165 24.5165 126.506 24.4006 126.86 24.3566C127.213 24.3126 127.572 24.3416 127.914 24.4416C128.256 24.5417 128.574 24.7107 128.848 24.9383C129.122 25.1659 129.346 25.4472 129.507 25.7648C129.654 26.093 129.73 26.448 129.733 26.8074C129.735 27.1667 129.663 27.5227 129.521 27.8529C129.379 28.1831 129.17 28.4803 128.908 28.7259C128.645 28.9715 128.335 29.1601 127.995 29.2799L120.15 33.0294Z" fill="#24348A"/>
<path d="M118.17 89.4536C118.171 90.1222 117.914 90.7655 117.453 91.2502C116.993 91.7349 116.363 92.0239 115.694 92.0574C115.003 92.0574 114.34 91.783 113.851 91.2947C113.362 90.8064 113.088 90.1442 113.088 89.4536C113.121 88.7858 113.411 88.1565 113.896 87.696C114.381 87.2355 115.025 86.9791 115.694 86.98C116.341 87.0115 116.952 87.2823 117.41 87.7395C117.868 88.1967 118.139 88.8077 118.17 89.4536Z" fill="#24348A"/>
<path d="M64.9489 68.5452C65.9848 68.5289 67.0137 68.7185 67.9757 69.1029C68.9376 69.4873 69.8135 70.0589 70.5525 70.7844C70.9103 70.9572 71.2239 71.2094 71.4691 71.5218C71.7144 71.8343 71.8849 72.1986 71.9676 72.5869C72.0504 72.9753 72.0431 73.3774 71.9464 73.7625C71.8496 74.1477 71.666 74.5056 71.4096 74.8089C71.1531 75.1122 70.8306 75.353 70.4668 75.5127C70.1029 75.6724 69.7073 75.7468 69.3102 75.7304C68.9131 75.7139 68.525 75.6069 68.1757 75.4175C67.8263 75.2282 67.5249 74.9616 67.2946 74.638C66.9877 74.3142 66.6179 74.0563 66.2079 73.88C65.7979 73.7037 65.3562 73.6128 64.9098 73.6128C64.4634 73.6128 64.0217 73.7037 63.6117 73.88C63.2017 74.0563 62.8319 74.3142 62.525 74.638C62.0043 75.063 61.3393 75.2705 60.669 75.2171C59.9988 75.1638 59.3751 74.8536 58.9283 74.3516C58.5152 73.8186 58.3252 73.1463 58.3981 72.4762C58.471 71.8061 58.8012 71.1903 59.3193 70.7584C60.0634 70.0344 60.9445 69.4658 61.9111 69.0858C62.8777 68.7058 63.9104 68.522 64.9489 68.5452Z" fill="#24348A"/>
<path d="M77.0168 60.6296C77.0847 61.0761 77.0351 61.5325 76.873 61.9541C76.7108 62.3757 76.4417 62.7479 76.0921 63.0342C75.7425 63.3204 75.3243 63.5109 74.8787 63.5869C74.4331 63.6629 73.9754 63.6219 73.5505 63.4677C72.65 63.1412 71.7782 62.7406 70.9441 62.27C70.519 61.9047 70.223 61.4122 70.1003 60.8656C69.9776 60.3189 70.0346 59.7474 70.2629 59.2357C70.4912 58.724 70.8785 58.2995 71.3675 58.0253C71.8565 57.751 72.4209 57.6416 72.9771 57.7133C73.8924 58.0361 74.7671 58.4643 75.5834 58.9892C76.1442 59.4577 76.6279 60.0112 77.0168 60.6296Z" fill="#24348A"/>
<path d="M60.258 59.9526C60.2205 60.552 59.997 61.1247 59.6187 61.5914C59.2404 62.058 58.7259 62.3953 58.1469 62.5564C56.7134 63.1293 55.28 64.2489 53.6901 62.947C53.3864 62.7005 53.1463 62.3849 52.9898 62.0267C52.8332 61.6684 52.7649 61.2779 52.7904 60.8878C52.8159 60.4978 52.9346 60.1195 53.1364 59.7846C53.3383 59.4498 53.6175 59.1681 53.9507 58.9632C54.9649 58.3547 56.0504 57.8737 57.1826 57.5311C57.5497 57.4341 57.9344 57.4238 58.3063 57.5008C58.6781 57.5779 59.0269 57.7402 59.3252 57.9751C59.6235 58.2099 59.863 58.5108 60.0249 58.854C60.1868 59.1972 60.2666 59.5733 60.258 59.9526Z" fill="#24348A"/>
</svg>
