<svg width="22" height="22" viewBox="0 0 22 22" fill="none" xmlns="http://www.w3.org/2000/svg">
<path d="M0.00109005 18.5972C0.0127993 19.0139 0.108123 19.424 0.281401 19.8031C0.454678 20.1822 0.702374 20.5226 1.00978 20.8041C1.31718 21.0856 1.67802 21.3024 2.07087 21.4418C2.46372 21.5811 2.88056 21.6401 3.29664 21.6151C5.89565 21.6296 8.49467 21.6151 11.0937 21.6151C11.2538 21.6151 11.4073 21.5516 11.5205 21.4384C11.6337 21.3252 11.6973 21.1716 11.6973 21.0116C11.6973 20.8515 11.6337 20.698 11.5205 20.5848C11.4073 20.4716 11.2538 20.408 11.0937 20.408C8.43793 20.408 5.78218 20.4466 3.12643 20.408C1.7901 20.3887 1.20825 19.3843 1.20825 18.1892V3.14438C1.19893 2.76445 1.30582 2.39072 1.51464 2.07318C1.72346 1.75564 2.02425 1.50942 2.37678 1.36744C2.79356 1.25371 3.22723 1.21488 3.65758 1.25276H11.0937C11.2538 1.25276 11.4073 1.18917 11.5205 1.07598C11.6337 0.962786 11.6973 0.809263 11.6973 0.649184C11.6973 0.489105 11.6337 0.335582 11.5205 0.222388C11.4073 0.109195 11.2538 0.0456038 11.0937 0.0456038C8.40896 0.0456038 5.70372 -0.0570048 3.02141 0.0456038C2.61064 0.0559922 2.20605 0.147969 1.83116 0.316181C1.45628 0.484393 1.11859 0.725483 0.837754 1.02542C0.556914 1.32536 0.338528 1.67815 0.195306 2.06328C0.052084 2.4484 -0.013113 2.85816 0.00350571 3.26872L0.00109005 18.5972Z" fill="white" fill-opacity="0.65"/>
<path d="M21.4794 10.4068C21.5814 10.5057 21.6411 10.6403 21.646 10.7822C21.646 10.8003 21.646 10.816 21.6532 10.8341C21.6605 10.8523 21.6532 10.8667 21.646 10.8836C21.6412 11.026 21.5815 11.1609 21.4794 11.2603L17.0503 15.6893C16.9365 15.7993 16.784 15.8601 16.6258 15.8588C16.4675 15.8574 16.3161 15.7939 16.2042 15.682C16.0923 15.5701 16.0289 15.4187 16.0275 15.2604C16.0261 15.1022 16.0869 14.9497 16.1969 14.8359L19.595 11.4365H6.62773C6.46765 11.4365 6.31412 11.3729 6.20093 11.2597C6.08774 11.1465 6.02415 10.993 6.02415 10.8329C6.02415 10.6729 6.08774 10.5193 6.20093 10.4061C6.31412 10.2929 6.46765 10.2294 6.62773 10.2294H19.595L16.1969 6.82999C16.0869 6.71616 16.0261 6.56369 16.0275 6.40543C16.0289 6.24718 16.0923 6.09579 16.2042 5.98388C16.3161 5.87197 16.4675 5.8085 16.6258 5.80712C16.784 5.80575 16.9365 5.86658 17.0503 5.97653L21.4794 10.4068Z" fill="white" fill-opacity="0.65"/>
</svg>
