<svg width="20" height="18" viewBox="0 0 20 18" fill="none" xmlns="http://www.w3.org/2000/svg">
<path d="M20 12.9405C20 15.7305 17.76 17.9905 14.97 18.0005H14.96H5.05C2.27 18.0005 0 15.7505 0 12.9605V12.9505C0 12.9505 0.006 8.52449 0.014 6.29849C0.015 5.88049 0.495 5.64649 0.822 5.90649C3.198 7.79149 7.447 11.2285 7.5 11.2735C8.21 11.8425 9.11 12.1635 10.03 12.1635C10.95 12.1635 11.85 11.8425 12.56 11.2625C12.613 11.2275 16.767 7.89349 19.179 5.97749C19.507 5.71649 19.989 5.95049 19.99 6.36749C20 8.57649 20 12.9405 20 12.9405Z" fill="white"/>
<path d="M19.4761 2.674C18.6101 1.042 16.9061 0 15.0301 0H5.0501C3.1741 0 1.4701 1.042 0.604097 2.674C0.410097 3.039 0.502097 3.494 0.825097 3.752L8.2501 9.691C8.7701 10.111 9.4001 10.32 10.0301 10.32C10.0341 10.32 10.0371 10.32 10.0401 10.32C10.0431 10.32 10.0471 10.32 10.0501 10.32C10.6801 10.32 11.3101 10.111 11.8301 9.691L19.2551 3.752C19.5781 3.494 19.6701 3.039 19.4761 2.674Z" fill="white"/>
</svg>
