<svg width="27" height="26" viewBox="0 0 27 26" fill="none" xmlns="http://www.w3.org/2000/svg">
<path d="M13.6639 2.8916C12.9439 2.8916 12.2534 3.17761 11.7443 3.68671C11.2352 4.19581 10.9492 4.8863 10.9492 5.60628V12.8454C10.9492 13.5654 11.2352 14.2559 11.7443 14.765C12.2534 15.2741 12.9439 15.5601 13.6639 15.5601C14.3839 15.5601 15.0744 15.2741 15.5835 14.765C16.0926 14.2559 16.3786 13.5654 16.3786 12.8454V5.60628C16.3786 4.8863 16.0926 4.19581 15.5835 3.68671C15.0744 3.17761 14.3839 2.8916 13.6639 2.8916V2.8916Z" stroke="#8A9EB4" stroke-width="1.80978" stroke-linecap="round" stroke-linejoin="round"/>
<path d="M19.9976 11.0356V12.8454C19.9976 14.5254 19.3302 16.1365 18.1423 17.3244C16.9544 18.5123 15.3433 19.1797 13.6633 19.1797C11.9834 19.1797 10.3723 18.5123 9.18436 17.3244C7.99646 16.1365 7.3291 14.5254 7.3291 12.8454V11.0356" stroke="#8A9EB4" stroke-width="1.80978" stroke-linecap="round" stroke-linejoin="round"/>
<path d="M13.6641 19.1797V22.7993" stroke="#8A9EB4" stroke-width="1.80978" stroke-linecap="round" stroke-linejoin="round"/>
<path d="M10.0439 22.7988H17.2831" stroke="#8A9EB4" stroke-width="1.80978" stroke-linecap="round" stroke-linejoin="round"/>
</svg>
