<svg width="24" height="28" viewBox="0 0 24 28" fill="none" xmlns="http://www.w3.org/2000/svg">
<path d="M22.9959 19.2432C22.4498 18.7062 21.729 18.3682 20.9554 18.2864V11.1647C20.958 10.0252 20.7274 8.89651 20.2771 7.84379C19.8269 6.79107 19.1657 5.83518 18.332 5.03131C17.343 4.09741 16.1544 3.38521 14.8502 2.94502V2.8509C14.8583 2.14824 14.5956 1.46791 14.1134 0.942862C13.6312 0.417815 12.9643 0.0857826 12.2429 0.0116519C11.8495 -0.0235809 11.4528 0.0213004 11.0784 0.143411C10.7039 0.265523 10.36 0.462162 10.0687 0.720694C9.77741 0.979226 9.54517 1.29393 9.38691 1.64458C9.22865 1.99524 9.14788 2.37409 9.14978 2.75678V2.94502C7.37393 3.52672 5.83046 4.63202 4.73563 6.10602C3.64081 7.58002 3.04949 9.34886 3.04453 11.1647V18.2864C2.20598 18.3796 1.43219 18.7685 0.870696 19.3789C0.309197 19.9894 -0.0007323 20.7786 1.29934e-06 21.5962V22.4276C0.000430433 23.3094 0.362279 24.1551 1.00603 24.7786C1.64979 25.4022 2.52279 25.7527 3.43319 25.7531H9.24695C9.35869 26.3819 9.69624 26.9523 10.2 27.3634C10.7037 27.7745 11.3413 28 12 28C12.6587 28 13.2962 27.7745 13.8 27.3634C14.3037 26.9523 14.6413 26.3819 14.753 25.7531H20.5668C21.4772 25.7527 22.3502 25.4022 22.9939 24.7786C23.6377 24.1551 23.9995 23.3094 24 22.4276V21.5962C24.0021 21.1591 23.9145 20.7259 23.7421 20.322C23.5697 19.918 23.3161 19.5513 22.9959 19.2432ZM22.3805 22.4276C22.381 22.6584 22.3343 22.8871 22.2433 23.1004C22.1523 23.3137 22.0187 23.5076 21.8502 23.6708C21.6817 23.834 21.4816 23.9634 21.2614 24.0516C21.0411 24.1397 20.8051 24.1849 20.5668 24.1845H3.43319C3.19489 24.1849 2.95884 24.1397 2.73859 24.0516C2.51834 23.9634 2.31823 23.834 2.14972 23.6708C1.98121 23.5076 1.84763 23.3137 1.75663 23.1004C1.66563 22.8871 1.61901 22.6584 1.61943 22.4276V21.5962C1.61901 21.3654 1.66563 21.1367 1.75663 20.9234C1.84763 20.71 1.98121 20.5162 2.14972 20.353C2.31823 20.1897 2.51834 20.0604 2.73859 19.9722C2.95884 19.8841 3.19489 19.8389 3.43319 19.8393C3.59607 19.8389 3.75725 19.8073 3.90744 19.7462C4.05763 19.6852 4.19387 19.596 4.30828 19.4837C4.4227 19.3714 4.51303 19.2383 4.57408 19.092C4.63512 18.9457 4.66567 18.7892 4.66396 18.6315V11.1647C4.67126 9.63544 5.18491 8.14879 6.12939 6.92333C7.07387 5.69788 8.39934 4.79827 9.91092 4.3568C10.1604 4.28824 10.3797 4.14202 10.5348 3.94072C10.6899 3.73942 10.7723 3.49424 10.7692 3.24306V2.75678C10.7674 2.59076 10.8027 2.42632 10.8725 2.2747C10.9424 2.12309 11.0453 1.98789 11.1741 1.87834C11.3982 1.67582 11.6935 1.56363 12 1.56461H12.1133C12.4298 1.60942 12.7184 1.76509 12.9243 2.00215C13.1302 2.23921 13.2393 2.54119 13.2307 2.8509V3.24306C13.2277 3.49424 13.31 3.73942 13.4652 3.94072C13.6203 4.14202 13.8396 4.28824 14.089 4.3568C15.2538 4.70275 16.3149 5.31625 17.1822 6.14505C17.8682 6.80065 18.4121 7.58239 18.782 8.44438C19.1518 9.30637 19.3402 10.2312 19.336 11.1647V18.6315C19.3364 18.9526 19.4639 19.2614 19.6923 19.4942C19.9261 19.7154 20.2399 19.8393 20.5668 19.8393C21.0469 19.8422 21.5065 20.0282 21.846 20.3571C22.1855 20.6859 22.3776 21.1311 22.3805 21.5962V22.4276Z" fill="#24348A"/>
</svg>
