<svg width="19" height="22" viewBox="0 0 19 22" fill="none" xmlns="http://www.w3.org/2000/svg">
<path d="M9.22155 21.9993C7.11225 22.016 5.01694 21.6548 3.03447 20.9327C2.15573 20.6258 1.35935 20.1201 0.707106 19.4549C0.471158 19.2101 0.287052 18.9199 0.165853 18.6019C0.0446552 18.2839 -0.0111364 17.9447 0.00183905 17.6045C0.0237233 15.1931 0.988211 12.8863 2.68825 11.1795C2.76284 11.0889 2.85537 11.0149 2.96 10.9621C3.06462 10.9092 3.17906 10.8787 3.29605 10.8725C3.41304 10.8663 3.53005 10.8845 3.63966 10.9259C3.74927 10.9674 3.8491 11.0312 3.93283 11.1133C4.01656 11.1954 4.08236 11.2941 4.12607 11.403C4.16978 11.5119 4.19045 11.6288 4.18676 11.7461C4.18308 11.8635 4.15512 11.9788 4.10465 12.0847C4.05419 12.1907 3.98232 12.285 3.8936 12.3617C2.75373 13.5119 2.01214 14.9983 1.77782 16.6022C1.73294 16.9042 1.72653 17.2447 1.69447 17.521C1.67733 17.6932 1.70356 17.8669 1.77077 18.0263C1.83798 18.1857 1.94401 18.3257 2.07916 18.4334C2.60263 18.8824 3.211 19.2211 3.86796 19.4292C5.93151 20.1182 8.10926 20.3975 10.2794 20.2517C11.8106 20.2227 13.3266 19.9427 14.7675 19.4228C15.3044 19.2047 15.8214 18.9403 16.3127 18.6325C16.5399 18.5005 16.7225 18.3031 16.8368 18.0661C16.951 17.829 16.9918 17.5631 16.9538 17.3026C16.8365 15.4596 16.0629 13.72 14.7739 12.4002C14.6587 12.3036 14.5679 12.181 14.5089 12.0426C14.4499 11.9042 14.4242 11.7537 14.4341 11.6035C14.4483 11.4441 14.5087 11.2923 14.6078 11.1668C14.7069 11.0412 14.8404 10.9474 14.9919 10.8968C15.146 10.8378 15.3143 10.8271 15.4746 10.8661C15.6349 10.9051 15.7796 10.992 15.8895 11.1152C17.0111 12.2247 17.832 13.6023 18.2746 15.118C18.5006 15.9173 18.6256 16.7419 18.6464 17.5724C18.6569 17.9623 18.5807 18.3497 18.4232 18.7065C18.2657 19.0632 18.031 19.3803 17.736 19.6349C16.9532 20.3267 16.0269 20.8358 15.0239 21.1255C13.1479 21.7216 11.1896 22.0165 9.22155 21.9993Z" fill="white" fill-opacity="0.65"/>
<path d="M3.38867 5.93673C3.38868 4.76337 3.73565 3.61633 4.38576 2.64045C5.03587 1.66458 5.95998 0.90365 7.04137 0.45375C8.12275 0.00384982 9.31293 -0.11484 10.4616 0.112673C11.6102 0.340187 12.6659 0.903694 13.4951 1.73204C14.3244 2.56038 14.8901 3.61641 15.1209 4.76676C15.3517 5.9171 15.2371 7.11018 14.7916 8.19531C14.3462 9.28044 13.5899 10.209 12.6182 10.8636C11.6465 11.5183 10.503 11.8697 9.33212 11.8735C8.55276 11.8752 7.78071 11.7229 7.06011 11.4254C6.33951 11.1279 5.68449 10.691 5.13251 10.1396C4.58052 9.58823 4.1424 8.93325 3.84318 8.21209C3.54396 7.49094 3.38951 6.71774 3.38867 5.93673ZM5.0813 5.93673C5.0775 6.77706 5.32293 7.59958 5.78643 8.29988C6.24994 9.00018 6.91062 9.54668 7.68462 9.87003C8.45862 10.1934 9.31104 10.279 10.1337 10.116C10.9563 9.95296 11.7121 9.54869 12.305 8.95448C12.898 8.36027 13.3014 7.60291 13.464 6.77853C13.6267 5.95415 13.5413 5.09994 13.2186 4.3243C12.896 3.54866 12.3506 2.88657 11.6518 2.42208C10.953 1.9576 10.1322 1.71165 9.29365 1.71546C8.18782 1.72362 7.12882 2.16397 6.34209 2.94278C5.55535 3.72158 5.10299 4.77734 5.0813 5.88533V5.93673Z" fill="white" fill-opacity="0.65"/>
</svg>
