<svg width="14" height="13" viewBox="0 0 14 13" fill="none" xmlns="http://www.w3.org/2000/svg">
<path d="M2.45059 5.65356L3.5555 5.0477L4.43075 4.57075C4.48569 4.53535 4.54705 4.51206 4.61102 4.50232C4.675 4.49258 4.74021 4.49659 4.80263 4.51411C4.86504 4.53164 4.92332 4.5623 4.97385 4.60419C5.02438 4.64608 5.06607 4.69831 5.09634 4.75763C5.12661 4.81696 5.14482 4.88211 5.14983 4.94904C5.15483 5.01597 5.14653 5.08326 5.12545 5.14673C5.10436 5.21019 5.07093 5.26848 5.02724 5.31797C4.98355 5.36746 4.93054 5.40709 4.87147 5.43441L2.20229 6.88461C2.14261 6.92771 2.07425 6.95611 2.0024 6.96765C1.93056 6.97918 1.85712 6.97355 1.78769 6.95117C1.71826 6.9288 1.65465 6.89028 1.60172 6.83853C1.54879 6.78679 1.50792 6.72319 1.48223 6.65257L0.0917753 3.90688C0.0515306 3.85009 0.0235685 3.78494 0.00979976 3.7159C-0.00396898 3.64685 -0.00322119 3.57554 0.0119948 3.50682C0.0272109 3.43811 0.0565367 3.37361 0.0979651 3.31774C0.139393 3.26187 0.191947 3.21595 0.25204 3.18311C0.312132 3.15027 0.378344 3.13129 0.446151 3.12746C0.513958 3.12363 0.581763 3.13505 0.64493 3.16093C0.708097 3.18681 0.765138 3.22655 0.812156 3.27742C0.859173 3.3283 0.895057 3.38911 0.917358 3.45571L1.63742 4.88012C1.65226 4.84674 1.66471 4.81228 1.67466 4.777C1.96059 3.60155 2.56821 2.53721 3.4241 1.71256C4.28 0.887915 5.34756 0.33824 6.49781 0.129942C7.88624 -0.162792 9.32926 0.042394 10.5908 0.711932C11.8523 1.38147 12.8576 2.47572 13.4423 3.81567C14.027 5.15562 14.1564 6.66193 13.8094 8.08819C13.4624 9.51444 12.6595 10.7762 11.532 11.667C10.9272 12.172 10.2312 12.5462 9.48492 12.7676C8.73867 12.989 7.9573 13.0531 7.18683 12.9561C6.0424 12.8616 4.94605 12.4375 4.02106 11.7315C3.93765 11.6768 3.87259 11.5966 3.8348 11.502C3.79701 11.4073 3.78835 11.3029 3.81001 11.203C3.82777 11.1103 3.87236 11.0255 3.9378 10.9598C4.00325 10.8942 4.08644 10.8508 4.17624 10.8356C4.249 10.8231 4.32353 10.8276 4.39439 10.8488C4.46525 10.87 4.53069 10.9073 4.58593 10.958C5.21341 11.4373 5.93695 11.7634 6.70266 11.9119C8.06812 12.1864 9.48285 11.898 10.647 11.1079C11.8112 10.3178 12.6334 9.08804 12.9392 7.67929C13.2451 6.27054 13.0107 4.79347 12.2857 3.5611C11.5607 2.32873 10.402 1.43791 9.05526 1.0774C8.36635 0.897438 7.64995 0.860867 6.94736 0.969799C6.24478 1.07873 5.56991 1.33101 4.96169 1.71209C4.35347 2.09316 3.82392 2.5955 3.40359 3.19012C2.98326 3.78474 2.68046 4.45988 2.51266 5.1766C2.49404 5.35063 2.49404 5.48598 2.45059 5.65356Z" fill="white"/>
</svg>
