<svg width="30" height="26" viewBox="0 0 30 26" fill="none" xmlns="http://www.w3.org/2000/svg">
<path d="M27.2981 0.16852L1.11052 6.59062C0.80176 6.66334 0.526209 6.83646 0.326818 7.083C0.127428 7.32954 0.0154043 7.63564 0.00821089 7.95359C-0.00435734 8.27318 0.0889871 8.58849 0.273699 8.85039C0.458411 9.11228 0.724115 9.30606 1.02941 9.40151L11.3794 12.6995C11.532 12.7527 11.664 12.853 11.7563 12.9861C11.8485 13.1191 11.8963 13.2779 11.8926 13.4395L11.6413 24.3141C11.6362 24.6328 11.7339 24.945 11.9201 25.2044C12.1062 25.4638 12.3707 25.6565 12.6742 25.7536C12.8887 25.8217 13.1158 25.8389 13.3376 25.8039C13.5593 25.7689 13.7697 25.6826 13.9519 25.5518C14.1053 25.4436 14.2366 25.307 14.3386 25.1492L28.8722 2.38693C29.0304 2.14232 29.1113 1.8554 29.1046 1.56333C29.0978 1.27127 29.0037 0.987528 28.8343 0.748867C28.665 0.510207 28.4283 0.327628 28.1548 0.224785C27.8814 0.121942 27.5838 0.103573 27.3006 0.17206L27.2981 0.16852ZM1.46365 7.99956L25.749 2.04869L12.404 11.6247C12.2253 11.4886 12.0244 11.3848 11.8103 11.3178L1.46365 7.99956ZM13.0942 24.3566L13.348 13.4854C13.3606 13.2545 13.3275 13.0231 13.2506 12.8046L26.6074 3.22019L13.0942 24.3566Z" fill="white"/>
</svg>
