<svg width="22" height="23" viewBox="0 0 22 23" fill="none" xmlns="http://www.w3.org/2000/svg">
<path d="M9.75623 22.0305C9.41562 21.9567 9.1084 21.7735 8.8813 21.5086C8.67311 21.179 8.56125 20.7975 8.55841 20.4074C8.50633 20.0316 8.46988 19.6507 8.40738 19.2749C8.39659 19.2314 8.37659 19.1907 8.34873 19.1555C8.32088 19.1204 8.28583 19.0917 8.24594 19.0714C7.92305 18.92 7.58974 18.7843 7.25643 18.6591C7.21654 18.6472 7.1746 18.6438 7.13333 18.6492C7.09206 18.6546 7.05238 18.6686 7.01687 18.6904C6.61586 18.9931 6.22527 19.3062 5.82426 19.6089C5.68844 19.7302 5.5298 19.823 5.35766 19.882C5.18551 19.9409 5.00334 19.9648 4.82186 19.9521C4.64039 19.9395 4.46326 19.8906 4.30091 19.8083C4.13856 19.7261 3.99427 19.6122 3.87651 19.4732L2.56932 18.1633C2.43119 18.0453 2.31803 17.9009 2.23649 17.7385C2.15495 17.576 2.10669 17.3989 2.09456 17.2174C2.08242 17.036 2.10666 16.854 2.16584 16.6821C2.22502 16.5102 2.31793 16.3519 2.43912 16.2166C2.73597 15.8252 3.03283 15.439 3.34009 15.058C3.38106 15.0157 3.40686 14.961 3.41346 14.9024C3.42006 14.8439 3.40707 14.7848 3.37655 14.7344C3.23072 14.4317 3.11094 14.1186 2.99116 13.8054C2.98056 13.7534 2.95265 13.7064 2.91197 13.6723C2.87129 13.6381 2.82026 13.6189 2.76722 13.6176L1.29859 13.4349C0.940355 13.4121 0.604956 13.2508 0.363058 12.985C0.12116 12.7192 -0.00834288 12.3697 0.00182808 12.0101C0.00182808 11.363 0.00182808 10.7211 0.00182808 10.0739C-0.0168002 9.71072 0.107523 9.35472 0.348071 9.08243C0.588618 8.81014 0.926182 8.64332 1.28818 8.61783L2.76202 8.44038C2.81409 8.43849 2.86412 8.41962 2.90453 8.38665C2.94494 8.35369 2.97353 8.30843 2.98595 8.25772C3.10574 7.93414 3.24114 7.61579 3.38175 7.30787C3.40986 7.26393 3.42256 7.21185 3.41784 7.15987C3.41313 7.1079 3.39127 7.05898 3.35572 7.02083L2.42871 5.83092C2.19212 5.55956 2.07198 5.20558 2.09441 4.84594C2.11684 4.4863 2.28002 4.15007 2.54849 3.91034L3.90254 2.55342C4.1398 2.28749 4.47136 2.12501 4.8265 2.10063C5.18163 2.07626 5.53221 2.19192 5.80343 2.42294C6.19923 2.73086 6.59503 3.03879 6.98563 3.35192C7.02621 3.39014 7.07795 3.4143 7.13325 3.42088C7.18855 3.42745 7.24451 3.41609 7.29289 3.38845C7.59495 3.24754 7.90742 3.12229 8.2199 3.00747C8.2773 2.99173 8.32808 2.95782 8.36468 2.91079C8.40129 2.86377 8.42175 2.80615 8.423 2.74652C8.4855 2.22463 8.54278 1.70273 8.63132 1.14431C8.67943 0.821239 8.84353 0.526874 9.09283 0.316441C9.34213 0.106007 9.6595 -0.00603266 9.98537 0.00135822H11.9644C12.3228 -0.0145656 12.6734 0.110031 12.9417 0.348724C13.21 0.587418 13.375 0.921449 13.4018 1.28C13.4643 1.77058 13.5267 2.26638 13.5788 2.75696C13.5805 2.81253 13.6003 2.86602 13.635 2.90934C13.6698 2.95266 13.7177 2.98344 13.7715 2.99703C14.0944 3.11707 14.4121 3.24754 14.7246 3.39367C14.7687 3.42009 14.8205 3.43086 14.8715 3.42424C14.9225 3.41761 14.9698 3.39398 15.0058 3.35714L16.1932 2.42817C16.4625 2.19459 16.8126 2.0763 17.1681 2.09875C17.5236 2.1212 17.8561 2.28259 18.0941 2.5482L19.4585 3.91556C19.7236 4.15403 19.8846 4.48723 19.907 4.84348C19.9294 5.19973 19.8114 5.55055 19.5783 5.82048C19.2763 6.21712 18.9742 6.60854 18.6669 6.99474C18.6243 7.0359 18.597 7.09038 18.5894 7.1492C18.5819 7.20801 18.5945 7.26766 18.6253 7.31831C18.7711 7.62101 18.8909 7.93414 19.0107 8.24728C19.0221 8.29895 19.0503 8.3454 19.0908 8.37938C19.1313 8.41335 19.1818 8.43296 19.2346 8.43516C19.7085 8.49257 20.1824 8.56041 20.6616 8.6126C20.9684 8.62194 21.2632 8.7339 21.4992 8.93062C21.7351 9.12735 21.8986 9.39753 21.9635 9.69814C21.9635 9.72945 21.9635 9.75034 22 9.77643V12.2763C21.9847 12.3081 21.9725 12.3413 21.9635 12.3755C21.8956 12.6557 21.7413 12.9073 21.5225 13.0947C21.3038 13.282 21.0317 13.3956 20.7449 13.4192C20.2554 13.4871 19.7658 13.5497 19.2763 13.5967C19.2122 13.5963 19.15 13.6178 19.0998 13.6576C19.0496 13.6975 19.0145 13.7533 19.0002 13.8159C18.8909 14.1186 18.7711 14.4161 18.6357 14.7083C18.6005 14.7596 18.5844 14.8216 18.5901 14.8836C18.5958 14.9456 18.623 15.0036 18.6669 15.0476C18.9794 15.4407 19.2867 15.8373 19.5887 16.2375C19.8143 16.5044 19.9283 16.8482 19.9069 17.1973C19.8856 17.5464 19.7305 17.8738 19.4742 18.1111L18.0941 19.4941C17.8561 19.7602 17.5231 19.9214 17.1672 19.9429C16.8113 19.9644 16.4613 19.8444 16.1932 19.6089L15.0058 18.6851C14.969 18.6479 14.9208 18.624 14.8689 18.6174C14.8169 18.6108 14.7643 18.6218 14.7194 18.6486C14.4121 18.7948 14.0944 18.92 13.7715 19.0453C13.7208 19.0565 13.675 19.0839 13.6412 19.1235C13.6074 19.163 13.5873 19.2125 13.584 19.2645C13.5424 19.6507 13.4955 20.0369 13.4434 20.4178C13.438 20.7859 13.3356 21.146 13.1466 21.4616C12.9237 21.755 12.6046 21.9602 12.2456 22.0409L9.75623 22.0305ZM21.0886 10.9977V10.0739C21.0944 10.0019 21.0852 9.92956 21.0616 9.86134C21.038 9.79313 21.0006 9.73055 20.9516 9.67757C20.9027 9.6246 20.8433 9.58238 20.7772 9.55358C20.7112 9.52478 20.6399 9.51003 20.5678 9.51026L18.7399 9.28063C18.6211 9.27458 18.5071 9.23164 18.4138 9.15776C18.3205 9.08388 18.2524 8.98273 18.2191 8.86833C18.0368 8.34644 17.8285 7.87151 17.6045 7.38093C17.545 7.27947 17.519 7.16175 17.5302 7.0446C17.5415 6.92744 17.5893 6.81683 17.667 6.72857C18.0524 6.23799 18.4326 5.74741 18.8128 5.25161C18.8634 5.20466 18.903 5.14696 18.9286 5.08272C18.9542 5.01848 18.9651 4.94933 18.9607 4.88031C18.9562 4.81129 18.9363 4.74414 18.9027 4.68378C18.869 4.62341 18.8222 4.57136 18.7659 4.5314L17.4431 3.20578C17.4028 3.14489 17.3488 3.09428 17.2855 3.05795C17.2222 3.02163 17.1514 3.0006 17.0786 2.99654C17.0057 2.99249 16.933 3.00553 16.8661 3.0346C16.7992 3.06368 16.74 3.108 16.6932 3.16404C16.2036 3.5398 15.7141 3.91556 15.2349 4.30176C15.1484 4.37676 15.0405 4.42264 14.9265 4.43294C14.8125 4.44324 14.6982 4.41744 14.5996 4.35917C14.1257 4.1452 13.6465 3.93122 13.157 3.759C13.0246 3.72785 12.9062 3.65358 12.8205 3.5478C12.7347 3.44202 12.6864 3.31072 12.6831 3.17447C12.6258 2.57951 12.5425 1.97934 12.4591 1.38438C12.4601 1.31349 12.4455 1.24325 12.4164 1.17861C12.3873 1.11396 12.3445 1.05649 12.2909 1.01023C12.2373 0.963961 12.1742 0.930031 12.1061 0.910818C12.038 0.891605 11.9665 0.887574 11.8967 0.899016H10.0739C9.70935 0.899016 9.55311 1.03471 9.50103 1.42091C9.42292 2.02631 9.3448 2.63171 9.2771 3.2371C9.2696 3.35723 9.22495 3.47204 9.14935 3.56557C9.07375 3.65909 8.97096 3.7267 8.85526 3.759C8.33447 3.94166 7.86055 4.15041 7.37101 4.37483C7.26878 4.43224 7.15133 4.45654 7.03478 4.44439C6.91822 4.43224 6.80827 4.38424 6.72002 4.30698C6.24089 3.92078 5.75135 3.54502 5.2618 3.16926C5.21502 3.11554 5.15653 3.07334 5.09086 3.04593C5.02518 3.01851 4.95409 3.00661 4.88308 3.01115C4.81208 3.01569 4.74308 3.03655 4.68141 3.07211C4.61975 3.10767 4.56709 3.15699 4.5275 3.21622L3.22031 4.52618C3.15899 4.56785 3.10804 4.62305 3.07136 4.68755C3.03467 4.75205 3.01324 4.82413 3.00871 4.89823C3.00419 4.97233 3.01668 5.04648 3.04524 5.11498C3.07379 5.18349 3.11765 5.24451 3.17344 5.29336C3.54841 5.77872 3.91817 6.25886 4.29835 6.73901C4.37604 6.82727 4.42391 6.93788 4.43513 7.05504C4.44636 7.17219 4.42035 7.28991 4.36084 7.39137C4.14211 7.87152 3.93379 8.36209 3.75152 8.85789C3.7197 8.98266 3.64801 9.09357 3.54739 9.17368C3.44677 9.25378 3.32274 9.29868 3.19427 9.30151C2.60057 9.36935 2.00166 9.44763 1.40796 9.52592C1.04861 9.57289 0.88717 9.73468 0.88717 10.1V11.9318C0.88717 12.318 1.03299 12.4537 1.40796 12.5216L3.22031 12.746C3.33476 12.7546 3.44363 12.799 3.53149 12.873C3.61935 12.947 3.68175 13.0468 3.70985 13.1583C3.89734 13.6541 4.09524 14.1447 4.31918 14.6248C4.38408 14.7311 4.41305 14.8555 4.4018 14.9796C4.39054 15.1037 4.33965 15.2209 4.25668 15.3137C3.8713 15.7991 3.49632 16.2844 3.12136 16.775C3.07067 16.822 3.0311 16.8797 3.00551 16.9439C2.97992 17.0082 2.96898 17.0773 2.97347 17.1463C2.97796 17.2153 2.99778 17.2825 3.03147 17.3429C3.06517 17.4032 3.1119 17.4553 3.16823 17.4952L4.47541 18.8052C4.75664 19.087 4.93891 19.0974 5.2618 18.8522C5.74614 18.4764 6.23569 18.0954 6.71481 17.7144C6.79689 17.6428 6.89931 17.5987 7.00766 17.5884C7.11602 17.5781 7.22488 17.6021 7.31893 17.657C7.81368 17.8762 8.30843 18.0954 8.8188 18.2833C8.94 18.3153 9.04739 18.3862 9.12452 18.4851C9.20166 18.5841 9.24428 18.7057 9.24585 18.8313C9.31356 19.4367 9.39168 20.0421 9.475 20.6423C9.47894 20.7118 9.49671 20.7798 9.52729 20.8423C9.55787 20.9049 9.60062 20.9606 9.65304 21.0063C9.70545 21.0521 9.76647 21.0868 9.83249 21.1085C9.89851 21.1302 9.96819 21.1385 10.0374 21.1328H11.8863C11.9589 21.1401 12.0323 21.1321 12.1016 21.1091C12.1709 21.0862 12.2346 21.0489 12.2887 20.9997C12.3427 20.9505 12.3858 20.8905 12.4151 20.8235C12.4445 20.7565 12.4595 20.6841 12.4591 20.6109C12.5372 20.0108 12.6154 19.4054 12.6831 18.8C12.689 18.6794 12.7331 18.5638 12.8089 18.47C12.8848 18.3762 12.9884 18.3089 13.1049 18.2781C13.6257 18.0954 14.0892 17.8919 14.5683 17.6675C14.6755 17.6038 14.8003 17.5765 14.9241 17.5897C15.048 17.6028 15.1643 17.6557 15.2558 17.7405C15.7297 18.1215 16.214 18.4921 16.6984 18.8678C16.7461 18.9203 16.805 18.9613 16.8708 18.9877C16.9366 19.0141 17.0075 19.0252 17.0781 19.0202C17.1488 19.0151 17.2174 18.9941 17.2789 18.9587C17.3403 18.9233 17.3929 18.8744 17.4327 18.8156C17.8753 18.3772 18.3128 17.9336 18.7555 17.49C18.8134 17.4493 18.8614 17.3959 18.8958 17.3339C18.9302 17.272 18.9501 17.203 18.9541 17.1322C18.9581 17.0614 18.9461 16.9906 18.9189 16.9251C18.8917 16.8596 18.8501 16.8012 18.7971 16.7541C18.417 16.2583 18.0368 15.7678 17.6514 15.2772C17.5756 15.1942 17.5286 15.089 17.5173 14.9771C17.506 14.8651 17.5311 14.7526 17.5889 14.6561C17.8076 14.1708 18.0264 13.675 18.2086 13.174C18.2405 13.0492 18.3122 12.9383 18.4128 12.8582C18.5134 12.7781 18.6374 12.7332 18.7659 12.7303C19.37 12.6677 19.9741 12.5842 20.5782 12.5059C20.6468 12.5043 20.7143 12.4883 20.7763 12.4588C20.8383 12.4294 20.8934 12.3872 20.9381 12.335C20.9828 12.2829 21.016 12.2219 21.0357 12.156C21.0553 12.0902 21.0609 12.0209 21.0522 11.9527L21.0886 10.9977Z" fill="white" fill-opacity="0.65"/>
</svg>
