<svg width="20" height="22" viewBox="0 0 20 22" fill="none" xmlns="http://www.w3.org/2000/svg">
<path d="M19.6301 0.20194C19.2355 -0.0939611 18.6437 -0.0939611 18.2491 0.39921L15.3884 3.95002C13.8101 2.86505 11.9359 2.27325 9.8644 2.27325C4.43896 2.27325 0 6.71177 0 12.1366C0 17.5615 4.43896 22 9.8644 22C15.2898 22 19.7287 17.5615 19.7287 12.1366C19.7287 10.1639 19.1369 8.38854 18.1504 6.8104L17.4599 7.59947L16.7694 8.38854L11.0481 15.5888C10.8508 15.7861 10.5549 15.9833 10.2589 15.9833C9.963 15.9833 9.7657 15.8847 9.5684 15.6874L5.32676 11.1503C5.03083 10.8544 5.03083 10.3612 5.12947 10.0653C5.12947 9.9667 5.22811 9.868 5.32676 9.7694C5.72133 9.3749 6.31319 9.3749 6.70777 9.7694L10.1603 13.5175L15.5857 6.71177L16.1776 5.9227L16.7694 5.13363L19.6301 1.58281C20.1233 1.18828 20.1233 0.59648 19.6301 0.20194Z" fill="white"/>
</svg>
