<svg width="17" height="22" viewBox="0 0 17 22" fill="none" xmlns="http://www.w3.org/2000/svg">
<path d="M14.6201 22H2.0101C1.41256 21.906 0.873229 21.588 0.501734 21.1106C0.13024 20.6332 -0.0455443 20.0323 0.0100959 19.43V2.43C-0.0100133 2.03867 0.0714917 1.64881 0.246729 1.29833C0.421967 0.947855 0.684969 0.648709 1.0101 0.43C1.33022 0.257719 1.66484 0.113834 2.0101 0H10.5001C11.0123 0.103333 11.4862 0.345491 11.8701 0.700001C13.2034 1.96 14.5367 3.21 15.8701 4.45C16.1471 4.70273 16.3665 5.0122 16.5131 5.35733C16.6598 5.70246 16.7304 6.07514 16.7201 6.45C16.7201 10.72 16.7201 14.99 16.7201 19.26C16.7201 19.42 16.7201 19.58 16.7201 19.75C16.6965 20.245 16.5177 20.7201 16.2089 21.1078C15.9002 21.4955 15.4773 21.7762 15.0001 21.91L14.6201 22ZM9.99008 1.29H2.41009C2.25207 1.27604 2.09291 1.29706 1.94393 1.35157C1.79496 1.40608 1.65981 1.49274 1.54812 1.60539C1.43643 1.71804 1.35093 1.85391 1.29769 2.00334C1.24445 2.15278 1.22477 2.3121 1.24008 2.47V19.53C1.2243 19.6897 1.24433 19.851 1.2987 20.002C1.35307 20.153 1.44043 20.29 1.55441 20.4031C1.66839 20.5161 1.80613 20.6023 1.95761 20.6554C2.10908 20.7085 2.27048 20.7271 2.43008 20.71H14.2001C14.3616 20.7277 14.5249 20.7087 14.678 20.6545C14.8311 20.6002 14.97 20.5122 15.0844 20.3969C15.1987 20.2816 15.2856 20.1419 15.3386 19.9884C15.3915 19.8348 15.4091 19.6713 15.3901 19.51V6.45H11.6101C11.3917 6.46513 11.1727 6.43291 10.9679 6.35556C10.7631 6.27821 10.5775 6.15754 10.4237 6.00182C10.2698 5.8461 10.1515 5.65899 10.0766 5.45329C10.0018 5.2476 9.97227 5.02816 9.99008 4.81V1.29ZM14.6901 5.16L11.2801 1.92V4.92C11.2751 4.95531 11.2783 4.9913 11.2896 5.02513C11.3009 5.05896 11.32 5.08969 11.3452 5.11491C11.3704 5.14013 11.4011 5.15914 11.435 5.17043C11.4688 5.18173 11.5048 5.18501 11.5401 5.18L14.6901 5.16Z" fill="white" fill-opacity="0.65"/>
<path d="M8.20843 8.59001H12.8584C12.9675 8.5839 13.0764 8.60539 13.175 8.65249C13.2736 8.6996 13.3587 8.7708 13.4225 8.8595C13.4863 8.94821 13.5267 9.05157 13.5399 9.16003C13.5532 9.26848 13.539 9.37853 13.4984 9.48001C13.4485 9.60419 13.3608 9.70958 13.2478 9.78133C13.1348 9.85309 13.0021 9.8876 12.8684 9.88H3.60843C3.51536 9.88993 3.4215 9.88993 3.32843 9.88C3.17382 9.8485 3.03667 9.76013 2.94409 9.63236C2.8515 9.50459 2.81022 9.34674 2.82843 9.19001C2.84824 9.02743 2.92781 8.87803 3.05163 8.77084C3.17546 8.66365 3.33471 8.60632 3.49844 8.61001L8.20843 8.59001Z" fill="white" fill-opacity="0.65"/>
<path d="M8.18844 12H12.8584C12.9499 11.9886 13.0427 11.9968 13.1308 12.024C13.2188 12.0512 13.3001 12.0968 13.3691 12.1578C13.4382 12.2188 13.4935 12.2937 13.5314 12.3777C13.5693 12.4617 13.5889 12.5528 13.5889 12.645C13.5889 12.7371 13.5693 12.8282 13.5314 12.9122C13.4935 12.9963 13.4382 13.0712 13.3691 13.1322C13.3001 13.1932 13.2188 13.2388 13.1308 13.266C13.0427 13.2932 12.9499 13.3014 12.8584 13.29H3.59844C3.50871 13.2999 3.41815 13.2999 3.32842 13.29C3.17197 13.2607 3.03244 13.1732 2.93783 13.0452C2.84322 12.9172 2.80056 12.7582 2.81844 12.6C2.83604 12.4365 2.91494 12.2857 3.03927 12.1781C3.1636 12.0705 3.32409 12.014 3.48843 12.02H8.17843L8.18844 12Z" fill="white" fill-opacity="0.65"/>
<path d="M5.0386 16.76H3.55859C3.46715 16.7714 3.37433 16.7632 3.28629 16.736C3.19824 16.7088 3.11696 16.6632 3.04788 16.6022C2.9788 16.5412 2.92351 16.4663 2.88562 16.3823C2.84773 16.2982 2.82812 16.2071 2.82812 16.115C2.82812 16.0228 2.84773 15.9317 2.88562 15.8477C2.92351 15.7637 2.9788 15.6888 3.04788 15.6278C3.11696 15.5668 3.19824 15.5212 3.28629 15.494C3.37433 15.4668 3.46715 15.4586 3.55859 15.47H6.55859C6.65004 15.4586 6.74285 15.4668 6.8309 15.494C6.91895 15.5212 7.00023 15.5668 7.06931 15.6278C7.13838 15.6888 7.19368 15.7637 7.23157 15.8477C7.26946 15.9317 7.28906 16.0228 7.28906 16.115C7.28906 16.2071 7.26946 16.2982 7.23157 16.3823C7.19368 16.4663 7.13838 16.5412 7.06931 16.6022C7.00023 16.6632 6.91895 16.7088 6.8309 16.736C6.74285 16.7632 6.65004 16.7714 6.55859 16.76H5.0386Z" fill="white" fill-opacity="0.65"/>
</svg>
