<svg width="53" height="17" viewBox="0 0 53 17" fill="none" xmlns="http://www.w3.org/2000/svg">
<g clip-path="url(#clip0_292_1137)">
<path d="M52.2904 16.6502H48.7604C48.4804 16.6502 48.3404 16.5802 48.2904 16.2702C48.1804 15.6002 48.0204 14.9402 47.8704 14.2702C47.7404 14.2702 47.6104 14.2702 47.4804 14.2702C45.9404 14.2702 44.4104 14.2702 42.8804 14.2702C42.7482 14.2495 42.6131 14.2806 42.5032 14.3569C42.3933 14.4333 42.3171 14.5491 42.2904 14.6802C42.1102 15.2673 41.8999 15.8447 41.6604 16.4102C41.6264 16.4856 41.5752 16.552 41.511 16.6041C41.4467 16.6562 41.3712 16.6926 41.2904 16.7102C39.9304 16.7102 38.5704 16.7102 37.1504 16.7102C37.2204 16.5102 37.2804 16.3502 37.3404 16.2002C39.3404 11.4202 41.3404 6.64357 43.3404 1.87023C43.4682 1.37411 43.7746 0.94259 44.2008 0.658409C44.6271 0.374229 45.1433 0.257377 45.6504 0.330223H48.8904C49.2504 2.04022 49.6004 3.72023 49.9504 5.40023C50.7104 9.02023 51.4637 12.6402 52.2104 16.2602C52.2377 16.3394 52.2711 16.4163 52.3104 16.4902L52.2904 16.6502ZM45.9304 4.92022H45.8204L43.6804 10.8402H47.1604L45.9304 4.92022Z" fill="white"/>
<path d="M0.00976562 0.749978C0.00976562 0.349978 0.159767 0.269997 0.479767 0.269997H7.06976C7.33573 0.243949 7.60422 0.271467 7.85938 0.35093C8.11453 0.430392 8.35118 0.560187 8.55533 0.732644C8.75948 0.9051 8.92701 1.1167 9.048 1.35499C9.16899 1.59328 9.24099 1.85342 9.25977 2.12L10.9098 10.96L10.9998 11.33C11.1098 11.09 11.1798 10.95 11.2398 10.81C12.5731 7.47667 13.9064 4.12 15.2398 0.739998C15.2713 0.586776 15.3605 0.451524 15.4889 0.362191C15.6173 0.272858 15.7752 0.236261 15.9298 0.259987C17.2098 0.259987 18.4898 0.259987 19.8298 0.259987C19.7935 0.40977 19.7467 0.556805 19.6898 0.69999C17.5298 5.87999 15.3498 11.06 13.1998 16.25C13.1646 16.377 13.0842 16.4868 12.9736 16.5586C12.8631 16.6305 12.7301 16.6594 12.5998 16.64C11.4198 16.64 10.2498 16.64 9.06976 16.64C8.63976 16.64 8.49978 16.49 8.39978 16.1C7.34978 11.97 6.26978 7.85999 5.23978 3.72999C5.17219 3.30757 4.99009 2.91178 4.71329 2.58561C4.43649 2.25944 4.07557 2.01538 3.66977 1.87998C2.66977 1.52998 1.57975 1.19998 0.529755 0.879982L0.00976562 0.749978Z" fill="white"/>
<path d="M26.0092 12.5999C27.0136 12.9321 28.0393 13.196 29.0792 13.3899C29.9379 13.4557 30.8015 13.412 31.6492 13.2599C31.9493 13.1956 32.2259 13.0503 32.4492 12.8399C32.588 12.7372 32.7021 12.6048 32.7832 12.4524C32.8643 12.3 32.9104 12.1314 32.918 11.959C32.9257 11.7865 32.8948 11.6145 32.8275 11.4555C32.7603 11.2965 32.6583 11.1545 32.5292 11.0399C32.0412 10.6445 31.5192 10.2932 30.9692 9.98991C30.2792 9.55991 29.5292 9.2199 28.8692 8.73991C28.3123 8.3547 27.854 7.84367 27.5315 7.2483C27.209 6.65292 27.0312 5.98994 27.0127 5.31306C26.9942 4.63617 27.1355 3.96444 27.425 3.35233C27.7145 2.74022 28.1442 2.20495 28.6792 1.78989C30.3908 0.424108 32.5718 -0.211857 34.7492 0.0199043C35.5437 0.092038 36.3323 0.219012 37.1092 0.399909C37.4495 0.483579 37.7836 0.590473 38.1092 0.719886L37.3692 4.1699C36.1577 3.6158 34.8294 3.36523 33.4992 3.43989C33.0289 3.48276 32.5692 3.60447 32.1392 3.7999C31.9322 3.86248 31.7488 3.98575 31.6126 4.15375C31.4765 4.32176 31.394 4.52676 31.3756 4.74222C31.3573 4.95769 31.4041 5.17368 31.5099 5.36225C31.6158 5.55082 31.7758 5.70329 31.9692 5.7999C32.6092 6.2599 33.3392 6.61988 33.9692 7.02988C34.3792 7.26988 34.7992 7.48989 35.1992 7.75989C35.7923 8.13645 36.2896 8.64577 36.6519 9.2476C37.0142 9.84942 37.2316 10.5273 37.2869 11.2276C37.3422 11.9279 37.2339 12.6314 36.9705 13.2827C36.7071 13.9339 36.2958 14.5149 35.7692 14.9799C34.7671 15.9174 33.5055 16.5308 32.1492 16.7399C29.9943 17.1237 27.7778 16.9656 25.6992 16.2799C25.3092 16.1599 25.2092 15.9999 25.3192 15.5799C25.6292 14.5499 25.8192 13.5199 26.0092 12.5999Z" fill="white"/>
<path d="M21.6404 0.299805H25.8604L25.3104 2.9198C24.357 7.34647 23.4104 11.7765 22.4704 16.2098C22.4004 16.5498 22.2904 16.6598 21.9504 16.6498C20.7104 16.6498 19.4704 16.6498 18.1504 16.6498L21.6404 0.299805Z" fill="white"/>
</g>
<defs>
<clipPath id="clip0_292_1137">
<rect width="52.29" height="16.92" fill="white"/>
</clipPath>
</defs>
</svg>
